<?xml version="1.0" encoding="UTF-8"?>
<svg width="191px" height="135px" viewBox="0 0 191 135" version="1.1" xmlns="http://www.w3.org/2000/svg" xmlns:xlink="http://www.w3.org/1999/xlink">
    <!-- Generator: Sketch 55.2 (78181) - https://sketchapp.com -->
    <title>Illustration/Isolated/Large/Resi_Home_Build</title>
    <desc>Created with Sketch.</desc>
    <g id="Illustration/Isolated/Large/Resi_Home_Build" stroke="none" stroke-width="1" fill="none" fill-rule="evenodd">
        <g fill-rule="nonzero">
            <g id="YaLVmW" transform="translate(0.000000, 18.543052)" fill="#EEF5FF">
                <path d="M90.5527869,66.0884392 C89.0990398,66.4242187 87.6363466,66.6798122 86.1960187,67.0907663 C78.7528337,69.3209441 71.3096487,71.5110289 63.884356,73.8664977 C55.9357143,76.3723155 48.0049649,79.0685755 40.0652693,81.6696144 C37.081733,82.6468833 34.0981967,83.5940824 31.1191335,84.5513049 C28.6142155,85.3481549 26.0600937,83.6291639 24.7450117,80.271368 C23.4030913,76.8133394 23.4970258,72.5334026 25.3309836,69.5113863 C26.3061124,67.9126745 27.6033021,66.4392537 28.9362763,65.7526596 C35.4445902,62.4199219 42.0021077,59.2876496 48.5730445,56.2305519 C55.6181265,52.9679771 62.703466,49.9058677 69.7664403,46.7084441 C75.8766511,43.9570562 81.9779157,41.1455286 88.1060187,38.4091755 C92.3241218,36.5197889 96.5601171,34.7256233 100.782693,32.8963763 C101.236607,32.6952371 101.626175,32.3460586 101.90096,31.8940492 C98.8145433,32.7159574 95.7147073,33.4526679 92.6417096,34.399867 C86.8267213,36.1489279 81.011733,37.908012 75.2325293,39.847515 C69.3593911,41.8521692 63.5086183,43.9821144 57.6802108,46.2223155 C52.3125293,48.2770861 46.9448478,50.3268451 41.6800468,52.7725233 C34.1384543,56.25561 26.6594848,59.9642204 19.234192,63.8382148 C15.0295082,66.0232879 10.9411241,68.7446061 6.79459016,71.1902842 C6.13296239,71.5667721 5.43713092,71.8624867 4.71908665,72.0723321 C3.01037471,72.6186004 1.41348946,71.4057846 0.693325527,69.0653507 C-0.0178922717,66.8101147 0.246018735,64.0537151 1.58793911,62.5201546 C3.46662763,60.4202793 5.39004684,58.2803108 7.49238876,56.8219249 C14.5195785,51.9255568 21.5422951,46.9540143 28.7439344,42.7241938 C34.8944028,39.1108045 41.2685246,36.3544049 47.5800234,33.4476562 C52.3483138,31.2525598 57.170281,29.3080452 62.0011944,27.4336935 C66.8321077,25.5593418 71.6898595,23.9255485 76.5520843,22.241639 C80.8014988,20.7882646 85.0509133,19.3850066 89.3271663,18.0920047 C94.2982358,16.5818318 99.2797424,15.1518451 104.271686,13.8020445 C109.661733,12.3436586 115.060726,10.9203541 120.468665,9.64238697 C125.567963,8.43959441 130.685152,7.42724402 135.797869,6.37480053 C140.244098,5.46268285 144.690328,4.51047207 149.145504,3.75371509 C154.319352,2.8783494 159.503638,2.11156915 164.698361,1.45337434 C169.26089,0.882047872 173.827892,0.420977394 178.399368,0.120279255 C180.866022,-0.0410266591 183.340621,0.0461920157 185.793349,0.380884309 C187.976206,0.681582447 189.537307,2.6862367 190.311148,5.85860206 C191.120476,8.92493638 190.742272,12.2311999 189.268923,14.9697557 C187.224731,18.84375 184.32171,19.9813913 181.360539,20.9837184 C175.971983,22.7879072 170.578954,24.5787317 165.181452,26.3561918 C159.961382,28.0801945 154.732365,29.724011 149.525714,31.5332114 C144.538244,33.272249 139.577611,35.1716589 134.60356,37.0159408 C134.144834,37.2010803 133.724717,37.489299 133.368993,37.8629072 C136.723794,37.3216506 140.078595,36.7904172 143.437869,36.2391373 C147.141569,35.6277178 150.836323,34.9611702 154.540023,34.3848321 C158.418173,33.7734126 162.300796,33.217121 166.17,32.680876 C167.594334,32.4558809 169.030262,32.3353451 170.468618,32.3200382 C173.81,32.3200382 176.39096,36.3293467 176.950094,42.1829372 C177.424239,47.1945728 175.66185,51.7050449 172.517283,53.1083029 C164.716253,56.5295795 156.901803,59.8706699 149.073934,63.1315741 C143.361827,65.5070894 137.622881,67.6971742 131.888407,69.9473986 C129.419274,70.9196559 126.936721,71.8417969 124.476534,72.95438 C125.626112,72.95438 126.780164,73.0345662 127.929742,72.95438 C133.297424,72.5367437 138.67256,72.087367 144.055152,71.60625 C144.645011,71.476775 145.21371,71.24692 145.741499,70.9246676 C149.382576,69.2507812 152.969977,71.9269947 154.168759,77.1942237 C155.367541,82.4614528 153.631991,87.9141124 150.142998,90.2244764 C147.79911,91.7680602 145.365761,91.2268035 142.986089,91.4222573 C138.016511,91.8332114 133.042459,92.1990608 128.068407,92.6300615 C124.530211,92.9407829 120.987541,93.2715509 117.453817,93.6925283 C113.69644,94.1385638 109.939063,94.6096576 106.190632,95.2461353 C101.28815,96.0780668 96.3916315,97.0085605 91.5010773,98.0376164 C87.8644731,98.8043966 84.2412881,99.7866772 80.61363,100.698795 C76.9009836,101.630959 73.1883372,102.603216 69.4756909,103.555427 C66.912623,104.216963 64.3629742,104.983743 61.7864871,105.499942 C58.9628265,106.133569 56.1038548,106.550504 53.2295082,106.747839 C50.0267916,106.878142 46.7525059,101.806366 46.300726,96.5241024 C45.8802576,91.6026762 47.7455269,87.3678441 51.0555972,85.6839345 C57.0539813,82.63686 63.03,79.4695063 69.0552225,76.5527344 C74.7002342,73.821393 80.3989227,71.3606799 86.0528806,68.759641 C87.5826698,68.058012 89.0945667,67.2862201 90.6109368,66.544498 L90.5527869,66.0884392 Z" id="Path"></path>
            </g>
            <g id="Group-8" transform="translate(30.197518, 0.200465)">
                <path d="M121.124886,25.8618405 C121.079645,20.2743469 120.885106,12.1674711 120.554844,6.58952061 L120.265299,4.17988418 C111.343688,3.03789147 102.432634,1.80364865 93.5321366,0.477155728 L90.5959676,2.84217094e-13 L83.5428284,9.35225228 L75.5803363,19.8926223 L72.9563333,23.366316 C65.1476621,33.6983281 57.3344668,44.0192065 49.5167474,54.3289512 L49.4669818,56.1087421 C49.3991196,62.6076031 49.222678,70.5331598 49.1729125,76.7504989 L78.9779679,80.3530247 L86.4201835,70.4949873 C98.4136871,56.4093502 109.547604,41.5316346 120.667948,26.6730052 L121.120362,25.8618405" id="Path" fill="#DADDE1"></path>
                <path d="M79.1770302,58.9191893 L117.596054,8.97529925 C118.414924,7.91124198 116.985295,6.38434365 116.157377,7.45794404 L77.7383527,57.4018341 C76.9194827,58.4658914 78.349112,59.9927897 79.1770302,58.9191893 Z" id="Path" fill="#FFFFFF"></path>
                <polygon id="Path" fill="#C8CFD7" points="-3.57402996e-12 26.9306693 5.84066888 12.6064543 7.97606447 13.5035071 121.450624 61.1665928 114.411057 109.731503 106.629531 112.985705 105.530164 108.381152 101.010545 108.452726 99.9157026 103.848173 95.3960836 103.919746 94.3012409 99.3199649 89.786146 99.3915382 88.6913034 94.7869855 84.1716843 94.8633304 83.0768416 90.2587776 78.5572226 90.330351 77.4623799 85.7257982 72.9427609 85.8021431 71.8479182 81.1975903 67.3328233 81.2691637 66.2379806 76.6693824 61.7183616 76.7409558 60.6280431 72.1411746 56.108424 72.2127479 55.0135813 67.6129667 50.4984864 67.6845401 49.4036438 63.0847589 44.8885489 63.1563322 43.7937062 58.556551 39.2786113 58.6328959 38.1837686 54.0283431 33.6686737 54.104688 32.5738311 49.5001353 28.054212 49.5764802 26.9593693 44.9719274 22.4442744 45.0482723 21.3494318 40.4437195 16.8343369 40.5152929 15.7394942 35.9155117 11.2198751 35.987085 10.1295566 31.3873038 5.60993757 31.4588772 4.51509492 26.859096"></polygon>
                <path d="M119.640967,58.9239609 C118.433021,58.4181758 117.111971,58.6328959 116.356439,59.7160394 C116.279817,59.8304651 116.210301,59.9500042 116.148328,60.0739062 L112.253041,67.8229152 L107.814857,76.6550678 C107.268943,77.7525259 106.718506,78.8483936 106.163544,79.9426707 C105.864951,80.543887 105.512068,81.1546463 105.258716,81.794035 C105.119633,82.1366699 105.019408,82.4954313 104.960122,82.8628638 C104.878577,83.7113963 105.00637,84.5677534 105.331102,85.3488451 C105.543737,85.9786907 105.760896,86.6085363 105.978055,87.2574681 C107.000511,90.2412819 108.024475,93.2219147 109.049948,96.1993664 L112.144462,105.208067 L113.189539,108.247549 C113.338836,108.676989 113.483608,109.106429 113.641953,109.50724 C113.971556,110.485998 114.675778,111.273747 115.582811,111.678298 L148.382849,125.458556 L148.654297,125.573073 C149.335517,125.835521 150.096353,125.717039 150.676589,125.25815 C151.382356,124.661706 151.219487,123.826683 150.798741,123.068005 C150.353575,122.326228 149.857615,121.619747 149.314822,120.954206 L145.57788,115.891583 C153.074385,94.0521656 150.712783,82.6195144 150.712783,82.6195144 L157.693535,76.8507016 C157.897049,76.6717881 158.038639,76.4268144 158.096184,76.1540543 C158.207446,75.5865804 157.920703,75.0157788 157.413039,74.7941604 L119.640967,58.9239609 Z M123.658406,81.4981984 C125.34742,77.9036253 127.037941,74.3122331 128.729971,70.7240221 C128.775496,70.5748298 128.875708,70.4510396 129.00828,70.3802324 C129.140852,70.3094253 129.294768,70.2974839 129.435737,70.347069 L132.543823,71.6497042 C135.161794,72.7471624 137.781273,73.8493921 140.40226,74.9563934 C140.719145,75.0814086 140.908442,75.4248052 140.854674,75.7771012 L138.995252,98.4324552 C138.692134,102.149498 138.384492,105.866541 137.941126,109.56927 C137.782781,110.871905 137.579195,112.241342 136.805566,113.271998 C135.787634,114.627121 133.932735,115.075647 132.340237,114.665293 C130.755976,114.17128 129.362714,113.156536 128.363515,111.768958 C126.608148,109.50724 125.649029,106.768366 125.024697,103.891117 C124.613,101.982494 124.3506,100.045242 124.119869,98.1318471 C123.649358,94.4959205 123.181863,90.8568128 122.717384,87.214524 C122.567722,86.3411071 122.52817,85.4506584 122.599757,84.5663098 C122.784373,83.4902411 123.135938,82.4536364 123.64031,81.4981984 L123.658406,81.4981984 Z" id="Shape" fill="#EC6517"></path>
                <path d="M111.741813,83.3113902 C111.800478,83.4631068 111.832664,83.6247563 111.83682,83.7885459 C111.869089,84.1623009 111.774496,84.5360002 111.569896,84.8430601 C111.314258,85.1696184 110.950262,85.3811912 110.551963,85.4347332 C110.235244,85.4946303 109.909007,85.4172129 109.647135,85.2200131 C109.481104,85.0759857 109.337593,84.9053037 109.221865,84.714228 C109.185672,84.6521978 109.149479,84.5901675 109.11781,84.5233657 C108.940144,84.1509318 108.915602,83.7178046 109.049948,83.3257049 C109.062029,83.2870333 109.078753,83.2501517 109.099713,83.215959 C109.298682,82.8476853 109.621658,82.571768 110.004542,82.4429668 C110.190809,82.3633702 110.392915,82.3338559 110.592681,82.3570787 C110.776776,82.3904573 110.952357,82.4635559 111.108433,82.5717988 C111.209149,82.6363383 111.304497,82.709765 111.393454,82.7912904 C111.528738,82.911924 111.642167,83.0574229 111.728241,83.2207306 L111.741813,83.3113902 Z" id="Path" fill="#FFFFFF"></path>
                <path d="M120.378402,63.9627254 C120.429383,64.0965506 120.458449,64.2385342 120.464361,64.3826224 C120.484041,64.7224273 120.393058,65.0591258 120.206485,65.3369339 C119.968138,65.6414542 119.628061,65.8378716 119.256415,65.885663 C118.960702,65.951154 118.652488,65.8837194 118.405876,65.6995722 C118.250429,65.5647134 118.117403,65.4034479 118.012275,65.2224165 L117.917268,65.0458689 C117.761449,64.7022378 117.741911,64.3072781 117.862979,63.9484107 C117.877782,63.914057 117.894397,63.8806038 117.912744,63.848208 C118.099629,63.5080504 118.399444,63.2530415 118.754235,63.1324744 C118.929715,63.0674874 119.116743,63.0446644 119.301656,63.0656726 C119.470673,63.0972462 119.63211,63.1637306 119.776691,63.2613065 C119.869099,63.3205996 119.956847,63.3876164 120.039092,63.4617119 C120.164976,63.5683278 120.268241,63.701624 120.342209,63.8529796 C120.359513,63.8873993 120.371719,63.9244099 120.378402,63.9627254 L120.378402,63.9627254 Z" id="Path" fill="#FFFFFF"></path>
                <path d="M117.378895,106.968771 C117.427768,107.106573 117.456744,107.251334 117.464854,107.398211 C117.488916,107.74664 117.396031,108.092896 117.202454,108.376381 C116.961961,108.684679 116.618852,108.884392 116.243335,108.934653 C115.94268,108.996563 115.631062,108.927734 115.379224,108.743791 C115.223777,108.608932 115.090751,108.447666 114.985624,108.266635 C114.949431,108.209376 114.917761,108.147346 114.886092,108.090087 C114.725242,107.741054 114.705649,107.338099 114.831803,106.973543 C114.846606,106.939189 114.863221,106.905736 114.881568,106.87334 C115.07365,106.530112 115.377575,106.272318 115.736631,106.148063 C115.91196,106.082357 116.099492,106.061108 116.284053,106.086033 C116.456475,106.115352 116.621287,106.181958 116.768136,106.281667 C116.860259,106.34141 116.947975,106.408402 117.030536,106.482072 C117.158291,106.591131 117.264374,106.725717 117.342702,106.878112 C117.378895,106.916284 117.378895,106.944913 117.378895,106.968771 Z" id="Path" fill="#FFFFFF"></path>
                <path d="M79.5977755,79.6659204 C79.5525341,74.0784268 79.3579959,65.971551 79.0232093,60.3936005 L78.7381883,57.9839641 C69.8165779,56.8451524 60.9055238,55.6125001 52.0050261,54.2860072 L49.0688572,53.8088515 L42.0157179,63.1467891 L34.0532259,73.6823876 L31.4292228,77.1608528 C23.6205517,87.502408 15.8013242,97.8232864 7.97154032,108.123488 L7.92177475,109.898507 C7.84938846,116.397368 7.67747102,124.322925 7.62770544,130.545036 L37.4327609,134.14279 L44.8704523,124.284753 C56.8684801,110.199115 67.9978723,95.3261714 79.1227405,80.4627705" id="Path" fill="#DADDE1"></path>
                <path d="M72.9246643,63.4807981 L50.1953688,93.0310524 C45.273101,99.4297107 40.4594127,105.856998 35.1028271,111.854846 L36.0936145,111.578096 C28.2351777,110.146628 20.2591133,109.192317 12.3735317,108.085316 C11.0796267,107.903996 11.088675,110.051197 12.3735317,110.232516 C19.7478851,111.267944 27.1901006,112.141139 34.5418334,113.462861 C36.1931456,113.763469 36.5098356,113.434231 37.6092024,112.198398 C38.7085692,110.962565 39.871274,109.745818 40.943496,108.46704 C46.8655994,101.405135 52.253854,93.7611006 57.8864123,86.4415318 L74.3814384,65.0029249 C75.2003083,63.9388676 73.7661549,62.4071977 72.9427609,63.4807981 L72.9246643,63.4807981 Z" id="Path" fill="#FFFFFF"></path>
                <path d="M37.0708294,130.225341 C36.898912,124.55196 36.6727048,118.88335 36.6727048,113.209968 C36.6727048,111.830988 34.6368404,111.826217 34.6368404,113.209968 C34.6368404,118.88335 34.8630475,124.55196 35.034965,130.225341 C35.0756823,131.59955 37.1115467,131.609093 37.0708294,130.225341 Z" id="Path" fill="#FFFFFF"></path>
                <path d="M41.8618971,81.9276386 C40.0133853,81.5631874 38.1121829,82.1681202 36.7631877,83.549968 C35.6276277,84.7380858 34.6096955,86.9473168 35.9352695,88.3740125 C37.2608434,89.8007081 39.7174532,89.2996946 41.2782826,88.8511682 C43.3231953,88.2356373 45.7074188,86.9425453 46.5805784,84.7810298 C47.0827583,83.5261103 45.3319149,82.4286521 44.8206867,83.6978863 C43.9520512,85.8594018 41.0882686,86.9807177 38.9935903,87.1143213 C37.7404026,87.1954378 37.0482087,86.5846785 37.9711339,85.382246 C38.779578,84.3346967 40.0527196,83.8157355 41.3189999,84.0175807 C42.5993324,84.2179861 43.155802,82.1519018 41.8618971,81.9467248 L41.8618971,81.9276386 Z" id="Path" fill="#FFFFFF"></path>
            </g>
            <path d="M111.329291,100.117445 C111.329291,99.9470495 111.329291,100.117445 111.329291,100.087375 C111.329291,100.057306 111.372057,100.032247 111.386312,100.042271 C111.400567,100.052294 111.424326,100.042271 111.334043,100.042271 C111.355767,100.047911 111.374531,100.062304 111.386312,100.082364 C111.386312,100.082364 111.424326,100.082364 111.386312,100.082364 C111.348298,100.082364 111.386312,100.107422 111.386312,100.017212 C111.391198,100.035227 111.391198,100.054326 111.386312,100.07234 C111.334043,100.07234 111.291277,100.107422 111.338794,100.117445 C111.386312,100.127468 111.315035,100.067329 111.291277,100.042271 C111.329291,100.127468 111.338794,100.142503 111.324539,100.097399 C111.310284,100.052294 111.324539,100.057306 111.324539,100.097399 C111.324539,100.512576 111.643655,100.849144 112.037305,100.849144 C112.430955,100.849144 112.750071,100.512576 112.750071,100.097399 C112.750498,99.286228 112.140739,98.6209468 111.372057,98.5939079 C110.605752,98.5773008 109.971774,99.2190235 109.956028,100.027236 C109.940282,100.835448 110.548731,101.504096 111.315035,101.520704 C112.075319,101.521706 112.702554,100.893247 112.740567,100.092387 C112.740567,99.6772095 112.421451,99.3406416 112.027801,99.3406416 C111.634152,99.3406416 111.315035,99.6772095 111.315035,100.092387 L111.329291,100.117445 Z" id="Path" fill="#C8CFD7"></path>
            <path d="M105.156738,107.504596 C105.10922,107.810306 104.980922,108.00576 104.68156,107.960655 C104.486738,107.960655 104.348936,107.840376 104.38695,107.604829 C104.424965,107.369282 104.558014,107.339212 104.800355,107.349235 C104.987466,107.349216 105.139883,107.507736 105.142482,107.705062 C105.142482,108.120239 105.461598,108.456807 105.855248,108.456807 C106.248898,108.456807 106.568014,108.120239 106.568014,107.705062 C106.553895,106.708387 105.806267,105.895713 104.862128,105.850756 C103.974187,105.77046 103.169728,106.403569 102.989929,107.324177 C102.90383,107.791644 102.998493,108.276015 103.252847,108.669469 C103.507201,109.062923 103.900136,109.332806 104.344184,109.419041 C104.825754,109.537537 105.33231,109.444252 105.747311,109.160647 C106.162312,108.877043 106.450024,108.427539 106.544255,107.91555 C106.634487,107.516281 106.416605,107.1114 106.045319,106.988398 C105.665118,106.875205 105.269235,107.105184 105.156738,107.504596 L105.156738,107.504596 Z" id="Path" fill="#C8CFD7"></path>
            <path d="M107.489858,114.445711 C107.466099,114.606084 107.489858,114.445711 107.537376,114.445711 C107.584894,114.445711 107.622908,114.41063 107.679929,114.395595 C107.527872,114.430677 107.646667,114.395595 107.679929,114.420653 C107.713191,114.445711 107.822482,114.535921 107.812979,114.661212 C107.803475,114.786503 107.70844,114.816572 107.637163,114.876712 L107.684681,114.876712 C107.663535,114.886789 107.639302,114.886789 107.618156,114.876712 C107.57539,114.876712 107.527872,114.846642 107.49461,114.801538 C107.461348,114.756433 107.451844,114.601072 107.451844,114.666223 C107.451844,115.081401 107.77096,115.417969 108.16461,115.417969 C108.55826,115.417969 108.877376,115.081401 108.877376,114.666223 C108.862249,113.99124 108.36424,113.438376 107.72587,113.38788 C107.0875,113.337384 106.516873,113.805717 106.406454,114.47077 C106.362268,114.818928 106.457558,115.170766 106.669438,115.44178 C106.881318,115.712793 107.190644,115.878495 107.523121,115.899086 C108.153493,115.971454 108.731508,115.522944 108.853617,114.866689 C108.948252,114.475545 108.741112,114.073563 108.37844,113.944548 C108.002143,113.827242 107.606294,114.050502 107.489858,114.445711 Z" id="Path" fill="#C8CFD7"></path>
            <path d="M111.376809,108.542005 C111.376809,108.702377 111.376809,108.542005 111.424326,108.542005 C111.471844,108.542005 111.509858,108.506923 111.566879,108.4969 C111.414823,108.52697 111.533617,108.46683 111.566879,108.4969 C111.600142,108.52697 111.709433,108.612168 111.699929,108.737458 C111.690426,108.862749 111.59539,108.897831 111.524113,108.952959 L111.571631,108.952959 C111.550485,108.963036 111.526252,108.963036 111.505106,108.952959 C111.46234,108.952959 111.414823,108.922889 111.38156,108.877784 C111.348298,108.83268 111.343546,108.677319 111.338794,108.747482 C111.338794,109.162659 111.657911,109.499227 112.05156,109.499227 C112.44521,109.499227 112.764326,109.162659 112.764326,108.747482 C112.751356,108.071704 112.254082,107.516715 111.615101,107.464875 C110.97612,107.413034 110.404217,107.881281 110.293404,108.547016 C110.249252,108.89569 110.344423,109.248039 110.556166,109.519827 C110.767908,109.791615 111.07719,109.958413 111.410071,109.980344 C112.040687,110.047474 112.616518,109.598489 112.740567,108.942936 C112.822995,108.679083 112.760735,108.388794 112.57866,108.188046 C112.396585,107.987298 112.124381,107.90882 111.870799,107.983965 C111.617218,108.059111 111.423601,108.27563 111.367305,108.547016 L111.376809,108.542005 Z" id="Path" fill="#C8CFD7"></path>
            <path d="M103.973546,119.402219 C103.949787,119.567603 103.973546,119.427277 104.021064,119.402219 C104.068582,119.377161 104.111348,119.367138 104.163617,119.352103 C104.016312,119.387184 104.135106,119.352103 104.163617,119.377161 C104.192128,119.402219 104.301418,119.492429 104.296667,119.617719 C104.291915,119.74301 104.187376,119.77308 104.116099,119.83322 L104.168369,119.83322 C104.147223,119.843297 104.12299,119.843297 104.101844,119.83322 C104.056717,119.816188 104.014866,119.790724 103.978298,119.758045 C103.945035,119.717952 103.935532,119.55758 103.935532,119.622731 C103.935532,120.037909 104.254648,120.374476 104.648298,120.374476 C105.039808,120.369078 105.355945,120.035652 105.361064,119.622731 C105.35251,118.977814 104.897894,118.436537 104.291915,118.349776 C103.970344,118.295058 103.641372,118.378101 103.378136,118.580443 C103.1149,118.782785 102.939216,119.087656 102.890142,119.427277 C102.844504,119.774896 102.938624,120.126818 103.149768,120.398044 C103.360913,120.669271 103.669884,120.835142 104.002057,120.855593 C104.632895,120.925818 105.211002,120.478834 105.337305,119.823196 C105.442278,119.421858 105.218897,119.006758 104.838369,118.896044 C104.457841,118.78533 104.064264,119.020927 103.959291,119.422266 L103.973546,119.402219 Z" id="Path" fill="#C8CFD7"></path>
            <path d="M109.124468,122.945445 C109.091206,123.155934 109.171986,123.02062 109.005674,123.085771 C109.005674,123.085771 109.005674,123.140899 109.005674,123.135888 C109.005674,123.130876 109.005674,123.135888 109.034184,123.075748 L108.934397,123.175981 C108.934397,123.120853 109.04844,123.130876 109.07695,123.130876 C109.105461,123.130876 109.07695,123.090783 109.07695,123.130876 C109.07695,123.546053 109.396067,123.882621 109.789716,123.882621 C110.183366,123.882621 110.502482,123.546053 110.502482,123.130876 C110.487964,122.318527 109.875238,121.659104 109.105461,121.627385 C108.391819,121.568262 107.747277,122.076496 107.599149,122.815143 C107.524997,123.196723 107.598141,123.593737 107.802383,123.918264 C108.006624,124.242791 108.325108,124.468051 108.687305,124.544157 C109.077274,124.642244 109.488294,124.569018 109.826078,124.341278 C110.163863,124.113538 110.399424,123.750829 110.478723,123.336353 C110.568608,122.938359 110.350395,122.535055 109.979787,122.414212 C109.605805,122.321181 109.228716,122.555389 109.124468,122.945445 L109.124468,122.945445 Z" id="Path" fill="#C8CFD7"></path>
        </g>
    </g>
</svg>