<svg xmlns="http://www.w3.org/2000/svg" width="187" height="150" fill="none"><path d="M143.567 90.945l42.704 24.585L82.157 150l61.41-35.505v-23.55z" fill="gray"/><path d="M20.415 35.565L102.6 83.01v55.2L20.415 90.765v-55.2z" fill="#1D1D1D"/><path d="M102.598 83.01l20.535-35.49 20.43 11.79v55.26l-40.965 23.64v-55.2z" fill="#000"/><path d="M102.572 112.965v25.26L82.157 150v-25.23l20.415-11.805z" fill="#ED3F00"/><path d="M20.415 65.7l82.155 47.28-20.415 11.79L0 77.49 20.415 65.7z" fill="#ED5D00"/><path d="M0 77.475l82.155 47.295V150L0 102.81V77.475z" fill="#ED7B00"/><path d="M102.6 83.01l20.535-35.49L40.95 0 20.415 35.565 102.6 83.01z" fill="#414141"/></svg>
