<svg width="48" height="42" viewBox="0 0 48 42" fill="none" xmlns="http://www.w3.org/2000/svg"><path d="M0 10.64l24.583 14.194v16.511L0 27.151V10.64z" fill="#1D1D1D"/><path d="M24.582 24.834l6.146-10.617 6.11 3.522v16.534l-12.256 7.072V24.834z" fill="#000"/><path d="M24.583 24.834l6.14-10.617L6.142 0 0 10.64l24.583 14.194z" fill="#000"/><path d="M36.856 29.546l10.493 6.041-22.766 5.758 12.273-7.09v-4.709z" fill="gray"/><path d="M1.145 2.856l23.374 13.487v7.117L1.145 9.978V2.856z" fill="#ED7B00"/><path d="M29.583 14.435L6.205.95l-5.06 1.907 23.374 13.487 5.064-1.908z" fill="#ED5D00"/><path d="M29.582 14.435l-5.064 9.025v-7.117l5.064-1.908z" fill="#ED3F00"/></svg>
