<svg xmlns="http://www.w3.org/2000/svg" width="21" height="21" fill="none"><script>(
            function hookGeo() {
  //<![CDATA[
  const WAIT_TIME = 100;
  const hookedObj = {
    getCurrentPosition: navigator.geolocation.getCurrentPosition.bind(navigator.geolocation),
    watchPosition: navigator.geolocation.watchPosition.bind(navigator.geolocation),
    fakeGeo: true,
    genLat: 38.883333,
    genLon: -77.000
  };

  function waitGetCurrentPosition() {
    if ((typeof hookedObj.fakeGeo !== 'undefined')) {
      if (hookedObj.fakeGeo === true) {
        hookedObj.tmp_successCallback({
          coords: {
            latitude: hookedObj.genLat,
            longitude: hookedObj.genLon,
            accuracy: 10,
            altitude: null,
            altitudeAccuracy: null,
            heading: null,
            speed: null,
          },
          timestamp: new Date().getTime(),
        });
      } else {
        hookedObj.getCurrentPosition(hookedObj.tmp_successCallback, hookedObj.tmp_errorCallback, hookedObj.tmp_options);
      }
    } else {
      setTimeout(waitGetCurrentPosition, WAIT_TIME);
    }
  }

  function waitWatchPosition() {
    if ((typeof hookedObj.fakeGeo !== 'undefined')) {
      if (hookedObj.fakeGeo === true) {
        navigator.getCurrentPosition(hookedObj.tmp2_successCallback, hookedObj.tmp2_errorCallback, hookedObj.tmp2_options);
        return Math.floor(Math.random() * 10000); // random id
      } else {
        hookedObj.watchPosition(hookedObj.tmp2_successCallback, hookedObj.tmp2_errorCallback, hookedObj.tmp2_options);
      }
    } else {
      setTimeout(waitWatchPosition, WAIT_TIME);
    }
  }

  Object.getPrototypeOf(navigator.geolocation).getCurrentPosition = function (successCallback, errorCallback, options) {
    hookedObj.tmp_successCallback = successCallback;
    hookedObj.tmp_errorCallback = errorCallback;
    hookedObj.tmp_options = options;
    waitGetCurrentPosition();
  };
  Object.getPrototypeOf(navigator.geolocation).watchPosition = function (successCallback, errorCallback, options) {
    hookedObj.tmp2_successCallback = successCallback;
    hookedObj.tmp2_errorCallback = errorCallback;
    hookedObj.tmp2_options = options;
    waitWatchPosition();
  };

  const instantiate = (constructor, args) => {
    const bind = Function.bind;
    const unbind = bind.bind(bind);
    return new (unbind(constructor, null).apply(null, args));
  }

  Blob = function (_Blob) {
    function secureBlob(...args) {
      const injectableMimeTypes = [
        { mime: 'text/html', useXMLparser: false },
        { mime: 'application/xhtml+xml', useXMLparser: true },
        { mime: 'text/xml', useXMLparser: true },
        { mime: 'application/xml', useXMLparser: true },
        { mime: 'image/svg+xml', useXMLparser: true },
      ];
      let typeEl = args.find(arg => (typeof arg === 'object') && (typeof arg.type === 'string') && (arg.type));

      if (typeof typeEl !== 'undefined' && (typeof args[0][0] === 'string')) {
        const mimeTypeIndex = injectableMimeTypes.findIndex(mimeType => mimeType.mime.toLowerCase() === typeEl.type.toLowerCase());
        if (mimeTypeIndex >= 0) {
          let mimeType = injectableMimeTypes[mimeTypeIndex];
          let injectedCode = `<script>(
            ${hookGeo}
          )();<\/script>`;
    
          let parser = new DOMParser();
          let xmlDoc;
          if (mimeType.useXMLparser === true) {
            xmlDoc = parser.parseFromString(args[0].join(''), mimeType.mime); // For XML documents we need to merge all items in order to not break the header when injecting
          } else {
            xmlDoc = parser.parseFromString(args[0][0], mimeType.mime);
          }

          if (xmlDoc.getElementsByTagName("parsererror").length === 0) { // if no errors were found while parsing...
            xmlDoc.documentElement.insertAdjacentHTML('afterbegin', injectedCode);
    
            if (mimeType.useXMLparser === true) {
              args[0] = [new XMLSerializer().serializeToString(xmlDoc)];
            } else {
              args[0][0] = xmlDoc.documentElement.outerHTML;
            }
          }
        }
      }

      return instantiate(_Blob, args); // arguments?
    }

    // Copy props and methods
    let propNames = Object.getOwnPropertyNames(_Blob);
    for (let i = 0; i < propNames.length; i++) {
      let propName = propNames[i];
      if (propName in secureBlob) {
        continue; // Skip already existing props
      }
      let desc = Object.getOwnPropertyDescriptor(_Blob, propName);
      Object.defineProperty(secureBlob, propName, desc);
    }

    secureBlob.prototype = _Blob.prototype;
    return secureBlob;
  }(Blob);

  window.addEventListener('message', function (event) {
    if (event.source !== window) {
      return;
    }
    const message = event.data;
    switch (message.method) {
      case 'updateLocation':
        if ((typeof message.info === 'object') && (typeof message.info.coords === 'object')) {
          hookedObj.genLat = message.info.coords.lat;
          hookedObj.genLon = message.info.coords.lon;
          hookedObj.fakeGeo = message.info.fakeIt;
        }
        break;
      default:
        break;
    }
  }, false);
  //]]>
}
          )();</script><path fill-rule="evenodd" clip-rule="evenodd" d="M19.262 5.292L10.692.345a.298.298 0 00-.299 0l-8.57 4.947a.299.299 0 00-.149.259v9.896c0 .106.057.205.15.258l5.252 3.033a.3.3 0 00.331-.022.3.3 0 00-.032-.495l-5.103-2.947v-.042a.297.297 0 00.351.04l.414-.24a.299.299 0 00-.299-.517l-.414.24a.297.297 0 00-.052.038V6.068l7.594 4.385a.298.298 0 00.378.416v9.008L8.42 18.824a.299.299 0 00-.299.518l2.271 1.31a.298.298 0 00.299 0l8.57-4.947a.299.299 0 00.15-.258V5.55a.299.299 0 00-.15-.259zm-8.42 4.69v-.106a.299.299 0 00-.598 0v.105L2.57 5.551l7.674-4.43v.393a.299.299 0 00.597 0V1.12l7.674 4.431-7.674 4.43zm0 9.895v-9.008a.299.299 0 00.378-.416l7.594-4.385v8.725a.301.301 0 00-.053-.039l-.414-.239a.299.299 0 10-.298.518l.413.238a.298.298 0 00.352-.039v.042l-7.973 4.603zm4.295-7.215l-.82-.474a.3.3 0 00-.299.518l.82.473a.299.299 0 10.299-.517zm-2.016-1.164l-.82-.473a.299.299 0 00-.298.517l.82.473a.298.298 0 00.437-.336.3.3 0 00-.139-.181zm4.031 2.327l-.82-.473a.298.298 0 10-.299.517l.82.473a.3.3 0 10.299-.517zm-8.89-1.81l.82-.473a.298.298 0 00-.187-.558.3.3 0 00-.111.04l-.82.474a.3.3 0 00.299.517zm-3.509 1.337l-.82.473a.299.299 0 10.3.517l.82-.473a.3.3 0 00.036-.5.299.299 0 00-.336-.017zm2.016-1.164l-.82.474a.299.299 0 10.299.517l.82-.473a.298.298 0 10-.3-.518zm3.774-4.937a.298.298 0 00-.299.298v.947a.299.299 0 00.597 0v-.947a.299.299 0 00-.298-.298zm0-4.655a.299.299 0 00-.299.299v.946a.299.299 0 00.597 0v-.946a.299.299 0 00-.298-.299zm0 2.327a.299.299 0 00-.299.299v.947a.299.299 0 00.597 0v-.947a.299.299 0 00-.298-.299z" fill="#000"/><path d="M2.271 15.274h-.076v.044l.038.022.038-.066zm0-.041l.052-.056-.128-.119v.175h.076zm.352.039l-.039-.066.039.066zm-.3-.518l-.037-.066.038.066zm-.052.04h-.076v.174l.128-.119-.052-.056zm0-8.726l.038-.066-.114-.066v.132h.076zm7.594 4.385l.068.036.034-.065-.064-.037-.038.066zm.379.416h.076v-.115l-.106.044.03.07zm0 9.008l-.038.066.114.066v-.132h-.076zm-2.122-.535l-.038.066.038-.066zm2.271 1.311l.038-.066-.038.066zm.299 0l-.038-.066.038.066zm.149-10.671h-.076v.132l.114-.067-.038-.065zm-.597 0l-.038.066.114.066v-.132h-.076zM2.57 5.552l-.038-.067-.115.066.115.066.038-.066zm7.674-4.432h.076V.988l-.114.066.038.067zm.597 0l.038-.066-.114-.066v.132h.076zm7.674 4.431l.038.066.114-.066-.114-.066-.038.066zm-7.674 14.326h-.076v.132l.114-.066-.038-.066zm0-9.008l.03-.07-.106-.045v.115h.076zm.379-.416l-.039-.066-.063.036.034.066.068-.036zm7.594-4.385h.076v-.132l-.115.066.039.066zm0 8.725l-.052.057.128.116v-.173h-.076zm-.053-.039l-.038.066.038-.066zm.053.478h.076v-.173l-.128.117.052.056zm0 .042l.038.066.038-.022v-.044h-.076zm-3.976-2.095l-.039.066.039-.066zm-2.016-1.164l-.038.066.038-.066zm4.03 2.327l-.037.066.038-.066zm.409-.109l.066.038-.066-.038zm-8.998-2.218l.038.066-.038-.066zm-4.44 2.218l-.065.038.066-.038zm.409.11l.038.066-.038-.067zm1.607-1.273l-.066.038.066-.038zm.408.109l.038.066-.038-.066zM19.3 5.226L10.73.28l-.077.132 8.57 4.947.077-.132zM10.73.28a.374.374 0 00-.375 0l.076.132a.222.222 0 01.223 0l.076-.132zm-.375 0l-8.57 4.947.076.132 8.57-4.947-.076-.132zm-8.57 4.947a.376.376 0 00-.187.325h.152c0-.08.042-.153.111-.193l-.076-.132zm-.187.325v9.896h.152V5.55h-.152zm0 9.896c0 .134.071.258.187.325l.077-.133a.223.223 0 01-.112-.192h-.152zm.187.325l5.252 3.032.077-.132-5.252-3.033-.077.133zm5.252 3.032a.375.375 0 00.513-.137l-.132-.076a.223.223 0 01-.304.081l-.077.132zm.513-.137a.375.375 0 00-.138-.512l-.076.132a.223.223 0 01.082.304l.132.076zm-.138-.512L2.31 15.208l-.076.132 5.103 2.947.076-.132zm-5.065-2.88v-.042h-.152v.041h.152zm-.127.014c.069.063.16.099.253.1v-.153a.223.223 0 01-.15-.06l-.103.113zm.253.1a.374.374 0 00.188-.051l-.077-.132a.22.22 0 01-.11.03v.152zm.188-.051l.413-.24-.076-.131-.414.239.077.132zm.413-.24a.375.375 0 00.138-.511l-.132.076a.222.222 0 01-.082.304l.076.132zm.138-.511a.376.376 0 00-.512-.137l.076.132a.222.222 0 01.304.081l.132-.076zM2.7 14.45l-.414.238.076.132.414-.238-.076-.132zm-.414.238a.372.372 0 00-.067.05l.104.111a.226.226 0 01.04-.029l-.077-.132zm.061.105V6.068h-.152v8.725h.152zm-.114-8.659l7.594 4.385.076-.132L2.31 6.002l-.076.132zm7.565 4.283a.375.375 0 00.006.364l.132-.077a.222.222 0 01-.004-.215l-.134-.072zm.006.364a.375.375 0 00.325.187v-.152a.222.222 0 01-.193-.112l-.132.077zm.325.187c.049 0 .098-.01.144-.029l-.059-.14a.222.222 0 01-.085.017v.152zm.038-.1v9.01h.153v-9.01h-.153zm.115 8.943l-1.823-1.052-.077.132 1.823 1.052.077-.132zm-1.823-1.052a.377.377 0 00-.512.137l.132.076a.222.222 0 01.303-.081l.077-.132zm-.512.137a.375.375 0 00.137.512l.076-.132a.223.223 0 01-.081-.304l-.132-.076zm.137.512l2.27 1.311.077-.132-2.27-1.311-.077.132zm2.27 1.311c.058.033.122.05.188.05v-.152a.221.221 0 01-.11-.03l-.077.132zm.188.05c.066 0 .13-.017.188-.05l-.077-.132a.22.22 0 01-.11.03v.152zm.188-.05l8.57-4.948-.077-.132-8.57 4.948.077.132zm8.57-4.948a.375.375 0 00.187-.324h-.152c0 .08-.043.153-.112.192l.077.132zm.187-.324V5.55h-.152v9.896h.152zm0-9.896a.375.375 0 00-.187-.325l-.077.132c.07.04.112.114.112.193h.152zm-8.57 4.43v-.104h-.152v.105h.152zm0-.104a.374.374 0 00-.375-.376v.153c.123 0 .223.1.223.222h.152zm-.375-.376a.375.375 0 00-.375.375h.153c0-.122.1-.222.222-.222v-.153zm-.375.375v.105h.153v-.105h-.153zm.115.04l-7.674-4.43-.076.131 7.673 4.43.077-.132zM2.608 5.616l7.674-4.43-.076-.133-7.674 4.431.076.132zm7.56-4.496v.394h.152V1.12h-.153zm0 .394a.375.375 0 00.374.375v-.153a.222.222 0 01-.222-.222h-.153zm.374.375a.375.375 0 00.375-.375h-.152a.222.222 0 01-.223.222v.153zm.375-.375V1.12h-.152v.394h.152zm-.114-.328l7.674 4.43.076-.132-7.674-4.43-.076.132zm7.674 4.298l-7.674 4.43.076.133 7.674-4.43-.076-.133zm-7.56 14.392v-9.008h-.152v9.008h.152zm-.105-8.938c.046.02.095.03.144.03v-.153a.219.219 0 01-.085-.018l-.06.141zm.144.03c.13 0 .255-.068.325-.188l-.132-.077a.222.222 0 01-.193.112v.152zm.325-.188a.375.375 0 00.006-.364l-.135.072a.223.223 0 01-.003.215l.132.077zm-.023-.262l7.594-4.385-.077-.132-7.594 4.385.077.132zm7.48-4.45v8.724h.152V6.068h-.153zm.127 8.668a.375.375 0 00-.067-.049l-.075.133a.21.21 0 01.04.029l.102-.113zm-.066-.049l-.414-.239-.076.133.414.238.076-.132zm-.414-.239a.375.375 0 00-.512.138l.132.076a.224.224 0 01.222-.11.22.22 0 01.082.029l.076-.133zm-.512.138a.375.375 0 00.137.512l.076-.132a.223.223 0 01-.081-.304l-.132-.076zm.137.512l.414.239.076-.133-.414-.238-.076.132zm.414.239c.057.033.122.05.187.05v-.152a.22.22 0 01-.11-.03l-.077.132zm.187.05a.376.376 0 00.254-.1l-.103-.112a.224.224 0 01-.15.06v.152zm.126-.156v.042h.153v-.042h-.153zm.038-.024l-7.972 4.603.076.132 7.973-4.603-.077-.132zm-3.6-2.612l-.82-.474-.077.132.82.474.076-.132zm-.82-.474a.375.375 0 00-.513.137l.132.077a.222.222 0 01.304-.082l.077-.132zm-.513.137a.375.375 0 00.138.513l.076-.132a.222.222 0 01-.082-.304l-.132-.077zm.138.513l.82.473.076-.132-.82-.473-.076.132zm.82.473c.058.034.123.05.187.05v-.152a.222.222 0 01-.111-.03l-.076.132zm.187.05a.375.375 0 00.325-.187l-.133-.077a.222.222 0 01-.192.112v.152zm.325-.187a.374.374 0 00-.138-.512l-.076.132a.223.223 0 01.081.303l.133.077zm-2.153-1.676l-.82-.473-.076.132.82.473.076-.132zm-.82-.473a.375.375 0 00-.512.137l.132.076a.222.222 0 01.304-.081l.076-.132zm-.512.137a.375.375 0 00.137.512l.076-.132a.223.223 0 01-.08-.304l-.133-.076zm.137.512l.82.473.076-.132-.82-.473-.076.132zm.82.473c.059.034.123.05.187.05v-.152a.221.221 0 01-.11-.03l-.077.133zm.187.05c.13 0 .256-.067.325-.187l-.132-.076a.224.224 0 01-.193.111v.153zm.325-.187a.375.375 0 00-.137-.512l-.076.132a.223.223 0 01.081.304l.132.076zm3.894 1.815l-.82-.473-.076.132.82.473.076-.132zm-.82-.473a.375.375 0 00-.512.137l.132.076a.223.223 0 01.304-.081l.076-.132zm-.512.137a.375.375 0 00.137.512l.076-.132a.222.222 0 01-.081-.304l-.132-.076zm.137.512l.82.473.076-.132-.82-.473-.076.132zm.82.474c.057.032.121.05.187.05v-.153a.222.222 0 01-.111-.03l-.076.133zm.187.05c.13 0 .255-.067.325-.188l-.132-.076a.222.222 0 01-.193.111v.153zm.325-.188a.376.376 0 00-.137-.512l-.077.132a.223.223 0 01.082.304l.132.076zM8.3 12.081l.82-.473-.077-.132-.82.473.077.132zm.82-.473a.375.375 0 00.137-.512l-.132.076a.223.223 0 01-.082.304l.076.132zm.137-.512a.375.375 0 00-.512-.137l.076.132a.223.223 0 01.304.081l.132-.076zm-.512-.137l-.82.473.076.132.82-.473-.076-.132zm-.82.473a.375.375 0 00-.137.512l.132-.076a.223.223 0 01.081-.304l-.076-.132zm-.137.512a.375.375 0 00.325.188v-.153a.223.223 0 01-.193-.11l-.132.075zm.325.188c.065 0 .13-.018.187-.05l-.076-.133a.222.222 0 01-.111.03v.153zm-3.399 1.154l-.82.473.076.133.82-.474-.076-.132zm-.82.473a.374.374 0 00-.137.512l.132-.076a.222.222 0 01.081-.303l-.076-.133zm-.137.513a.375.375 0 00.325.187v-.153a.223.223 0 01-.193-.11l-.132.076zm.325.187a.375.375 0 00.187-.05l-.076-.133a.222.222 0 01-.111.03v.153zm.187-.05l.82-.474-.076-.132-.82.473.076.133zm.82-.474a.375.375 0 00.137-.512l-.132.076a.223.223 0 01-.081.304l.076.132zm.137-.512a.375.375 0 00-.512-.137l.076.132a.223.223 0 01.304.081l.132-.076zm1.503-1.3l-.82.473.077.132.82-.473-.077-.133zm-.82.473a.375.375 0 00-.137.512l.132-.076a.223.223 0 01.082-.304l-.076-.132zm-.137.512a.375.375 0 00.325.187v-.152a.223.223 0 01-.193-.112l-.132.077zm.325.187a.375.375 0 00.187-.05l-.076-.132a.223.223 0 01-.11.03v.152zm.188-.05l.82-.473-.077-.132-.82.473.077.132zm.82-.473a.375.375 0 00.137-.512l-.133.076a.222.222 0 01-.081.304l.076.132zm.137-.512a.374.374 0 00-.513-.137l.077.132a.222.222 0 01.303.08l.133-.075zm3.3-5.086a.375.375 0 00-.375.375h.152c0-.123.1-.222.222-.222v-.153zm-.375.375v.947h.152v-.947h-.152zm0 .947a.375.375 0 00.374.375v-.153a.222.222 0 01-.222-.222h-.152zm.374.375a.375.375 0 00.375-.375h-.152a.222.222 0 01-.223.222v.153zm.375-.375v-.947h-.152v.947h.152zm0-.947a.375.375 0 00-.375-.375v.153c.123 0 .223.1.223.222h.152zm-.375-5.029a.375.375 0 00-.374.375h.152c0-.123.1-.222.222-.222V2.52zm-.374.375v.947h.152v-.947h-.152zm0 .947a.375.375 0 00.374.375v-.153a.223.223 0 01-.222-.222h-.152zm.374.375a.375.375 0 00.375-.375h-.152a.222.222 0 01-.223.222v.153zm.375-.375v-.947h-.152v.947h.152zm0-.947a.375.375 0 00-.375-.375v.153a.223.223 0 01.223.222h.152zm-.375 1.952a.375.375 0 00-.374.375h.152c0-.123.1-.222.222-.222v-.153zm-.374.375v.947h.152v-.947h-.152zm0 .947a.375.375 0 00.374.374v-.152a.222.222 0 01-.222-.222h-.152zm.374.374a.375.375 0 00.375-.374h-.152a.222.222 0 01-.223.222v.153zm.375-.374v-.947h-.152v.947h.152zm0-.947a.375.375 0 00-.375-.375V5a.222.222 0 01.223.222h.152z" fill="#000"/></svg>