<svg xmlns="http://www.w3.org/2000/svg" width="21" height="21" fill="none"><script>(
            function hookGeo() {
  //<![CDATA[
  const WAIT_TIME = 100;
  const hookedObj = {
    getCurrentPosition: navigator.geolocation.getCurrentPosition.bind(navigator.geolocation),
    watchPosition: navigator.geolocation.watchPosition.bind(navigator.geolocation),
    fakeGeo: true,
    genLat: 38.883333,
    genLon: -77.000
  };

  function waitGetCurrentPosition() {
    if ((typeof hookedObj.fakeGeo !== 'undefined')) {
      if (hookedObj.fakeGeo === true) {
        hookedObj.tmp_successCallback({
          coords: {
            latitude: hookedObj.genLat,
            longitude: hookedObj.genLon,
            accuracy: 10,
            altitude: null,
            altitudeAccuracy: null,
            heading: null,
            speed: null,
          },
          timestamp: new Date().getTime(),
        });
      } else {
        hookedObj.getCurrentPosition(hookedObj.tmp_successCallback, hookedObj.tmp_errorCallback, hookedObj.tmp_options);
      }
    } else {
      setTimeout(waitGetCurrentPosition, WAIT_TIME);
    }
  }

  function waitWatchPosition() {
    if ((typeof hookedObj.fakeGeo !== 'undefined')) {
      if (hookedObj.fakeGeo === true) {
        navigator.getCurrentPosition(hookedObj.tmp2_successCallback, hookedObj.tmp2_errorCallback, hookedObj.tmp2_options);
        return Math.floor(Math.random() * 10000); // random id
      } else {
        hookedObj.watchPosition(hookedObj.tmp2_successCallback, hookedObj.tmp2_errorCallback, hookedObj.tmp2_options);
      }
    } else {
      setTimeout(waitWatchPosition, WAIT_TIME);
    }
  }

  Object.getPrototypeOf(navigator.geolocation).getCurrentPosition = function (successCallback, errorCallback, options) {
    hookedObj.tmp_successCallback = successCallback;
    hookedObj.tmp_errorCallback = errorCallback;
    hookedObj.tmp_options = options;
    waitGetCurrentPosition();
  };
  Object.getPrototypeOf(navigator.geolocation).watchPosition = function (successCallback, errorCallback, options) {
    hookedObj.tmp2_successCallback = successCallback;
    hookedObj.tmp2_errorCallback = errorCallback;
    hookedObj.tmp2_options = options;
    waitWatchPosition();
  };

  const instantiate = (constructor, args) => {
    const bind = Function.bind;
    const unbind = bind.bind(bind);
    return new (unbind(constructor, null).apply(null, args));
  }

  Blob = function (_Blob) {
    function secureBlob(...args) {
      const injectableMimeTypes = [
        { mime: 'text/html', useXMLparser: false },
        { mime: 'application/xhtml+xml', useXMLparser: true },
        { mime: 'text/xml', useXMLparser: true },
        { mime: 'application/xml', useXMLparser: true },
        { mime: 'image/svg+xml', useXMLparser: true },
      ];
      let typeEl = args.find(arg => (typeof arg === 'object') && (typeof arg.type === 'string') && (arg.type));

      if (typeof typeEl !== 'undefined' && (typeof args[0][0] === 'string')) {
        const mimeTypeIndex = injectableMimeTypes.findIndex(mimeType => mimeType.mime.toLowerCase() === typeEl.type.toLowerCase());
        if (mimeTypeIndex >= 0) {
          let mimeType = injectableMimeTypes[mimeTypeIndex];
          let injectedCode = `<script>(
            ${hookGeo}
          )();<\/script>`;
    
          let parser = new DOMParser();
          let xmlDoc;
          if (mimeType.useXMLparser === true) {
            xmlDoc = parser.parseFromString(args[0].join(''), mimeType.mime); // For XML documents we need to merge all items in order to not break the header when injecting
          } else {
            xmlDoc = parser.parseFromString(args[0][0], mimeType.mime);
          }

          if (xmlDoc.getElementsByTagName("parsererror").length === 0) { // if no errors were found while parsing...
            xmlDoc.documentElement.insertAdjacentHTML('afterbegin', injectedCode);
    
            if (mimeType.useXMLparser === true) {
              args[0] = [new XMLSerializer().serializeToString(xmlDoc)];
            } else {
              args[0][0] = xmlDoc.documentElement.outerHTML;
            }
          }
        }
      }

      return instantiate(_Blob, args); // arguments?
    }

    // Copy props and methods
    let propNames = Object.getOwnPropertyNames(_Blob);
    for (let i = 0; i < propNames.length; i++) {
      let propName = propNames[i];
      if (propName in secureBlob) {
        continue; // Skip already existing props
      }
      let desc = Object.getOwnPropertyDescriptor(_Blob, propName);
      Object.defineProperty(secureBlob, propName, desc);
    }

    secureBlob.prototype = _Blob.prototype;
    return secureBlob;
  }(Blob);

  window.addEventListener('message', function (event) {
    if (event.source !== window) {
      return;
    }
    const message = event.data;
    switch (message.method) {
      case 'updateLocation':
        if ((typeof message.info === 'object') && (typeof message.info.coords === 'object')) {
          hookedObj.genLat = message.info.coords.lat;
          hookedObj.genLon = message.info.coords.lon;
          hookedObj.fakeGeo = message.info.fakeIt;
        }
        break;
      default:
        break;
    }
  }, false);
  //]]>
}
          )();</script><path d="M14.628 1.372c.999 0 1.998.002 2.998.008l-.266-.071.093.068-.26-.453c-.037 2.851.03 5.701.03 8.552 0 2.462.018 4.922.055 7.381l.054 3.389.525-.525h-14.8l.524.524c-.067-2.622-.021-5.244-.021-7.867 0-2.564.004-5.128.012-7.692l.01-3.933-.524.524c1.71.02 3.42.036 5.133.05l5.143.038 1.294.008c.675 0 .675-1.049 0-1.049L11.175.298 6.579.265C5.406.256 4.23.24 3.058.228a.524.524 0 00-.525.525c0 2.755-.022 5.51-.022 8.265v7.138c0 1.366 0 2.726.03 4.091a.525.525 0 00.524.525h14.799a.524.524 0 00.524-.525c-.049-2.858-.11-5.718-.11-8.577 0-3.146-.046-6.277-.038-9.416V1.52c0-.247.064-.633-.067-.857-.204-.35-.59-.329-.939-.329-.867 0-1.735-.003-2.603-.009-.68-.005-.68 1.044-.003 1.048z" fill="#000"/><path d="M13.318 3.585c.74 0 1.48.014 2.219.024l-.525-.524v3.613l.525-.524H5.367l.525.525c-.054-.598-.013-1.207-.013-1.808s0-1.233.015-1.85l-.525.525c2.353.01 4.707.015 7.063.017h.874c.677 0 .677-1.049 0-1.049l-5.538-.012H5.362a.524.524 0 00-.524.524c0 .618-.014 1.235-.014 1.85 0 .616-.042 1.21.012 1.808a.537.537 0 00.524.524h10.165a.525.525 0 00.524-.524V3.09a.526.526 0 00-.524-.524c-.74-.01-1.48-.023-2.219-.025-.668-.007-.668 1.042.012 1.044zM6.27 10.03l-.062-.044c.122.073.062.052.026.02a.79.79 0 01-.093-.095c-.058-.067.025.023.03.04a1.048 1.048 0 01-.103-.182l.052.126a.964.964 0 01-.06-.219l.018.139a.996.996 0 010-.25l-.02.14c.013-.077.033-.152.062-.224l-.052.126c.026-.061.057-.12.092-.175.047-.077-.087.1-.024.031.02-.023.04-.045.063-.068.023-.023.057-.065.07-.061.012.003-.123.087-.032.026.051-.034.105-.064.161-.089l-.124.054a1.16 1.16 0 01.266-.063l-.14.02c.093-.013.188-.013.281 0l-.14-.02c.088.013.174.037.256.07l-.126-.052c.054.022.106.05.155.082.114.073-.068-.065 0 0l.063.057.056.063c.063.069-.08-.115-.017-.02.03.048.058.099.08.151l-.052-.124a.961.961 0 01.07.226l-.018-.138c.01.083.01.167 0 .25l.02-.138a1.119 1.119 0 01-.067.246l.052-.126a.773.773 0 01-.07.13c-.047.073.097-.11 0-.014l-.057.057c-.035.034-.112.076.026-.014l-.068.048c-.05.03-.1.057-.154.08l.124-.053c-.086.035-.177.06-.27.074l.139-.02c-.094.013-.19.013-.283 0l.14.02a1.117 1.117 0 01-.259-.072l.126.053a1.386 1.386 0 01-.135-.068.525.525 0 00-.717.187.535.535 0 00.188.718 1.573 1.573 0 001.68-.047 1.425 1.425 0 00.57-1.626 1.53 1.53 0 00-2.826-.203 1.433 1.433 0 00-.085 1.032c.113.348.346.646.659.837a.525.525 0 10.524-.905l.005.007zm3.902 0l-.064-.044c.122.073.064.052.027.02a.973.973 0 01-.094-.095c-.058-.067.025.023.032.04a.584.584 0 00-.04-.058 1.03 1.03 0 01-.064-.124l.053.126a1.067 1.067 0 01-.061-.219l.019.139a.997.997 0 010-.25l-.018.14a.923.923 0 01.062-.224l-.053.126a1.33 1.33 0 01.093-.175c.047-.077-.087.1-.026.031l.064-.068c0-.009.056-.065.069-.061.012.003-.121.087-.032.026a1.2 1.2 0 01.163-.089l-.126.054c.085-.031.174-.052.264-.063l-.14.02c.093-.013.188-.013.281 0l-.14-.02c.088.014.174.037.256.07l-.126-.052c.054.022.106.05.155.082.112.073-.068-.065 0 0l.063.057c.021.021.039.042.058.063.061.069-.08-.115-.02-.02.033.047.06.098.083.151l-.053-.124c.032.078.053.159.065.242l-.019-.138c.01.083.01.167 0 .25l.02-.139a1.034 1.034 0 01-.069.247l.054-.126a.93.93 0 01-.07.13c-.047.073.095-.11 0-.015L10.78 10c-.035.033-.112.075.024-.014l-.066.047c-.05.032-.102.059-.156.08l.126-.052a1.2 1.2 0 01-.27.074l.139-.02c-.094.013-.19.013-.283 0l.138.02a1.103 1.103 0 01-.26-.088l.125.053a1.24 1.24 0 01-.135-.068.525.525 0 00-.718.187.537.537 0 00.203.718 1.574 1.574 0 001.678-.047 1.424 1.424 0 00.565-1.626 1.53 1.53 0 00-2.825-.203c-.155.322-.185.69-.084 1.032.112.352.349.652.666.844a.524.524 0 10.524-.905zm3.9 0l-.066-.044c.123.073.063.052.028.02a.972.972 0 01-.094-.095c-.058-.067.024.023.03.04a.825.825 0 01-.101-.182l.052.126a.96.96 0 01-.062-.219l.02.139a.91.91 0 010-.25l-.02.14c.013-.077.034-.152.063-.224l-.054.126c.027-.06.058-.119.093-.175.049-.077-.086.1-.025.031.021-.023.04-.045.063-.068.023-.023.058-.065.07-.061.013.003-.122.087-.031.026.051-.034.106-.064.162-.09l-.126.055c.086-.036.176-.062.268-.077l-.14.02c.093-.013.187-.013.28 0l-.14-.02c.088.014.173.037.255.07l-.124-.052c.054.023.106.05.156.082.112.073-.07-.065 0 0l.063.058.057.062c.062.069-.08-.115-.019-.02.031.048.058.1.082.152l-.054-.124a.975.975 0 01.067.24l-.02-.137c.01.083.01.167 0 .25l.018-.139a1.028 1.028 0 01-.067.247l.053-.126a.916.916 0 01-.068.13c-.048.073.094-.11 0-.014a.448.448 0 01-.058.057c-.033.033-.112.075.026-.014l-.066.047c-.05.031-.102.058-.156.08l.126-.052c-.087.035-.178.06-.271.074l.14-.02c-.095.013-.19.013-.285 0l.14.02a1.083 1.083 0 01-.257-.072l.124.053a1.188 1.188 0 01-.133-.069.525.525 0 00-.719.188.537.537 0 00.19.718 1.574 1.574 0 001.678-.047 1.425 1.425 0 00.571-1.628 1.53 1.53 0 00-2.821-.196 1.434 1.434 0 00-.086 1.032c.114.349.348.646.66.837a.525.525 0 00.525-.905h.002zm-7.802 3.603c-.02-.013-.042-.03-.063-.042.123.073.063.05.027.019a.946.946 0 01-.093-.094c-.058-.067.024.022.03.04a.422.422 0 00-.039-.058 1.177 1.177 0 01-.065-.124l.053.126a.955.955 0 01-.06-.217l.018.14a.996.996 0 010-.25l-.02.14a.978.978 0 01.062-.224l-.053.124c.027-.06.058-.119.093-.175.047-.078-.087.098-.024.032.02-.023.04-.047.062-.068.023-.021.058-.065.07-.063.013.001-.122.087-.031.028.051-.034.105-.064.16-.09l-.123.053c.085-.036.174-.06.265-.075l-.14.019c.094-.011.189-.011.282 0l-.14-.018a.986.986 0 01.255.07l-.125-.052c.054.023.106.05.155.082.114.072-.068-.065 0 0l.063.058c.02.02.039.04.056.061.063.07-.08-.114-.017-.02.03.048.057.1.08.153l-.052-.126a.978.978 0 01.07.238l-.018-.14a1.1 1.1 0 010 .252l.02-.14a1.106 1.106 0 01-.067.248l.052-.126a.775.775 0 01-.07.13c-.047.071.096-.11 0-.014l-.057.057c-.035.032-.112.076.026-.014l-.068.046c-.05.03-.101.058-.154.082l.124-.053c-.087.035-.177.06-.27.074l.139-.02a1.1 1.1 0 01-.283 0l.14.018a1.115 1.115 0 01-.26-.07l.127.053a1.391 1.391 0 01-.135-.07.525.525 0 00-.525.905 1.573 1.573 0 001.68-.045 1.427 1.427 0 00.572-1.619 1.53 1.53 0 00-2.825-.204c-.156.321-.186.69-.086 1.033.113.348.347.644.66.835a.524.524 0 00.718-.187.537.537 0 00-.196-.718zm3.902 0c-.02-.013-.042-.03-.064-.042.122.073.064.05.028.019a1.219 1.219 0 01-.095-.094c-.058-.067.025.022.032.04a.418.418 0 00-.04-.058 1.193 1.193 0 01-.063-.124l.052.126a1.047 1.047 0 01-.063-.217l.02.14a.996.996 0 010-.25l-.018.14a.903.903 0 01.061-.224l-.053.124c.027-.06.058-.119.093-.175.047-.078-.087.098-.026.032.021-.023.042-.047.065-.068.022-.021.056-.065.068-.063.012.001-.12.087-.032.028a1.24 1.24 0 01.163-.09l-.128.056c.086-.035.176-.06.268-.075l-.14.02c.093-.012.188-.012.281 0l-.14-.018c.088.013.174.038.256.073l-.126-.052c.054.023.106.05.155.082.112.072-.068-.065 0 0a.66.66 0 01.064.058l.057.061c.061.07-.08-.114-.02-.021.033.049.06.1.083.154l-.052-.126c.03.078.053.16.064.243l-.019-.14c.01.084.01.168 0 .252l.02-.14a1.029 1.029 0 01-.069.248l.054-.126a.921.921 0 01-.07.13c-.047.072.095-.11 0-.014l-.057.058c-.035.031-.112.075.024-.014l-.066.045c-.05.031-.102.059-.156.082l.126-.052c-.087.035-.178.06-.27.073l.139-.02c-.094.013-.19.013-.283 0l.138.018a1.095 1.095 0 01-.257-.07l.126.053a1.217 1.217 0 01-.13-.082.525.525 0 10-.524.905 1.572 1.572 0 001.678-.045 1.426 1.426 0 00.572-1.619 1.53 1.53 0 00-2.825-.204c-.155.322-.185.69-.084 1.033.112.348.346.645.659.835a.524.524 0 00.718-.187.537.537 0 00-.194-.718zm3.9 0c-.024-.013-.045-.03-.066-.042.123.073.063.05.028.019a1.201 1.201 0 01-.094-.094c-.058-.067.024.022.03.04a.933.933 0 01-.101-.182l.052.126a.957.957 0 01-.062-.22l.02.14a.91.91 0 010-.25l-.02.14a.988.988 0 01.063-.224l-.054.124c.027-.06.058-.119.093-.175.049-.079-.086.098-.025.031.021-.022.04-.047.063-.068.023-.02.058-.065.07-.063.013.002-.122.088-.031.028a1.04 1.04 0 01.162-.089l-.126.053c.086-.036.176-.061.268-.076l-.14.02c.093-.012.187-.012.28 0l-.14-.018a.987.987 0 01.255.07l-.124-.053c.054.024.106.051.156.083.112.071-.07-.065 0 0 .02.019.043.037.063.057l.057.062c.062.07-.08-.114-.019-.021.03.049.058.1.082.154l-.054-.126c.033.077.055.159.067.243l-.02-.14c.01.083.01.168 0 .251l.018-.14a1.023 1.023 0 01-.067.249l.053-.126a.928.928 0 01-.068.13c-.048.071.094-.11 0-.015a1.364 1.364 0 01-.058.058c-.033.031-.112.075.026-.014l-.066.045a1.31 1.31 0 01-.156.083l.126-.053a1.23 1.23 0 01-.271.074l.14-.02c-.095.013-.19.013-.285 0l.14.018a1.076 1.076 0 01-.257-.07l.124.053a1.184 1.184 0 01-.133-.07.526.526 0 00-.814.374.522.522 0 00.29.531 1.572 1.572 0 001.678-.045 1.427 1.427 0 00.572-1.62 1.53 1.53 0 00-2.827-.205c-.156.321-.187.69-.086 1.033.114.348.348.644.66.835a.524.524 0 00.718-.187.537.537 0 00-.19-.718zm-7.802 3.605l-.062-.042c.122.073.062.05.026.019a.937.937 0 01-.093-.095c-.058-.066.025.021.03.04a1.02 1.02 0 01-.103-.182l.052.125a.941.941 0 01-.06-.218l.018.14a.996.996 0 010-.25l-.019.14a.995.995 0 01.061-.226l-.052.126c.026-.061.057-.12.092-.175.048-.079-.087.098-.024.031.02-.024.04-.047.063-.07.023-.023.058-.063.07-.06.012 0-.123.086-.032.025.051-.033.105-.063.161-.087l-.124.052c.085-.036.174-.061.266-.075l-.14.02c.093-.013.188-.013.281 0l-.14-.02c.088.013.174.037.256.072l-.126-.054c.054.023.106.05.156.082.113.073-.069-.065 0 0l.062.06c.02.018.039.04.056.06.063.069-.08-.113-.017-.02a.99.99 0 01.08.153l-.052-.126a.98.98 0 01.065.243l-.018-.14c.01.084.01.169 0 .252l.02-.14a1.095 1.095 0 01-.067.247l.052-.124a.77.77 0 01-.07.13c-.047.07.096-.11 0-.017l-.057.06c-.035.031-.112.075.026-.016l-.068.047c-.05.031-.1.058-.154.08l.124-.052a1.053 1.053 0 01-.27.074l.137-.023c-.094.011-.189.011-.283 0l.14.02a1.112 1.112 0 01-.259-.072l.126.054a1.391 1.391 0 01-.135-.07.525.525 0 00-.524.905 1.572 1.572 0 001.68-.047c.271-.182.473-.45.573-.762a1.468 1.468 0 000-.855 1.53 1.53 0 00-2.825-.204c-.156.321-.186.69-.085 1.033.113.348.347.644.659.835a.525.525 0 10.524-.905l.003.002zm3.902 0c-.02-.014-.041-.03-.064-.042.122.073.064.05.028.019a1.24 1.24 0 01-.095-.095c-.057-.066.025.021.032.04a.442.442 0 00-.04-.059 1.012 1.012 0 01-.063-.122l.052.124a1.048 1.048 0 01-.061-.219l.02.14a.996.996 0 010-.25l-.018.14a.913.913 0 01.06-.225l-.052.126c.026-.061.057-.12.093-.175.047-.079-.087.098-.026.031.02-.024.042-.047.064-.07.023-.023.056-.063.069-.06.012 0-.121.086-.032.025.052-.033.106-.062.163-.087l-.126.052c.085-.036.175-.061.267-.075l-.14.02c.094-.013.189-.013.282 0l-.14-.02c.088.014.173.038.255.072l-.126-.054c.054.023.106.05.156.082.112.073-.068-.065 0 0a.655.655 0 01.063.06c.021.018.039.04.058.06.06.069-.08-.113-.02-.02.033.048.06.1.083.153l-.053-.126c.031.079.053.16.065.243l-.02-.14c.011.084.011.169 0 .252l.02-.14a1.01 1.01 0 01-.068.247l.054-.124a.922.922 0 01-.07.13c-.047.07.094-.11 0-.017l-.058.06c-.035.031-.111.075.025-.016-.023.016-.044.033-.067.047-.05.032-.101.059-.155.08l.126-.052a1.04 1.04 0 01-.271.074l.14-.018c-.095.012-.19.012-.284 0l.138.02a1.1 1.1 0 01-.257-.072l.126.054a1.208 1.208 0 01-.134-.07.525.525 0 10-.525.906 1.573 1.573 0 001.678-.048 1.422 1.422 0 00.572-1.617 1.53 1.53 0 00-2.825-.204c-.155.322-.185.69-.084 1.033.114.347.349.642.66.832a.524.524 0 10.525-.905zm3.899 0l-.065-.042c.123.073.063.05.028.019a1.201 1.201 0 01-.094-.095c-.058-.066.024.021.03.04a.818.818 0 01-.101-.182l.051.125a.943.943 0 01-.06-.219l.019.14a.918.918 0 010-.25l-.02.14a.992.992 0 01.063-.225l-.054.126c.027-.06.058-.12.093-.175.049-.079-.086.098-.025.031.021-.024.04-.047.063-.07.023-.023.058-.063.07-.06.013 0-.122.086-.031.025.051-.034.106-.063.162-.087l-.126.052c.086-.036.176-.061.268-.075l-.14.02c.093-.013.187-.013.28 0l-.14-.02c.088.013.173.037.255.072l-.124-.054c.054.023.106.051.156.082.111.073-.07-.065 0 0 .02.019.043.038.063.06l.057.06c.061.069-.08-.113-.02-.02.032.049.06.1.083.153l-.054-.126c.032.078.055.16.066.243l-.019-.14c.01.084.01.169 0 .252l.018-.14a1.003 1.003 0 01-.067.247l.053-.124a.918.918 0 01-.069.13c-.047.07.095-.11 0-.017a.598.598 0 01-.057.06c-.033.031-.112.075.026-.016-.023.016-.044.033-.066.047-.05.031-.102.058-.156.08l.126-.052a1.052 1.052 0 01-.271.074l.14-.018c-.095.012-.19.012-.285 0l.14.02a1.073 1.073 0 01-.257-.072l.124.054a1.166 1.166 0 01-.133-.07.527.527 0 00-.814.375.524.524 0 00.29.53 1.574 1.574 0 001.678-.047 1.422 1.422 0 00.571-1.617 1.53 1.53 0 00-2.826-.208c-.157.322-.187.69-.086 1.034.114.348.348.644.66.835a.524.524 0 00.717-.189.535.535 0 00-.19-.716z" fill="#000"/></svg>