<svg xmlns="http://www.w3.org/2000/svg" width="89" height="60" viewBox="0 0 89 60"><g><g><path fill="#599dad" d="M82.78 44.572s-2.384 1.777-2.55 4.953l.433.039s.762-3.284 2.138-4.568c1.377-1.284-.02-.424-.02-.424z"/></g><g><path fill="#6bb7bf" d="M75.14 37.28s4.483-2.53 2.391-5.964c0 0-1.673-2.109-3.466-2.65 0 0 .956 5.12 0 5.24-.956.12-.657-5.783-.657-5.783s-4.722-2.289-6.574-2.108c0 0 2.928 5 1.972 4.88-.956-.121-4.243-5.181-4.243-5.181s-4.84-.904-5.618 1.988c-.777 2.89.478 4.336 1.196 4.517.716.18 5.318.12 5.199.723-.12.602-3.228 1.566-4.96 1.024 0 0 1.912 4.759 4.422 4.518 2.51-.241 3.287-1.807 4.84-1.928 1.555-.12 2.69.302 1.913.723-.777.422-3.407.138-4.662 1.213-1.254 1.076-2.27 1.739.06 2.22 2.33.482 6.514.182 7.35-1.626l.838-1.806z"/></g><g><path fill="#6bb7bf" d="M61.16 28.6s12.55 4.096 13.984 8.674c0 0-.06 2.048 1.196 4.398v.903s-1.315-3.073-2.033-3.494c0 0 2.81-3.976-13.147-10.481z"/></g><g><path fill="#6bb7bf" d="M76.34 41.682s1.935 2.963.832 6.569l-.498-.135s.483-3.972-.53-5.97c-1.012-1.997.196-.464.196-.464z"/></g><g><path fill="#6bb7bf" d="M80.695 39.581s-2.551 3.905-1.097 8.659l.657-.178s-.638-5.236.697-7.869-.257-.612-.257-.612z"/></g><g><path fill="#ffebdc" d="M84.921 58.466c-.47.06-.95.09-1.438.09-6.391 0-11.573-5.224-11.573-11.666h2.875c0 5.952 4.423 10.862 10.136 11.576z"/></g><g><path fill="#ffc300" d="M9.418 33.427s4.91 2.183 6.453 7.722l-.749.242S12.485 35.9 9.55 34.184c-2.935-1.716-.13-.757-.13-.757z"/></g><g><path fill="#ffc300" d="M32.183 28.611s4.405 7.2 1.521 15.716l-1.177-.357s1.431-9.433-.841-14.266c-2.273-4.835.497-1.093.497-1.093z"/></g><g><path fill="#a1b2c0" d="M88.494 59.149H26.51L13.54 5.6h61.985z"/></g><g><path fill="#cad1d9" d="M.55 59.149h61.985L75.504 5.6H13.518z"/></g><g><path fill="#fff" d="M4.8 56.108h54.959L71.257 8.63H16.298z"/></g><g><path fill="#cad1d9" d="M61.57 21.373h5.107l1.069-4.413h-5.107z"/></g><g><path fill="#cad1d9" d="M53.84 21.373h5.107l1.069-4.413h-5.107z"/></g><g><path fill="#cad1d9" d="M46.02 21.373h5.108l1.068-4.413h-5.107z"/></g><g><path fill="#cad1d9" d="M38.21 21.373h5.107l1.068-4.413h-5.107z"/></g><g><path fill="#cad1d9" d="M30.39 21.373h5.107l1.069-4.413h-5.107z"/></g><g><path fill="#cad1d9" d="M22.57 21.373h5.107l1.069-4.413h-5.107z"/></g><g><path fill="#cad1d9" d="M14.76 21.373h5.108l1.068-4.413h-5.107z"/></g><g><path fill="#cad1d9" d="M59.44 29.172h5.107l1.068-4.412h-5.107z"/></g><g><path fill="#cad1d9" d="M51.71 29.172h5.107l1.068-4.412h-5.107z"/></g><g><path fill="#cad1d9" d="M43.89 29.172h5.107l1.069-4.412h-5.107z"/></g><g><path fill="#cad1d9" d="M36.08 29.172h5.107l1.069-4.412h-5.107z"/></g><g><path fill="#cad1d9" d="M28.26 29.172h5.108l1.068-4.412h-5.107z"/></g><g><path fill="#cad1d9" d="M20.44 29.172h5.107l1.069-4.412h-5.108z"/></g><g><path fill="#cad1d9" d="M12.63 29.172h5.107l1.069-4.412h-5.107z"/></g><g><path fill="#cad1d9" d="M57.5 36.892h5.108l1.068-4.412h-5.107z"/></g><g><path fill="#cad1d9" d="M49.77 36.892h5.108l1.068-4.412h-5.107z"/></g><g><path fill="#ed7b00" d="M41.96 36.892h5.107l1.069-4.412h-5.108z"/></g><g><path fill="#cad1d9" d="M34.14 36.892h5.107l1.069-4.412h-5.107z"/></g><g><path fill="#cad1d9" d="M26.32 36.892h5.107l1.069-4.412h-5.107z"/></g><g><path fill="#cad1d9" d="M18.51 36.892h5.107l1.068-4.412h-5.107z"/></g><g><path fill="#cad1d9" d="M10.69 36.892h5.107l1.069-4.412h-5.108z"/></g><g><path fill="#cad1d9" d="M55.57 44.402h5.107l1.069-4.412h-5.107z"/></g><g><path fill="#cad1d9" d="M47.84 44.402h5.107l1.069-4.412h-5.107z"/></g><g><path fill="#cad1d9" d="M40.02 44.402h5.107l1.068-4.412h-5.107z"/></g><g><path fill="#cad1d9" d="M32.21 44.402h5.107l1.069-4.412h-5.107z"/></g><g><path fill="#cad1d9" d="M24.39 44.402h5.107l1.069-4.412h-5.107z"/></g><g><path fill="#cad1d9" d="M16.57 44.402h5.108l1.068-4.412h-5.107z"/></g><g><path fill="#cad1d9" d="M8.75 44.402h5.107l1.069-4.412H9.818z"/></g><g><path fill="#cad1d9" d="M53.73 51.812h5.107l1.069-4.412h-5.107z"/></g><g><path fill="#cad1d9" d="M46 51.812h5.107l1.069-4.412h-5.107z"/></g><g><path fill="#cad1d9" d="M38.18 51.812h5.107l1.069-4.412h-5.107z"/></g><g><path fill="#8697a5" d="M88.49 59.156L75.326 56.61 62.53 59.156z"/></g><g><path fill="#8697a5" d="M64.547 0c3.108 0 5.645 2.505 5.732 5.617h-2.295C67.9 3.78 66.39 2.313 64.547 2.313c-1.898 0-3.442 1.556-3.442 3.47 0 1.912 1.544 3.469 3.442 3.469.633 0 1.147.517 1.147 1.156 0 .639-.514 1.157-1.147 1.157-3.164 0-5.737-2.594-5.737-5.783C58.81 2.594 61.383 0 64.547 0z"/></g><g><path fill="#8697a5" d="M50.006 0c3.109 0 5.645 2.505 5.733 5.617h-2.295c-.086-1.837-1.595-3.304-3.438-3.304-1.898 0-3.441 1.556-3.441 3.47 0 1.912 1.543 3.469 3.441 3.469.634 0 1.148.517 1.148 1.156 0 .639-.514 1.157-1.148 1.157-3.163 0-5.736-2.594-5.736-5.783C44.27 2.594 46.843 0 50.006 0z"/></g><g><path fill="#8697a5" d="M35.477 0c3.108 0 5.645 2.505 5.732 5.617h-2.295c-.085-1.837-1.594-3.304-3.437-3.304-1.899 0-3.442 1.556-3.442 3.47 0 1.912 1.543 3.469 3.442 3.469.633 0 1.147.517 1.147 1.156 0 .639-.514 1.157-1.147 1.157-3.164 0-5.737-2.594-5.737-5.783C29.74 2.594 32.313 0 35.477 0z"/></g><g><path fill="#8697a5" d="M20.946 0c3.109 0 5.645 2.505 5.733 5.617h-2.295c-.086-1.837-1.595-3.304-3.438-3.304-1.898 0-3.441 1.556-3.441 3.47 0 1.912 1.543 3.469 3.441 3.469.634 0 1.148.517 1.148 1.156 0 .639-.514 1.157-1.148 1.157-3.163 0-5.736-2.594-5.736-5.783C15.21 2.594 17.783 0 20.946 0z"/></g><g><path fill="#cad1d9" d="M75.503 5.6l-.173 51.002 13.165 2.547z"/></g></g></svg>