<svg xmlns="http://www.w3.org/2000/svg" width="191" height="135" viewBox="0 0 191 135"><g><g><g/><g><g><g><g><path fill="#eef5ff" d="M90.554 84.627c-1.454.336-2.917.591-4.357 1.002-7.443 2.23-14.887 4.42-22.312 6.776-7.948 2.506-15.88 5.202-23.819 7.803-2.983.977-5.967 1.924-8.946 2.882-2.505.796-5.059-.923-6.374-4.28-1.342-3.458-1.248-7.738.586-10.76.975-1.599 2.272-3.072 3.605-3.76 6.508-3.332 13.066-6.464 19.637-9.521 7.045-3.263 14.13-6.325 21.193-9.522 6.11-2.752 12.212-5.563 18.34-8.3 4.218-1.889 8.454-3.683 12.677-5.512.453-.201.843-.55 1.118-1.003-3.087.822-6.186 1.559-9.26 2.506-5.814 1.75-11.63 3.508-17.409 5.448a491.117 491.117 0 0 0-17.552 6.375c-5.368 2.054-10.735 4.104-16 6.55-7.542 3.483-15.02 7.192-22.446 11.066-4.205 2.185-8.293 4.906-12.44 7.352a9.693 9.693 0 0 1-2.075.882c-1.709.546-3.306-.667-4.026-3.007-.711-2.256-.447-5.012.895-6.546 1.878-2.1 3.802-4.24 5.904-5.698 7.027-4.896 14.05-9.868 21.252-14.097 6.15-3.614 12.524-6.37 18.836-9.277 4.768-2.195 9.59-4.14 14.421-6.014 4.831-1.874 9.689-3.508 14.551-5.192 4.25-1.453 8.499-2.857 12.775-4.15a503.53 503.53 0 0 1 14.945-4.29c5.39-1.458 10.789-2.881 16.197-4.16 5.099-1.202 10.216-2.214 15.329-3.267 4.446-.912 8.892-1.864 13.347-2.621a378.438 378.438 0 0 1 15.553-2.3c4.563-.572 9.13-1.033 13.701-1.333a36.866 36.866 0 0 1 7.394.26c2.183.3 3.744 2.306 4.518 5.478.809 3.066.431 6.373-1.042 9.111-2.044 3.874-4.947 5.012-7.909 6.014a3400.198 3400.198 0 0 1-16.179 5.373c-5.22 1.724-10.449 3.367-15.655 5.177-4.988 1.739-9.949 3.638-14.923 5.482a3.544 3.544 0 0 0-1.234.847c3.355-.541 6.709-1.072 10.069-1.624 3.703-.611 7.398-1.278 11.102-1.854a630.01 630.01 0 0 1 11.63-1.704 29.549 29.549 0 0 1 4.298-.36c3.342 0 5.923 4.009 6.482 9.862.474 5.012-1.288 9.522-4.433 10.926a1371.357 1371.357 0 0 1-23.443 10.023c-5.712 2.375-11.451 4.566-17.186 6.816-2.469.972-4.951 1.894-7.412 3.007 1.15 0 2.304.08 3.454 0a1411.21 1411.21 0 0 0 16.125-1.348c.59-.13 1.159-.36 1.686-.682 3.641-1.674 7.229 1.002 8.428 6.27 1.198 5.267-.537 10.72-4.026 13.03-2.344 1.543-4.777 1.002-7.157 1.198-4.97.41-9.944.776-14.918 1.207-3.538.311-7.081.642-10.614 1.063-3.758.446-7.515.917-11.263 1.553a380.2 380.2 0 0 0-14.69 2.792c-3.637.767-7.26 1.749-10.888 2.661-3.712.932-7.425 1.905-11.137 2.857-2.564.661-5.113 1.428-7.69 1.944a56.769 56.769 0 0 1-8.557 1.248c-3.202.13-6.477-4.941-6.928-10.224-.42-4.921 1.444-9.156 4.754-10.84 5.999-3.047 11.975-6.214 18-9.131 5.645-2.731 11.344-5.192 16.998-7.793 1.53-.702 3.041-1.473 4.558-2.215z"/></g></g><g><g><path fill="#dadde1" d="M151.322 26.062c-.045-5.588-.24-13.694-.57-19.272l-.29-2.41A1307.824 1307.824 0 0 1 123.73.677L120.793.2l-7.053 9.352-7.963 10.54-2.624 3.474a24319.296 24319.296 0 0 1-23.44 30.963l-.049 1.78c-.068 6.499-.244 14.424-.294 20.642l29.805 3.602 7.442-9.858c11.994-14.086 23.128-28.963 34.248-43.822l.452-.811"/></g><g><path fill="#fff" d="M109.373 59.117l38.42-49.944c.818-1.064-.611-2.59-1.44-1.517L107.936 57.6c-.82 1.064.61 2.59 1.438 1.517z"/></g><g><path fill="#c8cfd7" d="M30.2 27.134l5.84-14.324 2.136.897L151.651 61.37l-7.04 48.565-7.781 3.254-1.1-4.604-4.519.071-1.095-4.604-4.52.071-1.095-4.6-4.515.072-1.095-4.604-4.52.076-1.094-4.605-4.52.072-1.095-4.605-4.52.077-1.094-4.605-4.515.072-1.095-4.6-4.52.072-1.09-4.6-4.52.071-1.094-4.6-4.515.072-1.095-4.6-4.515.072-1.095-4.6-4.515.076-1.095-4.604-4.515.076-1.095-4.604-4.52.076-1.095-4.604-4.515.076-1.095-4.605-4.515.072-1.095-4.6-4.52.072-1.09-4.6-4.52.071-1.094-4.6z"/></g><g><path fill="#ec6517" d="M187.607 74.99c.507.222.794.793.683 1.36-.058.273-.2.518-.403.697l-6.98 5.769s2.361 11.432-5.135 33.272l3.737 5.062a17.982 17.982 0 0 1 1.483 2.114c.421.759.584 1.594-.122 2.19a2.054 2.054 0 0 1-2.022.315l-.271-.114-32.8-13.78c-.907-.405-1.612-1.193-1.941-2.172-.159-.4-.303-.83-.453-1.26l-1.045-3.039-3.094-9.008c-1.026-2.978-2.05-5.959-3.072-8.942-.217-.65-.434-1.28-.647-1.909a5.192 5.192 0 0 1-.371-2.486c.06-.367.16-.726.299-1.069.253-.64.606-1.25.904-1.851.555-1.094 1.106-2.19 1.652-3.288l4.438-8.832 3.895-7.749a3.29 3.29 0 0 1 .208-.358c.756-1.083 2.077-1.298 3.285-.792zm-33.773 6.705a10.308 10.308 0 0 0-1.04 3.068c-.072.884-.033 1.774.117 2.648.465 3.642.932 7.281 1.403 10.917.23 1.914.493 3.85.905 5.76.624 2.877 1.583 5.616 3.338 7.877a7.762 7.762 0 0 0 3.977 2.896c1.593.41 3.447-.038 4.465-1.393.774-1.03.978-2.4 1.136-3.703.443-3.702.75-7.42 1.054-11.136l1.86-22.656a.756.756 0 0 0-.453-.82c-2.62-1.107-5.24-2.21-7.858-3.307l-3.109-1.303a.53.53 0 0 0-.427.033.58.58 0 0 0-.278.344 8546.8 8546.8 0 0 0-5.072 10.774z"/></g><g><path fill="#fff" d="M141.938 83.512c.058.152.09.313.095.477a1.65 1.65 0 0 1-.267 1.055 1.56 1.56 0 0 1-1.018.591 1.146 1.146 0 0 1-.905-.214 2.13 2.13 0 0 1-.425-.506 1.593 1.593 0 0 1-.172-1.389.489.489 0 0 1 .05-.11c.198-.368.521-.644.904-.772.186-.08.389-.11.588-.086.184.033.36.106.516.214.1.065.196.138.285.22.135.12.249.266.335.43z"/></g><g><path fill="#fff" d="M150.574 64.165a1.553 1.553 0 0 1-.172 1.374c-.238.304-.578.5-.95.549a1.041 1.041 0 0 1-.85-.187 1.883 1.883 0 0 1-.394-.477l-.095-.176a1.503 1.503 0 0 1-.054-1.098 1.525 1.525 0 0 1 .891-.816c.175-.065.362-.087.547-.066.17.031.33.098.475.195.093.06.18.127.263.2.126.107.229.24.303.392.017.034.03.071.036.11z"/></g><g><path fill="#fff" d="M147.58 107.173c.048.138.077.282.085.43.024.348-.069.694-.262.977-.24.309-.584.508-.96.559-.3.062-.611-.007-.863-.191a1.883 1.883 0 0 1-.394-.477c-.036-.058-.068-.12-.1-.177a1.503 1.503 0 0 1-.054-1.116 1.575 1.575 0 0 1 .905-.825c.175-.067.363-.088.548-.063.172.03.337.096.484.196.092.06.18.126.262.2.128.11.234.244.312.396a.113.113 0 0 1 .036.09z"/></g><g><path fill="#dadde1" d="M109.8 79.867c-.045-5.587-.24-13.694-.574-19.272l-.286-2.41a1285.87 1285.87 0 0 1-26.733-3.698l-2.936-.477-7.053 9.338-7.963 10.535-2.623 3.479a12032.225 12032.225 0 0 1-23.458 30.963l-.05 1.775c-.072 6.498-.244 14.424-.294 20.646l29.805 3.598 7.438-9.858C87.07 110.4 98.2 95.527 109.325 80.664"/></g><g><path fill="#fff" d="M103.118 63.685l-22.73 29.55c-4.921 6.4-9.735 12.827-15.092 18.824l.991-.276c-7.858-1.432-15.834-2.386-23.72-3.493-1.294-.182-1.285 1.966 0 2.147 7.374 1.035 14.817 1.909 22.168 3.23 1.652.301 1.968-.028 3.068-1.264s2.262-2.453 3.334-3.732c5.922-7.061 11.31-14.705 16.943-22.025l16.495-21.439c.819-1.064-.615-2.595-1.439-1.522z"/></g><g><path fill="#fff" d="M67.264 130.421c-.172-5.673-.398-11.342-.398-17.015 0-1.379-2.036-1.384-2.036 0 0 5.673.226 11.342.398 17.015.04 1.375 2.077 1.384 2.036 0z"/></g><g><path fill="#fff" d="M72.064 82.124c-1.849-.364-3.75.24-5.1 1.622-1.135 1.189-2.153 3.398-.827 4.824 1.325 1.427 3.782.926 5.343.478 2.045-.616 4.429-1.909 5.302-4.07.502-1.255-1.249-2.353-1.76-1.084-.868 2.162-3.732 3.283-5.827 3.417-1.253.08-1.945-.53-1.022-1.732.808-1.048 2.081-1.567 3.348-1.365 1.28.2 1.836-1.866.543-2.07z"/></g></g><g><path fill="#c8cfd7" d="M111.334 100.114v-.03c0-.03.042-.055.057-.045.014.01.038 0-.053 0 .022.005.04.02.053.04 0 0 .038 0 0 0s0 .025 0-.065a.105.105 0 0 1 0 .055c-.053 0-.095.035-.048.045.048.01-.024-.05-.047-.075.038.085.047.1.033.055-.014-.045 0-.04 0 0 0 .415.319.752.713.752.393 0 .712-.337.712-.752 0-.811-.609-1.477-1.378-1.504-.766-.016-1.4.625-1.416 1.434-.015.808.593 1.477 1.36 1.493.76.001 1.387-.627 1.425-1.428 0-.415-.32-.752-.713-.752-.394 0-.713.337-.713.752z"/></g><g><path fill="#c8cfd7" d="M105.158 107.5c-.048.306-.176.502-.475.457-.195 0-.333-.12-.295-.356.038-.236.171-.266.413-.256.188 0 .34.159.343.356 0 .415.319.752.712.752.394 0 .713-.337.713-.752-.014-.997-.762-1.81-1.706-1.854-.888-.08-1.692.553-1.872 1.473-.086.468.009.952.263 1.346.254.393.647.663 1.091.75.482.118.988.024 1.403-.26.415-.283.703-.732.797-1.244.09-.4-.127-.804-.499-.927-.38-.114-.776.116-.888.516z"/></g><g><path fill="#c8cfd7" d="M107.494 114.442c-.024.16 0 0 .048 0 .047 0 .085-.036.142-.05-.152.035-.033 0 0 .025s.143.115.133.24c-.01.125-.104.155-.176.216h.048a.077.077 0 0 1-.067 0c-.042 0-.09-.03-.123-.076-.034-.045-.043-.2-.043-.135 0 .415.32.752.713.752.393 0 .713-.337.713-.752-.016-.675-.514-1.228-1.152-1.278-.638-.05-1.209.418-1.32 1.083-.044.348.052.7.264.97.211.272.52.437.853.458.63.072 1.209-.376 1.33-1.032.095-.392-.112-.794-.474-.923-.377-.117-.773.106-.889.502z"/></g><g><path fill="#c8cfd7" d="M111.374 108.541c0 .16 0 0 .048 0 .047 0 .085-.035.142-.045-.152.03-.033-.03 0 0s.143.115.133.24c-.01.126-.104.16-.176.216h.048a.077.077 0 0 1-.067 0c-.042 0-.09-.03-.123-.075-.034-.045-.038-.2-.043-.13 0 .415.32.751.713.751.393 0 .713-.336.713-.751-.013-.676-.51-1.231-1.15-1.283-.639-.052-1.21.416-1.321 1.082-.045.349.05.701.262.973.212.272.521.438.854.46.63.068 1.207-.381 1.33-1.037a.782.782 0 0 0-.161-.755.688.688 0 0 0-.708-.204.736.736 0 0 0-.504.563z"/></g><g><path fill="#c8cfd7" d="M103.975 119.399c-.024.165 0 .025.047 0 .048-.025.09-.035.143-.05-.148.035-.029 0 0 .025.028.025.138.115.133.24-.005.126-.11.156-.18.216h.052a.077.077 0 0 1-.067 0 .395.395 0 0 1-.124-.075c-.033-.04-.042-.2-.042-.136 0 .416.319.752.712.752.392-.005.708-.339.713-.752-.008-.645-.463-1.186-1.069-1.273a1.173 1.173 0 0 0-.914.231 1.3 1.3 0 0 0-.228 1.818c.211.27.52.437.852.457.631.07 1.21-.376 1.335-1.032.105-.401-.118-.817-.498-.927-.381-.111-.775.125-.88.526z"/></g><g><path fill="#c8cfd7" d="M109.124 122.943c-.034.21.047.075-.12.14v.05c0-.005 0 0 .03-.06l-.1.1c0-.055.114-.045.142-.045.029 0 0-.04 0 0 0 .415.32.752.713.752.393 0 .713-.337.713-.752-.015-.812-.628-1.472-1.397-1.503-.714-.06-1.359.449-1.507 1.187a1.53 1.53 0 0 0 .203 1.104c.205.324.523.55.885.625.39.099.801.025 1.14-.202.337-.228.573-.59.652-1.005.09-.398-.128-.802-.5-.923-.373-.093-.75.142-.854.532z"/></g></g></g></g></g></svg>