<svg xmlns="http://www.w3.org/2000/svg" width="94" height="84" viewBox="0 0 94 84"><g><g><path fill="#c8cfd7" d="M11.61 83.422h56.473V5.14H11.61z"/></g><g><path fill="#fff" d="M15.35 77.955h48.648V10.27H15.35z"/></g><g><path fill="#c8cfd7" d="M50.244 12.666H29.11a.15.15 0 0 1-.15-.149V4.27a.15.15 0 0 1 .15-.15h21.134a.15.15 0 0 1 .148.15v8.247a.15.15 0 0 1-.148.149z"/></g><g><path fill="#8697a5" d="M15.35 13.692h48.648v-.342H15.35z"/></g><g><path fill="#8697a5" d="M15.35 17.452h48.648v-.342H15.35z"/></g><g><path fill="#8697a5" d="M15.35 20.872h48.648v-.342H15.35z"/></g><g><path fill="#8697a5" d="M15.35 24.282h48.648v-.342H15.35z"/></g><g><path fill="#8697a5" d="M15.35 28.052h48.648v-.342H15.35z"/></g><g><path fill="#8697a5" d="M15.35 31.472h48.648v-.342H15.35z"/></g><g><path fill="#8697a5" d="M15.35 35.232h48.648v-.342H15.35z"/></g><g><path fill="#8697a5" d="M15.35 38.642h48.648V38.3H15.35z"/></g><g><path fill="#8697a5" d="M15.35 42.062h48.648v-.342H15.35z"/></g><g><path fill="#8697a5" d="M15.35 46.162h48.648v-.342H15.35z"/></g><g><path fill="#8697a5" d="M15.35 49.582h48.648v-.342H15.35z"/></g><g><path fill="#8697a5" d="M15.35 53.002h48.648v-.342H15.35z"/></g><g><path fill="#8697a5" d="M15.35 56.762h48.648v-.342H15.35z"/></g><g><path fill="#8697a5" d="M15.35 60.182h48.648v-.342H15.35z"/></g><g><path fill="#8697a5" d="M15.35 63.942h48.648V63.6H15.35z"/></g><g><path fill="#8697a5" d="M15.35 67.362h48.648v-.342H15.35z"/></g><g><path fill="#8697a5" d="M15.35 70.782h48.648v-.342H15.35z"/></g><g><path fill="#8697a5" d="M15.35 74.542h48.648V74.2H15.35z"/></g><g><path fill="#ed7b00" d="M13.27 17.3l-1.314.807a2.953 2.953 0 0 1-4.086-1.016L1.19 5.908C.34 4.484.79 2.625 2.193 1.763L4.075.606a.577.577 0 0 1 .799.199.596.596 0 0 1-.198.81l-1.88 1.158a1.854 1.854 0 0 0-.61 2.522l6.68 11.184a1.796 1.796 0 0 0 2.486.619l1.315-.809a1.853 1.853 0 0 0 .61-2.521L8.841 6.343a.595.595 0 0 1 .195-.81.577.577 0 0 1 .8.198l4.434 7.424c.852 1.423.402 3.284-1 4.146z"/></g><g><path fill="#ed7b00" d="M20.82 28.303l-2.354 1.443c-2.186 1.338-5.121.503-6.54-1.866L1.884 11.133a.591.591 0 0 1 .197-.808.577.577 0 0 1 .8.198L12.922 27.27c1.086 1.815 3.302 2.473 4.94 1.47l2.354-1.442c1.638-1.003 2.086-3.294.997-5.109L9.778 3.113C8.69 1.3 6.473.641 4.835 1.644a.579.579 0 0 1-.798-.198.592.592 0 0 1 .197-.808C6.42-.7 9.353.136 10.772 2.503L22.21 21.581c1.419 2.368.797 5.383-1.39 6.722z"/></g><g><path fill="#2c2c2c" d="M88.946 63.5l-1.162 7.528-37.974-5.82v.001l1.157-7.529z"/></g><g><path fill="#c8cfd7" d="M49.812 65.209l1.156-7.529-9.408 2.41z"/></g><g><path fill="#8697a5" d="M43.821 61.439l.379-1.959-2.64.604z"/></g><g><path fill="#111" d="M92.216 71.57a.138.138 0 0 1-.155.113l-4.281-.654 1.162-7.529 4.286.654a.13.13 0 0 1 .108.15z"/></g></g></svg>