<svg xmlns="http://www.w3.org/2000/svg" width="170" height="121" viewBox="0 0 170 121"><g><g><g><path fill="#a1b2c0" d="M61.59 112.348h75.856V6.93H61.59z"/></g><g><path fill="#c8cfd7" d="M59.76 112.348h75.856V6.93H59.76z"/></g><g><path fill="#fff" d="M64.79 104.978h65.346V13.83H64.79z"/></g><g><path fill="#c8cfd7" d="M111.659 17.058H83.27a.202.202 0 0 1-.201-.2V5.751c0-.11.09-.201.201-.201h28.388c.11 0 .2.09.2.201v11.107c0 .11-.09.2-.2.2z"/></g><g><path fill="#8697a5" d="M64.79 18.44h65.346v-.46H64.79z"/></g><g><path fill="#8697a5" d="M64.79 23.5h65.346v-.46H64.79z"/></g><g><path fill="#8697a5" d="M64.79 28.11h65.346v-.46H64.79z"/></g><g><path fill="#8697a5" d="M64.79 32.71h65.346v-.46H64.79z"/></g><g><path fill="#8697a5" d="M64.79 37.77h65.346v-.46H64.79z"/></g><g><path fill="#8697a5" d="M64.79 42.37h65.346v-.46H64.79z"/></g><g><path fill="#8697a5" d="M64.79 47.44h65.346v-.46H64.79z"/></g><g><path fill="#8697a5" d="M64.79 52.04h65.346v-.46H64.79z"/></g><g><path fill="#8697a5" d="M64.79 56.64h65.346v-.46H64.79z"/></g><g><path fill="#8697a5" d="M64.79 62.17h65.346v-.46H64.79z"/></g><g><path fill="#8697a5" d="M64.79 66.77h65.346v-.46H64.79z"/></g><g><path fill="#8697a5" d="M64.79 71.38h65.346v-.46H64.79z"/></g><g><path fill="#8697a5" d="M64.79 76.44h65.346v-.46H64.79z"/></g><g><path fill="#8697a5" d="M64.79 81.04h65.346v-.46H64.79z"/></g><g><path fill="#8697a5" d="M64.79 86.11h65.346v-.46H64.79z"/></g><g><path fill="#8697a5" d="M64.79 90.71h65.346v-.46H64.79z"/></g><g><path fill="#8697a5" d="M64.79 95.31h65.346v-.46H64.79z"/></g><g><path fill="#8697a5" d="M64.79 100.38h65.346v-.46H64.79z"/></g><g><path fill="#ed7b00" d="M62.004 23.288l-1.765 1.086c-1.884 1.163-4.344.549-5.489-1.368L45.777 7.945c-1.141-1.916-.537-4.42 1.347-5.582L49.652.805a.774.774 0 0 1 1.074.268.803.803 0 0 1-.266 1.092l-2.525 1.559c-1.147.706-1.514 2.23-.82 3.396l8.974 15.062a2.41 2.41 0 0 0 3.339.833l1.765-1.09c1.147-.706 1.514-2.229.82-3.395l-5.958-9.998a.803.803 0 0 1 .263-1.092.774.774 0 0 1 1.074.268l5.956 9.997c1.144 1.917.54 4.422-1.344 5.583z"/></g><g><path fill="#ed7b00" d="M72.139 38.114l-3.163 1.943c-2.936 1.803-6.878.678-8.784-2.513l-13.49-22.552a.798.798 0 0 1 .266-1.088.774.774 0 0 1 1.073.266l13.49 22.553c1.459 2.444 4.435 3.331 6.635 1.98l3.163-1.943c2.2-1.35 2.8-4.435 1.338-6.88L57.306 4.193c-1.46-2.441-4.44-3.328-6.639-1.978a.776.776 0 0 1-1.073-.266A.799.799 0 0 1 49.86.86C52.796-.944 56.735.183 58.64 3.37l15.364 25.691c1.906 3.188 1.07 7.25-1.866 9.052z"/></g><g><path fill="#cad1d9" d="M2.2 107.495h77.684V65.19a4.161 4.161 0 0 0-4.162-4.161H2.2z"/></g><g><path fill="#8697a5" d="M5.659 63.11H.804a.694.694 0 1 0 0 1.387h4.855a.694.694 0 1 0 0-1.387z"/></g><g><path fill="#8697a5" d="M5.659 72.13H.804a.694.694 0 1 0 0 1.387h4.855a.694.694 0 0 0 0-1.387z"/></g><g><path fill="#8697a5" d="M5.659 81.84H.804a.694.694 0 1 0 0 1.387h4.855a.694.694 0 1 0 0-1.387z"/></g><g><path fill="#8697a5" d="M5.659 91.54H.804a.694.694 0 1 0 0 1.387h4.855a.694.694 0 1 0 0-1.387z"/></g><g><path fill="#8697a5" d="M5.659 101.25H.804a.694.694 0 1 0 0 1.387h4.855a.694.694 0 1 0 0-1.387z"/></g><g><path fill="#8697a5" d="M5.659 65.19H.804a.694.694 0 1 0 0 1.387h4.855a.694.694 0 0 0 0-1.387z"/></g><g><path fill="#8697a5" d="M5.659 74.9H.804a.694.694 0 1 0 0 1.387h4.855a.694.694 0 1 0 0-1.387z"/></g><g><path fill="#8697a5" d="M5.659 84.61H.804a.694.694 0 1 0 0 1.387h4.855a.694.694 0 1 0 0-1.387z"/></g><g><path fill="#8697a5" d="M5.659 94.32H.804a.694.694 0 1 0 0 1.387h4.855a.694.694 0 0 0 0-1.387z"/></g><g><path fill="#8697a5" d="M5.659 103.34H.804a.694.694 0 1 0 0 1.387h4.855a.694.694 0 1 0 0-1.387z"/></g><g><path fill="#b05c01" d="M35.49 117.894h44.39V73.51H35.49z"/></g><g><path fill="#ed7b00" d="M85.4 73.51v8.913s.245 16.505.797 22.144c1.042 10.645 4.089 16.101 4.089 16.101H46.083s-3.741-5.95-4.769-15.4c-.617-5.674 0-22.845 0-22.845V73.51z"/></g><g><path fill="#b05c01" d="M41.04 81.832h44.39V73.51H41.04z"/></g><g><path fill="#2c2c2c" d="M163.648 85.507l-1.56 10.139-51.008-7.837 1.554-10.139z"/></g><g><path fill="#c8cfd7" d="M111.074 87.81l1.554-10.14-12.638 3.246z"/></g><g><path fill="#8697a5" d="M103.027 82.748l.509-2.638-3.546.814z"/></g><g><path fill="#111" d="M168.038 96.377a.186.186 0 0 1-.208.153l-5.75-.88 1.56-10.14 5.758.88c.097.015.16.105.145.202z"/></g></g></g></svg>