<svg xmlns="http://www.w3.org/2000/svg" width="167" height="105" viewBox="0 0 167 105"><g><g><g/><g><g><path fill="#fff" d="M39.922 4.64l116.161 9.13-6.74 85.418L34.69 89.781z"/></g><g><path fill="#dadde1" d="M83.41 23.39l59.16 5.156c1.756.15 1.747-2.585 0-2.735l-59.16-5.155c-1.754-.15-1.74 2.584 0 2.735z"/></g><g><path fill="#dadde1" d="M82.039 22.019l-5.013 59.16c-.15 1.756 2.584 1.747 2.735 0l5.014-59.16c.15-1.75-2.59-1.74-2.735 0z"/></g><g><path fill="#dadde1" d="M78.601 82.522l19.85 1.727c.78.068 1.307-.684 1.366-1.368l.98-11.777-1.367 1.367c13.1.684 26.162 1.878 39.225 3.018.78.068 1.308-.689 1.367-1.368l4.006-46.859c.15-1.754-2.584-1.745-2.734 0l-3.984 46.873 1.367-1.367c-13.062-1.14-26.125-2.334-39.224-3.018-.747.02-1.348.62-1.368 1.368l-1.002 11.763 1.367-1.367-19.83-1.727c-1.75-.15-1.742 2.584 0 2.734H78.6z"/></g><g><path fill="#dadde1" d="M81.443 46.74c19.662 1.715 39.326 3.438 58.992 5.169 1.75.155 1.74-2.584 0-2.734-19.666-1.714-39.33-3.437-58.992-5.17-1.755-.15-1.746 2.586 0 2.736z"/></g><g><path fill="#dadde1" d="M118.503 25.252c.146-1.745 2.886-1.754 2.736 0l-1.92 22.57c-.15 1.746-2.884 1.755-2.734 0zM108.7 47.918c.145-1.74 2.88-1.754 2.734 0l-1.923 22.625c-.151 1.742-2.885 1.75-2.735 0zm20.505-20.25c-1.121-1.34.803-3.3 1.933-1.933l11.358 13.592c1.121 1.344-.803 3.3-1.933 1.932z"/></g><g><path fill="#dadde1" d="M119.21 26.471c-1.12-1.345.804-3.305 1.934-1.937l20.086 24.038c1.126 1.34-.802 3.3-1.932 1.932zm-.901 10.606c-1.121-1.345.807-3.3 1.932-1.933l11.363 13.592c1.12 1.34-.807 3.3-1.937 1.932z"/></g><g><path fill="#c8cfd7" d="M159.196 9.965s8.272.684 7.784 6.896a7233.808 7233.808 0 0 1-5.054 61.17c-.274 3.2-.55 6.39-.83 9.572l-.911 10.706c-.511 5.889-7.325 6.089-7.325 6.089L34.589 94.13c-2.63-.228-6.846.164-8.304-2.672-.94-1.822-.638-4.156-.483-6.12 2.084-25.752 4.17-51.504 6.258-77.255 0 0-.41-8.21 6.38-7.656 26.44 2.137 52.912 3.814 79.37 5.72 13.651.984 27.316 1.973 40.889 3.773.164.019.328.046.497.046zm-5.1 5.424l-109.01-8.81-6.417 81.827s109.004 8.988 109.004 8.81z"/></g><g><path fill="#c8cfd7" d="M157.8 54.853c.22.046.431.128.625.24.47.264.83.683 1.02 1.186.184.587.136 1.22-.13 1.773a1.823 1.823 0 0 1-1.009 1.017 3.022 3.022 0 0 1-.943.146 2.307 2.307 0 0 1-.31 0 2.156 2.156 0 0 1-1.477-.862c-.032-.05-.06-.1-.086-.15a2.548 2.548 0 0 1-.174-1.778c.074-.294.213-.568.406-.802.19-.207.42-.375.675-.492a3.77 3.77 0 0 1 .492-.187 2.07 2.07 0 0 1 .784-.087z"/></g><g><path fill="#fff" d="M157.61 55.514c2.024.528 1.322 3.646-.78 2.926-1.631-.56-.91-3.19.78-2.926.862.123 1.235-1.194.365-1.322a2.967 2.967 0 0 0-3.328 2.028 2.844 2.844 0 0 0 1.856 3.55 2.794 2.794 0 0 0 3.61-1.964 2.922 2.922 0 0 0-2.138-3.614.688.688 0 0 0-.365 1.322z"/></g><g><path fill="#ed7b00" d="M33.699 59.338a290.936 290.936 0 0 0 13.624 4.64c.314.1.71.177.91-.064a.789.789 0 0 0 .1-.688 6.015 6.015 0 0 0-1.238-2.243l-6.03-7.93 2.142-3.314c2.448-3.847 2.64-9.015 1.96-13.418-.912-6.035-4.002-11.95-9.143-15.433-5.643-3.815-13.058-4.558-19.517-2.639-.906.27-1.796.589-2.666.957a20.082 20.082 0 0 0-8.86 7.224 23.897 23.897 0 0 0-3.739 17.238c.096.533.21 1.062.347 1.586 2.885 11.144 15.803 19.27 27 15.647 1.236-.4 2.444-.91 3.647-1.404l.958-.337.506.178z"/></g><g><path fill="#ed7b00" d="M33.658 59.515a336.183 336.183 0 0 0 10.4 3.606c.912.29 3.97 2.055 4.495.524.17-.488-.315-1.28-.538-1.673-.91-1.663-2.343-3.158-3.496-4.672l-1.65-2.146c-.282-.374-1.609-1.627-1.613-2.047-.005-.42 1.016-1.577 1.276-1.978 5.592-8.66 3.423-21.367-3.988-28.404-8.058-7.68-22.064-7.384-30.337-.205-8.473 7.37-9.918 21.184-3.19 30.109a23.746 23.746 0 0 0 13.058 8.696c2.472.63 5.043.774 7.57.424a22.06 22.06 0 0 0 4.813-1.368c.912-.36 2.202-1.257 3.19-.884.206.078.297-.255.092-.332-.665-.251-.912-.096-1.604.164-2.36.91-4.595 1.864-7.129 2.142a20.68 20.68 0 0 1-11.33-2.133C6 55.54.86 47.82 1.087 39.168c.282-10.304 7.12-18.991 17.224-21.193 9.571-2.087 19.598 1.783 24.21 10.67a25.496 25.496 0 0 1 2.521 15.652c-.578 3.332-2.333 5.925-4.102 8.66a.16.16 0 0 0 0 .173l4.4 5.77c.623.816 1.626 1.746 2.041 2.685.607.626.607 1.366 0 2.22l-1.208-.383a277.747 277.747 0 0 1-12.443-4.24c-.187-.072-.278.256-.073.333z"/></g><g><path fill="#fff" d="M32.707 41.25c.103-.097.189-.21.255-.334.17-.29.231-.63.173-.962a1.486 1.486 0 0 0-.633-.91 1.121 1.121 0 0 0-.862-.22c-.196.045-.383.12-.556.223-.054.037-.109.073-.16.114a1.367 1.367 0 0 0-.514.912v.11c.027.38.188.736.456 1.007.253.27.622.4.989.346a2.53 2.53 0 0 0 .323-.06c.164-.036.32-.106.456-.204l.073-.023z"/></g><g><path fill="#fff" d="M33.185 41.734a.682.682 0 0 1-.284.186 2.086 2.086 0 0 1-2.628-.35 2.033 2.033 0 1 1 2.994-2.735 2.092 2.092 0 0 1-.082 2.9zm-.98-.98c.666-.66-.219-1.705-.91-1.016-.585.56.236 1.572.91 1.016zm-8.054.06a1.365 1.365 0 0 1-.455.204 2 2 0 0 1-.392.06 1.252 1.252 0 0 1-.52-.046 1.232 1.232 0 0 1-.456-.296 1.564 1.564 0 0 1-.455-1.007.456.456 0 0 1 0-.109 1.34 1.34 0 0 1 .524-.94c.21-.161.453-.276.711-.337a1.13 1.13 0 0 1 .861.22c.321.21.548.537.638.91.06.331 0 .672-.168.962a1.216 1.216 0 0 1-.256.328z"/></g><g><path fill="#fff" d="M24.423 41.409c-.836.54-1.96.418-2.659-.33a2.033 2.033 0 1 1 2.995-2.734 2.087 2.087 0 0 1-.092 2.898.698.698 0 0 1-.244.166zm-.722-1.15c.666-.66-.223-1.705-.911-1.017-.589.561.237 1.568.911 1.017zm-8.14.077a1.33 1.33 0 0 1-.456.205 2.53 2.53 0 0 1-.323.06 1.447 1.447 0 0 1-.52-.046 1.324 1.324 0 0 1-.456-.3 1.598 1.598 0 0 1-.456-1.008v-.109c.037-.37.223-.709.515-.939l.16-.11c.171-.105.36-.18.556-.223.31-.054.629.024.88.214.32.213.546.539.633.912.058.331-.003.671-.173.961a1.202 1.202 0 0 1-.255.33z"/></g><g><path fill="#fff" d="M16.151 40.774a2.097 2.097 0 0 0 .096-2.903 2.033 2.033 0 1 0-2.995 2.735 2.094 2.094 0 0 0 2.653.334.689.689 0 0 0 .246-.165zm-1.878-2c.693-.689 1.577.35.912 1.011l-.005.006c-.674.54-1.488-.463-.907-1.018zm46.13 21.6a8.086 8.086 0 0 0-3.19.41c-.696.219-1.372.491-2.025.815a7.748 7.748 0 0 0-4.37 5.551 11.144 11.144 0 0 0 .815 7.53c.108.22.232.431.37.633a8.874 8.874 0 0 0 6.126 3.61c.425.047.852.068 1.28.064a11.471 11.471 0 0 0 3.88-.665c1.913-.702 3.317-2.443 4.101-4.349.994-2.36 1.336-5.087.456-7.547a9.617 9.617 0 0 0-4.28-4.982 8.282 8.282 0 0 0-2.575-.998 6.033 6.033 0 0 0-.589-.073z"/></g><g><path fill="#ed7b00" d="M60.76 61.305a8.546 8.546 0 0 1 6.7 8.93c-.387 4.85-3.691 8.148-8.636 7.848-4.626-.278-7.562-4.13-7.366-8.637.205-4.809 4.298-8.838 9.326-8.14 1.116.154 1.6-1.56.455-1.719-5.42-.748-10.587 2.903-11.417 8.318-.861 5.597 2.242 11.08 8.113 11.85 5.87.77 10.278-2.775 11.17-8.536a10.328 10.328 0 0 0-7.866-11.655c-1.12-.24-1.595 1.472-.478 1.741z"/></g><g><path fill="#ed7b00" d="M60.008 64.358a1.6 1.6 0 0 1 .524.2c.4.226.708.584.871 1.013a2.15 2.15 0 0 1-.09 1.536 1.54 1.54 0 0 1-.83.884c-.254.09-.52.137-.789.137a2.568 2.568 0 0 1-.265 0 1.798 1.798 0 0 1-1.244-.734.71.71 0 0 1-.073-.128 2.252 2.252 0 0 1-.168-1.531c.102-.503.442-.924.911-1.13a2.88 2.88 0 0 1 .41-.17c.212-.067.435-.095.657-.081z"/></g><g><path fill="#ed7b00" d="M59.276 67.916c-1.982-.456-1.367-3.674.689-3.391h.007c2.084.544 1.568 3.923-.696 3.39zm-.091.328c2.657.661 3.402-3.352.911-4.041a.177.177 0 0 0-.059-.014c-2.46-.32-3.261 3.46-.852 4.055zm4.407 5.478a4.546 4.546 0 0 0-.236-1.25 4.79 4.79 0 0 0-2.142-2.487 4.17 4.17 0 0 0-1.29-.502l-.265-.036a4.102 4.102 0 0 0-1.609.205 6.97 6.97 0 0 0-1.011.41 3.851 3.851 0 0 0-2.184 2.77c-.072.3-.12.606-.145.913l8.842.643z"/></g><g><path fill="#ed7b00" d="M63.764 73.722c-.269-2.25-1.96-4.416-4.39-4.47-2.697-.065-4.557 1.968-4.844 4.493 0 .1.086.17.168.173l8.843.643a.178.178 0 0 0 .173-.173l.05-.666c0-.219-.328-.219-.342 0-.055.73.25.36-.3.456a7.347 7.347 0 0 1-1.669-.118l-4.357-.32c-.57.003-1.14-.038-1.705-.123-.724-.173-.807.324-.383-.77 1.7-4.398 7.817-4.143 8.414.866.023.223.388.228.342.01z"/></g><g><path fill="#dadde1" d="M51.793 51.221l20.187 1.5c1.759.133 1.75-2.602 0-2.734l-20.187-1.5c-1.755-.127-1.746 2.607 0 2.735zm20.76-6.006c1.756.132 1.747-2.603 0-2.735l-20.19-1.495c-1.755-.132-1.746 2.602 0 2.735zm.57-7.507c1.755.132 1.746-2.603 0-2.735l-20.19-1.495c-1.755-.132-1.746 2.603 0 2.735zm1.938-8.86l.57-7.507a1.395 1.395 0 0 0-1.368-1.368l-20.191-1.5c-.775-.058-1.313.675-1.367 1.368l-.57 7.507c-.06.775.68 1.317 1.367 1.367l20.19 1.5c.741.05 1.168-.408 1.282-.964.045-.122.075-.257.087-.404zm-20.096-2.759l.364-4.786L72.8 22.6l-.363 4.778z"/></g></g></g></g></svg>