<svg xmlns="http://www.w3.org/2000/svg" width="158" height="115" viewBox="0 0 158 115"><g><g><g><path fill="#c5cdd7" d="M5.25 113.676h62.717V17.89H5.25z"/></g><g><path fill="#fff" d="M21.89 70.169h15.334V51.31H21.89z"/></g><g><path fill="#a2acb9" d="M29.13 70.757h.859V51.31h-.859z"/></g><g><path fill="#a2acb9" d="M21.89 58.374h15.334v-.784H21.89z"/></g><g><path fill="#a2acb9" d="M21.89 64.213h15.334v-.783H21.89z"/></g><g><path fill="#a2acb9" d="M20.27 51.311h18.57V48.82H20.27z"/></g><g><path fill="#a2acb9" d="M20.27 72h18.57v-2.49H20.27z"/></g><g><path fill="#e8b202" d="M20.91 109.797h17.3V81.62h-17.3z"/></g><g><path fill="#ffc300" d="M21.94 109.031h15.245V82.52H21.94z"/></g><g><path fill="#aab6c5" d="M13.49 111.259h29.906V109.8H13.49z"/></g><g><path fill="#aab6c5" d="M13.49 115h29.906v-3.75H13.49z"/></g><g><path fill="#a2acb9" d="M13.49 115.004h29.906v-.834H13.49z"/></g><g><path fill="#a2acb9" d="M5.25 48.347h2.518V45.39H5.25z"/></g><g><path fill="#a2acb9" d="M6.57 51.547h5.318V48.59H6.57z"/></g><g><path fill="#8ea3aa" d="M54.85 33.22s1.146 2.997 4.325 3.045c3.181.048 4.38-1.81 4.693-3.046l-3.493-1.709z"/></g><g><g><path fill="#fff" d="M.74 33.22h63.123L60.758.8H3.882z"/></g></g><g clip-path="url(#clip-271:148)"><g><path fill="#a1b2c0" d="M.74 33.22h63.123L60.758.8H3.882z"/></g><g><path fill="#a1b2c0" d="M-8.55 33.671s1.376 5.003 5.697 5.077c4.32.073 5.948-3.139 6.373-5.045L-1.225 31.4z"/></g><g><path fill="#8ea3aa" d="M-1.245 31.603l4.527 2.196c-.271 1.073-1.557 4.83-6.133 4.754-3.669-.063-5.159-3.906-5.445-4.765zm-1.468 7.332c3.887 0 5.873-2.673 6.435-5.198l.031-.139-4.962-2.408-7.591 2.353.047.17c.013.052 1.466 5.145 5.894 5.221z"/></g><g><path fill="#a1b2c0" d="M3.52 33.671s1.376 5.003 5.696 5.077c4.32.073 5.948-3.139 6.374-5.045L10.845 31.4z"/></g><g><path fill="#8ea3aa" d="M10.825 31.603l4.527 2.196c-.27 1.062-1.521 4.756-5.993 4.756l-.14-.002c-3.668-.063-5.158-3.906-5.446-4.765zm-1.468 7.332c3.887 0 5.873-2.673 6.435-5.198l.032-.139-4.963-2.408-7.591 2.353.047.17c.013.052 1.466 5.145 5.894 5.221z"/></g><g><path fill="#a1b2c0" d="M15.59 33.671s1.376 5.003 5.696 5.077c4.32.073 5.948-3.139 6.374-5.045L22.915 31.4z"/></g><g><path fill="#8ea3aa" d="M22.896 31.603l4.525 2.196c-.267 1.062-1.52 4.756-5.992 4.756l-.14-.002c-3.668-.063-5.159-3.906-5.446-4.765zm-1.469 7.332c3.888 0 5.874-2.673 6.435-5.198l.031-.139-4.96-2.408-7.593 2.353.046.17c.014.052 1.467 5.145 5.895 5.221z"/></g><g><path fill="#a1b2c0" d="M27.66 33.671s1.376 5.003 5.696 5.077c4.32.073 5.949-3.139 6.374-5.045L34.985 31.4z"/></g><g><path fill="#8ea3aa" d="M34.967 31.603l4.525 2.196c-.267 1.062-1.52 4.756-5.993 4.756l-.14-.002c-3.667-.063-5.158-3.906-5.445-4.765zm-1.469 7.332c3.888 0 5.873-2.673 6.434-5.198l.032-.139-4.962-2.408-7.592 2.353.048.17c.013.052 1.465 5.145 5.893 5.221z"/></g><g><path fill="#a1b2c0" d="M39.73 33.671s1.376 5.003 5.696 5.077c4.32.073 5.949-3.139 6.374-5.045L47.055 31.4z"/></g><g><path fill="#8ea3aa" d="M47.037 31.603l4.525 2.196c-.267 1.062-1.52 4.756-5.993 4.756l-.14-.002c-3.667-.063-5.158-3.906-5.445-4.765zm-1.47 7.332c3.889 0 5.874-2.673 6.436-5.198l.031-.139-4.962-2.408-7.592 2.353.047.17c.014.052 1.466 5.145 5.894 5.221z"/></g><g><path fill="#a1b2c0" d="M51.8 33.671s1.376 5.003 5.696 5.077c4.32.073 5.949-3.139 6.374-5.045L59.124 31.4z"/></g><g><path fill="#8ea3aa" d="M59.108 31.603l4.525 2.196c-.268 1.062-1.52 4.756-5.993 4.756l-.14-.002c-3.667-.063-5.158-3.906-5.446-4.765zm-1.47 7.332c3.887 0 5.873-2.673 6.437-5.198l.03-.139-4.962-2.408-7.593 2.353.048.17c.014.052 1.466 5.145 5.894 5.221z"/></g><g><path fill="#8ea3aa" d="M71.176 31.603l4.526 2.196c-.267 1.062-1.52 4.756-5.993 4.756l-.14-.002c-3.668-.063-5.157-3.906-5.445-4.765zm-1.469 7.332c3.887 0 5.873-2.673 6.436-5.198l.031-.139-4.962-2.408-7.592 2.353.048.17c.014.052 1.465 5.145 5.894 5.221z"/></g><g><path fill="#a1b2c0" d="M-2.52 30.001s1.377 5.003 5.696 5.077c4.32.073 5.949-3.138 6.373-5.045L4.806 27.73z"/></g><g><path fill="#8ea3aa" d="M4.787 27.933l4.525 2.197c-.267 1.061-1.52 4.756-5.993 4.756l-.14-.001c-3.667-.063-5.158-3.908-5.444-4.766zm-1.47 7.333c3.888 0 5.874-2.673 6.436-5.198l.031-.14-4.96-2.408-7.594 2.354.047.169c.015.053 1.467 5.146 5.895 5.221z"/></g><g><path fill="#a1b2c0" d="M9.55 30.001s1.376 5.003 5.696 5.077c4.32.073 5.949-3.138 6.374-5.045l-4.745-2.303z"/></g><g><path fill="#8ea3aa" d="M16.857 27.933l4.525 2.197c-.271 1.073-1.567 4.827-6.133 4.755-3.667-.063-5.158-3.908-5.444-4.766zm-1.469 7.333c3.886 0 5.872-2.673 6.435-5.198l.031-.14-4.96-2.408L9.3 29.874l.047.169c.014.053 1.467 5.146 5.894 5.221z"/></g><g><path fill="#a1b2c0" d="M21.62 30.001s1.376 5.003 5.696 5.077c4.32.073 5.949-3.138 6.374-5.045l-4.745-2.303z"/></g><g><path fill="#8ea3aa" d="M28.926 27.933l4.526 2.197c-.268 1.061-1.521 4.756-5.992 4.756l-.14-.001c-3.669-.063-5.158-3.908-5.445-4.766zm-1.467 7.333c3.885 0 5.871-2.673 6.434-5.198l.031-.14-4.962-2.408-7.592 2.354.048.169c.014.053 1.466 5.146 5.894 5.221z"/></g><g><path fill="#a1b2c0" d="M33.69 30.001s1.376 5.003 5.696 5.077c4.32.073 5.949-3.138 6.373-5.045l-4.744-2.303z"/></g><g><path fill="#8ea3aa" d="M40.996 27.933l4.525 2.197c-.268 1.061-1.521 4.756-5.992 4.756l-.14-.001c-3.669-.063-5.159-3.908-5.446-4.766zm-1.469 7.333c3.886 0 5.871-2.673 6.436-5.198l.03-.14-4.962-2.408-7.591 2.354.046.169c.014.053 1.466 5.146 5.894 5.221z"/></g><g><path fill="#a1b2c0" d="M45.76 30.001s1.377 5.003 5.696 5.077c4.32.073 5.948-3.138 6.373-5.045l-4.744-2.303z"/></g><g><path fill="#8ea3aa" d="M53.066 27.933l4.525 2.197c-.268 1.061-1.521 4.756-5.992 4.756l-.14-.002c-3.669-.062-5.159-3.907-5.446-4.765zm-1.47 7.333c3.887 0 5.873-2.673 6.437-5.198l.03-.14L53.1 27.52l-7.591 2.354.046.169c.014.053 1.466 5.146 5.895 5.221z"/></g><g><path fill="#a1b2c0" d="M57.83 30.001s1.377 5.003 5.697 5.077c4.32.073 5.948-3.138 6.373-5.045l-4.744-2.303z"/></g><g><path fill="#8ea3aa" d="M65.137 27.933l4.524 2.197c-.267 1.061-1.52 4.756-5.99 4.756l-.142-.002c-3.668-.062-5.158-3.907-5.444-4.765zm-1.47 7.333c3.886 0 5.873-2.673 6.436-5.198l.03-.14-4.96-2.408-7.593 2.354.047.169c.014.053 1.466 5.146 5.895 5.221z"/></g><g><path fill="#a1b2c0" d="M-8.55 26.32s1.376 5.003 5.697 5.077c4.32.073 5.948-3.139 6.373-5.046l-4.745-2.301z"/></g><g><path fill="#8ea3aa" d="M-1.245 24.253l4.527 2.195c-.271 1.074-1.557 4.84-6.133 4.756-3.669-.063-5.159-3.907-5.445-4.765zm-1.468 7.332c3.887 0 5.873-2.673 6.435-5.198l.031-.14-4.962-2.407-7.591 2.353.047.17c.013.052 1.466 5.145 5.894 5.22z"/></g><g><path fill="#a1b2c0" d="M3.52 26.32s1.376 5.003 5.696 5.077c4.32.073 5.948-3.139 6.374-5.046l-4.745-2.301z"/></g><g><path fill="#8ea3aa" d="M10.825 24.253l4.527 2.195c-.27 1.062-1.521 4.758-5.993 4.758l-.14-.002c-3.668-.063-5.158-3.907-5.446-4.765zm-1.468 7.332c3.887 0 5.873-2.673 6.435-5.198l.032-.14-4.963-2.407-7.591 2.353.047.17c.013.052 1.466 5.145 5.894 5.22z"/></g><g><path fill="#a1b2c0" d="M15.59 26.32s1.376 5.003 5.696 5.077c4.32.073 5.948-3.139 6.374-5.046l-4.745-2.301z"/></g><g><path fill="#8ea3aa" d="M22.896 24.253l4.525 2.195c-.267 1.062-1.52 4.758-5.992 4.758l-.14-.002c-3.668-.063-5.159-3.907-5.446-4.765zm-1.469 7.332c3.888 0 5.874-2.673 6.435-5.198l.031-.14-4.96-2.407-7.593 2.353.046.17c.014.052 1.467 5.145 5.895 5.22z"/></g><g><path fill="#a1b2c0" d="M27.66 26.32s1.376 5.003 5.696 5.077c4.32.073 5.949-3.139 6.374-5.046l-4.745-2.301z"/></g><g><path fill="#8ea3aa" d="M34.967 24.253l4.525 2.195c-.267 1.062-1.52 4.758-5.993 4.758l-.14-.002c-3.667-.063-5.158-3.907-5.445-4.765zm-1.469 7.332c3.888 0 5.873-2.673 6.434-5.198l.032-.14-4.962-2.407-7.592 2.353.048.17c.013.052 1.465 5.145 5.893 5.22z"/></g><g><path fill="#a1b2c0" d="M39.73 26.32s1.376 5.003 5.696 5.077c4.32.073 5.949-3.139 6.374-5.046l-4.745-2.301z"/></g><g><path fill="#8ea3aa" d="M47.037 24.253l4.525 2.195c-.267 1.062-1.52 4.758-5.993 4.758l-.14-.002c-3.667-.063-5.158-3.907-5.445-4.765zm-1.47 7.332c3.889 0 5.874-2.673 6.436-5.198l.032-.14-4.963-2.407-7.592 2.353.047.17c.013.052 1.466 5.145 5.894 5.22z"/></g><g><path fill="#a1b2c0" d="M51.8 26.32s1.376 5.003 5.696 5.077c4.32.073 5.949-3.139 6.374-5.046l-4.746-2.301z"/></g><g><path fill="#8ea3aa" d="M59.108 24.253l4.525 2.195c-.268 1.062-1.52 4.758-5.993 4.758l-.14-.002c-3.667-.063-5.158-3.907-5.446-4.765zm-1.47 7.332c3.887 0 5.873-2.673 6.437-5.198l.03-.14-4.962-2.407-7.593 2.353.048.17c.014.052 1.466 5.145 5.894 5.22z"/></g><g><path fill="#8ea3aa" d="M71.176 24.253l4.526 2.195c-.267 1.062-1.52 4.758-5.993 4.758l-.14-.002c-3.668-.063-5.157-3.907-5.445-4.765zm-1.469 7.332c3.887 0 5.873-2.673 6.436-5.198l.031-.14-4.962-2.407-7.592 2.353.048.17c.014.052 1.465 5.145 5.894 5.22z"/></g><g><path fill="#a1b2c0" d="M-2.52 22.65s1.377 5.004 5.696 5.077c4.32.073 5.949-3.138 6.373-5.045L4.806 20.38z"/></g><g><path fill="#8ea3aa" d="M4.787 20.583l4.525 2.196c-.27 1.073-1.565 4.828-6.132 4.756-3.668-.063-5.159-3.908-5.445-4.765zm-1.47 7.333c3.888 0 5.874-2.673 6.436-5.2l.031-.138-4.96-2.408-7.594 2.353.047.17c.015.052 1.467 5.145 5.895 5.221z"/></g><g><path fill="#a1b2c0" d="M9.55 22.65s1.376 5.004 5.696 5.077c4.32.073 5.949-3.138 6.374-5.045l-4.745-2.302z"/></g><g><path fill="#8ea3aa" d="M16.857 20.583l4.525 2.196c-.268 1.062-1.52 4.757-5.992 4.757l-.14-.001c-3.668-.063-5.159-3.908-5.445-4.765zm-1.469 7.333c3.886 0 5.872-2.673 6.435-5.2l.031-.138-4.96-2.408L9.3 22.523l.047.17c.014.052 1.467 5.145 5.894 5.221z"/></g><g><path fill="#a1b2c0" d="M21.62 22.65s1.376 5.004 5.696 5.077c4.32.073 5.949-3.138 6.374-5.045l-4.745-2.302z"/></g><g><path fill="#8ea3aa" d="M28.926 20.583l4.526 2.196c-.268 1.062-1.521 4.757-5.992 4.757l-.14-.001c-3.669-.063-5.158-3.908-5.445-4.765zm-1.468 7.333c3.886 0 5.872-2.673 6.435-5.2l.031-.138-4.962-2.408-7.592 2.353.048.17c.014.052 1.466 5.145 5.894 5.221z"/></g><g><path fill="#a1b2c0" d="M33.69 22.65s1.376 5.004 5.696 5.077c4.32.073 5.949-3.138 6.373-5.045l-4.744-2.302z"/></g><g><path fill="#8ea3aa" d="M40.995 20.583l4.526 2.196c-.268 1.062-1.521 4.757-5.992 4.757l-.14-.001c-3.669-.063-5.159-3.908-5.446-4.765zm-1.469 7.333c3.887 0 5.872-2.673 6.437-5.2l.03-.138-4.962-2.408-7.591 2.353.046.17c.014.052 1.466 5.145 5.894 5.221z"/></g><g><path fill="#a1b2c0" d="M45.76 22.65s1.377 5.004 5.696 5.077c4.32.073 5.948-3.138 6.373-5.045l-4.744-2.302z"/></g><g><path fill="#8ea3aa" d="M53.065 20.583l4.526 2.196c-.268 1.062-1.521 4.757-5.992 4.757l-.14-.001c-3.669-.063-5.159-3.908-5.446-4.765zm-1.469 7.333c3.887 0 5.873-2.673 6.437-5.2l.03-.138L53.1 20.17l-7.591 2.353.046.17c.014.052 1.466 5.145 5.895 5.221z"/></g><g><path fill="#a1b2c0" d="M57.83 22.65s1.377 5.004 5.697 5.077c4.32.073 5.948-3.138 6.373-5.045l-4.744-2.302z"/></g><g><path fill="#8ea3aa" d="M65.136 20.583l4.525 2.196c-.267 1.062-1.52 4.757-5.99 4.757l-.142-.001c-3.668-.063-5.158-3.908-5.444-4.765zm-1.469 7.333c3.886 0 5.873-2.673 6.436-5.2l.03-.138-4.96-2.408-7.593 2.353.047.17c.014.052 1.466 5.145 5.895 5.221z"/></g><g><path fill="#a1b2c0" d="M-8.55 18.97s1.376 5.003 5.697 5.077c4.32.073 5.948-3.138 6.373-5.046L-1.225 16.7z"/></g><g><path fill="#8ea3aa" d="M-1.245 16.903l4.527 2.195c-.271 1.074-1.557 4.85-6.133 4.755-3.669-.061-5.159-3.905-5.445-4.764zm-1.468 7.332c3.887 0 5.873-2.674 6.435-5.199l.031-.139-4.962-2.407-7.591 2.354.047.17c.013.051 1.466 5.144 5.894 5.22z"/></g><g><path fill="#a1b2c0" d="M3.52 18.97s1.376 5.003 5.696 5.077c4.32.073 5.948-3.138 6.374-5.046L10.845 16.7z"/></g><g><path fill="#8ea3aa" d="M10.825 16.903l4.527 2.195c-.27 1.063-1.521 4.757-5.993 4.757l-.14-.002c-3.668-.061-5.158-3.905-5.446-4.764zm-1.468 7.332c3.887 0 5.873-2.674 6.435-5.199l.032-.139-4.963-2.407-7.591 2.354.047.17c.013.051 1.466 5.144 5.894 5.22z"/></g><g><path fill="#a1b2c0" d="M15.59 18.97s1.376 5.003 5.696 5.077c4.32.073 5.948-3.138 6.374-5.046L22.915 16.7z"/></g><g><path fill="#8ea3aa" d="M22.896 16.903l4.525 2.195c-.267 1.063-1.52 4.757-5.992 4.757l-.14-.002c-3.668-.061-5.159-3.905-5.446-4.764zm-1.469 7.332c3.888 0 5.874-2.674 6.435-5.199l.031-.139-4.96-2.407-7.593 2.354.046.17c.014.051 1.467 5.144 5.895 5.22z"/></g><g><path fill="#a1b2c0" d="M27.66 18.97s1.376 5.003 5.696 5.077c4.32.073 5.949-3.138 6.374-5.046L34.985 16.7z"/></g><g><path fill="#8ea3aa" d="M34.967 16.903l4.525 2.195c-.267 1.063-1.52 4.757-5.993 4.757l-.14-.002c-3.667-.061-5.158-3.905-5.445-4.764zm-1.469 7.332c3.888 0 5.873-2.674 6.434-5.199l.032-.139-4.962-2.407-7.592 2.354.048.17c.013.051 1.465 5.144 5.893 5.22z"/></g><g><path fill="#a1b2c0" d="M39.73 18.97s1.376 5.003 5.696 5.077c4.32.073 5.949-3.138 6.374-5.046L47.055 16.7z"/></g><g><path fill="#8ea3aa" d="M47.037 16.903l4.525 2.195c-.267 1.063-1.52 4.757-5.993 4.757l-.14-.002c-3.667-.061-5.158-3.905-5.445-4.764zm-1.47 7.332c3.889 0 5.874-2.674 6.436-5.199l.032-.139-4.963-2.407-7.592 2.353.047.17c.013.052 1.466 5.145 5.894 5.22z"/></g><g><path fill="#a1b2c0" d="M51.8 18.97s1.376 5.003 5.696 5.077c4.32.073 5.949-3.138 6.374-5.046L59.124 16.7z"/></g><g><path fill="#8ea3aa" d="M59.108 16.903l4.525 2.195c-.268 1.063-1.52 4.757-5.993 4.757l-.14-.002c-3.667-.061-5.158-3.905-5.446-4.764zm-1.47 7.332c3.887 0 5.873-2.674 6.437-5.199l.03-.139-4.962-2.407-7.593 2.353.048.17c.014.052 1.466 5.145 5.894 5.22z"/></g><g><path fill="#8ea3aa" d="M71.176 16.903l4.526 2.195c-.267 1.063-1.52 4.757-5.993 4.757l-.14-.002c-3.668-.061-5.157-3.905-5.445-4.764zm-1.469 7.332c3.887 0 5.873-2.674 6.436-5.199l.031-.139-4.962-2.407-7.592 2.354.048.17c.014.051 1.465 5.144 5.894 5.22z"/></g><g><path fill="#a1b2c0" d="M-2.52 15.3s1.377 5.004 5.696 5.078c4.32.073 5.949-3.139 6.373-5.046L4.806 13.03z"/></g><g><path fill="#8ea3aa" d="M4.787 13.233l4.525 2.195c-.27 1.074-1.565 4.837-6.132 4.755-3.668-.061-5.159-3.906-5.445-4.765zm-1.47 7.331c3.888 0 5.874-2.673 6.436-5.198l.031-.139-4.96-2.407-7.594 2.353.047.17c.015.051 1.467 5.145 5.895 5.22z"/></g><g><path fill="#a1b2c0" d="M9.55 15.3s1.376 5.004 5.696 5.078c4.32.073 5.949-3.139 6.374-5.046l-4.745-2.302z"/></g><g><path fill="#8ea3aa" d="M16.857 13.233l4.525 2.195c-.268 1.063-1.52 4.757-5.992 4.757l-.14-.002c-3.668-.061-5.159-3.906-5.445-4.765zm-1.469 7.331c3.886 0 5.872-2.673 6.435-5.198l.031-.139-4.96-2.407L9.3 15.173l.047.17c.014.051 1.467 5.145 5.894 5.22z"/></g><g><path fill="#a1b2c0" d="M21.62 15.3s1.376 5.004 5.696 5.078c4.32.073 5.949-3.139 6.374-5.046l-4.745-2.302z"/></g><g><path fill="#8ea3aa" d="M28.926 13.233l4.526 2.195c-.268 1.063-1.521 4.757-5.992 4.757l-.14-.002c-3.669-.061-5.158-3.906-5.445-4.765zm-1.468 7.331c3.886 0 5.872-2.673 6.435-5.198l.031-.139-4.962-2.407-7.592 2.353.048.17c.014.051 1.466 5.145 5.894 5.22z"/></g><g><path fill="#a1b2c0" d="M33.69 15.3s1.376 5.004 5.696 5.078c4.32.073 5.949-3.139 6.373-5.046l-4.744-2.302z"/></g><g><path fill="#8ea3aa" d="M40.996 13.233l4.525 2.195c-.268 1.063-1.521 4.757-5.992 4.757l-.14-.002c-3.669-.061-5.159-3.906-5.446-4.765zm-1.47 7.331c3.887 0 5.872-2.673 6.437-5.198l.03-.139-4.962-2.407-7.591 2.353.046.17c.014.051 1.466 5.145 5.894 5.22z"/></g><g><path fill="#a1b2c0" d="M45.76 15.3s1.377 5.004 5.696 5.078c4.32.073 5.948-3.139 6.373-5.046l-4.744-2.302z"/></g><g><path fill="#8ea3aa" d="M53.066 13.233l4.525 2.195c-.268 1.063-1.521 4.757-5.992 4.757l-.14-.002c-3.669-.061-5.159-3.906-5.446-4.765zm-1.47 7.331c3.887 0 5.872-2.673 6.437-5.198l.03-.139L53.1 12.82l-7.591 2.353.046.17c.014.051 1.466 5.145 5.895 5.22z"/></g><g><path fill="#a1b2c0" d="M57.83 15.3s1.377 5.004 5.696 5.078c4.321.073 5.949-3.139 6.374-5.046l-4.744-2.302z"/></g><g><path fill="#8ea3aa" d="M65.137 13.233l4.524 2.195c-.267 1.063-1.52 4.757-5.99 4.757l-.142-.002c-3.668-.061-5.158-3.906-5.444-4.765zm-1.47 7.331c3.886 0 5.873-2.673 6.436-5.198l.03-.139-4.96-2.407-7.593 2.353.047.17c.014.051 1.466 5.145 5.895 5.22z"/></g><g><path fill="#a1b2c0" d="M-8.55 11.62s1.376 5.004 5.697 5.078c4.32.073 5.948-3.139 6.373-5.046L-1.225 9.35z"/></g><g><path fill="#8ea3aa" d="M-1.245 9.562l4.527 2.197c-.268 1.062-1.521 4.756-5.993 4.756l-.14-.002c-3.669-.062-5.159-3.905-5.445-4.764zm-1.468 7.332c3.887 0 5.874-2.673 6.435-5.198l.031-.139-4.962-2.407-7.591 2.354.047.169c.013.053 1.466 5.145 5.894 5.22z"/></g><g><path fill="#a1b2c0" d="M3.52 11.62s1.376 5.004 5.696 5.078c4.32.073 5.948-3.139 6.374-5.046L10.845 9.35z"/></g><g><path fill="#8ea3aa" d="M10.825 9.562l4.527 2.197c-.268 1.062-1.521 4.756-5.993 4.756l-.14-.002c-3.668-.062-5.158-3.905-5.446-4.764zm-1.468 7.332c3.888 0 5.873-2.673 6.435-5.198l.032-.139L10.86 9.15 3.27 11.504l.047.169c.013.053 1.466 5.145 5.894 5.22z"/></g><g><path fill="#a1b2c0" d="M15.59 11.62s1.376 5.004 5.696 5.078c4.32.073 5.948-3.139 6.374-5.046L22.915 9.35z"/></g><g><path fill="#8ea3aa" d="M22.896 9.562l4.525 2.197c-.267 1.062-1.518 4.756-5.992 4.756l-.14-.002c-3.668-.062-5.159-3.905-5.446-4.764zm-1.469 7.332c3.889 0 5.874-2.673 6.435-5.198l.031-.139-4.96-2.407-7.593 2.354.046.169c.014.053 1.467 5.145 5.895 5.22z"/></g><g><path fill="#a1b2c0" d="M27.66 11.62s1.376 5.004 5.696 5.078c4.32.073 5.949-3.139 6.374-5.046L34.985 9.35z"/></g><g><path fill="#8ea3aa" d="M34.967 9.562l4.525 2.197c-.267 1.062-1.518 4.756-5.993 4.756l-.14-.002c-3.667-.062-5.158-3.905-5.445-4.764zm-1.469 7.332c3.889 0 5.873-2.673 6.434-5.198l.032-.139-4.962-2.407-7.592 2.354.048.169c.013.053 1.465 5.145 5.893 5.22z"/></g><g><path fill="#a1b2c0" d="M39.73 11.62s1.376 5.004 5.696 5.078c4.32.073 5.949-3.139 6.374-5.046L47.055 9.35z"/></g><g><path fill="#8ea3aa" d="M47.037 9.562l4.525 2.197c-.267 1.062-1.518 4.756-5.993 4.756l-.14-.002c-3.667-.062-5.158-3.905-5.445-4.764zm-1.47 7.332c3.889 0 5.874-2.673 6.436-5.198l.031-.139-4.962-2.407-7.592 2.354.047.169c.014.053 1.466 5.145 5.894 5.22z"/></g><g><path fill="#a1b2c0" d="M51.8 11.62s1.376 5.004 5.696 5.078c4.32.073 5.949-3.139 6.374-5.046L59.124 9.35z"/></g><g><path fill="#8ea3aa" d="M59.108 9.562l4.525 2.197c-.267 1.062-1.52 4.756-5.993 4.756l-.14-.002c-3.667-.062-5.158-3.905-5.446-4.764zm-1.47 7.332c3.887 0 5.874-2.673 6.437-5.198l.03-.139-4.962-2.407-7.593 2.354.048.169c.014.053 1.466 5.145 5.894 5.22z"/></g><g><path fill="#8ea3aa" d="M71.176 9.562l4.526 2.197c-.267 1.062-1.52 4.756-5.993 4.756l-.14-.002c-3.668-.062-5.157-3.905-5.445-4.764zm-1.468 7.332c3.887 0 5.873-2.673 6.435-5.198l.031-.139-4.962-2.407-7.592 2.354.048.169c.014.053 1.465 5.145 5.894 5.22z"/></g><g><path fill="#a1b2c0" d="M-2.52 7.95s1.377 5.004 5.696 5.077c4.32.073 5.949-3.138 6.373-5.045L4.806 5.68z"/></g><g><path fill="#8ea3aa" d="M4.787 5.882L9.312 8.08c-.27 1.073-1.565 4.846-6.132 4.754-3.668-.062-5.159-3.907-5.445-4.765zm-1.47 7.333c3.888 0 5.874-2.673 6.436-5.2l.031-.139-4.96-2.406-7.594 2.353.047.169c.015.053 1.467 5.146 5.895 5.222z"/></g><g><path fill="#a1b2c0" d="M9.55 7.95s1.376 5.004 5.696 5.077c4.32.073 5.949-3.138 6.374-5.045L16.875 5.68z"/></g><g><path fill="#8ea3aa" d="M16.857 5.882l4.525 2.197c-.271 1.073-1.567 4.824-6.133 4.754-3.667-.062-5.158-3.907-5.444-4.765zm-1.469 7.333c3.886 0 5.872-2.673 6.435-5.2l.031-.139-4.96-2.406L9.3 7.823l.047.169c.014.053 1.467 5.146 5.894 5.222z"/></g><g><path fill="#a1b2c0" d="M21.62 7.95s1.376 5.004 5.696 5.077c4.32.073 5.949-3.138 6.374-5.045L28.945 5.68z"/></g><g><path fill="#8ea3aa" d="M28.926 5.882l4.526 2.197c-.268 1.061-1.521 4.756-5.992 4.756l-.14-.002c-3.669-.062-5.158-3.907-5.445-4.765zm-1.468 7.333c3.886 0 5.872-2.673 6.435-5.2l.031-.139-4.962-2.406-7.592 2.353.048.169c.014.053 1.466 5.146 5.894 5.222z"/></g><g><path fill="#a1b2c0" d="M33.69 7.95s1.376 5.004 5.696 5.077c4.32.073 5.949-3.138 6.373-5.045L41.015 5.68z"/></g><g><path fill="#8ea3aa" d="M40.996 5.882L45.52 8.08c-.268 1.061-1.521 4.756-5.992 4.756l-.14-.002c-3.669-.062-5.159-3.907-5.446-4.765zm-1.47 7.333c3.887 0 5.872-2.673 6.437-5.2l.03-.139-4.962-2.406-7.591 2.353.046.169c.014.053 1.466 5.146 5.894 5.222z"/></g><g><path fill="#a1b2c0" d="M45.76 7.95s1.377 5.004 5.696 5.077c4.32.073 5.948-3.138 6.373-5.045L53.085 5.68z"/></g><g><path fill="#8ea3aa" d="M53.066 5.882L57.59 8.08c-.268 1.061-1.521 4.756-5.992 4.756l-.14-.002c-3.669-.062-5.159-3.907-5.446-4.765zm-1.47 7.333c3.887 0 5.872-2.673 6.437-5.2l.03-.139L53.1 5.47 45.51 7.823l.046.169c.014.053 1.466 5.146 5.895 5.222z"/></g><g><path fill="#a1b2c0" d="M57.83 7.95s1.377 5.004 5.696 5.077c4.321.073 5.949-3.138 6.374-5.045L65.156 5.68z"/></g><g><path fill="#8ea3aa" d="M65.137 5.882L69.66 8.08c-.267 1.061-1.52 4.756-5.99 4.756l-.142-.002c-3.668-.062-5.158-3.907-5.444-4.765zm-1.47 7.333c3.886 0 5.873-2.673 6.436-5.2l.03-.139-4.96-2.406-7.593 2.353.047.169c.014.053 1.466 5.146 5.895 5.222z"/></g><g><path fill="#a1b2c0" d="M-8.55 4.281s1.376 5.003 5.697 5.077c4.32.073 5.948-3.139 6.373-5.045L-1.225 2.01z"/></g><g><path fill="#8ea3aa" d="M-1.245 2.212l4.527 2.196c-.271 1.074-1.536 4.82-6.133 4.755-3.669-.062-5.159-3.906-5.445-4.764zm-1.468 7.333c3.887 0 5.874-2.673 6.435-5.198l.031-.14L-1.209 1.8-8.8 4.153l.047.17c.013.052 1.466 5.145 5.894 5.22z"/></g><g><path fill="#a1b2c0" d="M3.52 4.281s1.376 5.003 5.696 5.077c4.32.073 5.948-3.139 6.374-5.045L10.845 2.01z"/></g><g><path fill="#8ea3aa" d="M10.825 2.212l4.527 2.196c-.271 1.074-1.556 4.82-6.133 4.755C5.55 9.101 4.06 5.257 3.774 4.399zM9.357 9.545c3.888 0 5.873-2.673 6.435-5.198l.032-.14L10.86 1.8 3.27 4.153l.047.17c.013.052 1.466 5.145 5.894 5.22z"/></g><g><path fill="#a1b2c0" d="M15.59 4.281s1.376 5.003 5.696 5.077c4.32.073 5.948-3.139 6.374-5.045L22.915 2.01z"/></g><g><path fill="#8ea3aa" d="M22.896 2.212l4.525 2.196c-.267 1.062-1.518 4.757-5.992 4.757l-.14-.002c-3.668-.062-5.159-3.906-5.446-4.764zm-1.469 7.333c3.889 0 5.874-2.673 6.435-5.198l.031-.14-4.96-2.407-7.593 2.353.046.17c.014.052 1.467 5.145 5.895 5.22z"/></g><g><path fill="#a1b2c0" d="M27.66 4.281s1.376 5.003 5.696 5.077c4.32.073 5.949-3.139 6.374-5.045L34.985 2.01z"/></g><g><path fill="#8ea3aa" d="M34.967 2.212l4.525 2.196c-.267 1.062-1.518 4.757-5.993 4.757l-.14-.002c-3.667-.062-5.158-3.906-5.445-4.764zm-1.469 7.333c3.889 0 5.873-2.673 6.434-5.198l.032-.14L35.002 1.8 27.41 4.153l.048.17c.013.052 1.465 5.145 5.893 5.22z"/></g><g><path fill="#a1b2c0" d="M39.73 4.281s1.376 5.003 5.696 5.077c4.32.073 5.949-3.139 6.374-5.045L47.055 2.01z"/></g><g><path fill="#8ea3aa" d="M47.037 2.212l4.525 2.196c-.267 1.062-1.518 4.757-5.993 4.757l-.14-.002c-3.667-.062-5.158-3.906-5.445-4.764zm-1.47 7.333c3.889 0 5.874-2.673 6.436-5.198l.031-.14L47.073 1.8 39.48 4.153l.047.17c.014.052 1.466 5.145 5.894 5.22z"/></g><g><path fill="#a1b2c0" d="M51.8 4.281s1.376 5.003 5.696 5.077c4.32.073 5.949-3.139 6.374-5.045L59.124 2.01z"/></g><g><path fill="#8ea3aa" d="M59.108 2.212l4.525 2.196c-.267 1.062-1.52 4.757-5.993 4.757l-.14-.002c-3.667-.062-5.158-3.906-5.446-4.764zm-1.47 7.333c3.887 0 5.874-2.673 6.437-5.198l.03-.14L59.143 1.8 51.55 4.153l.048.17c.014.052 1.466 5.145 5.894 5.22z"/></g><g><path fill="#8ea3aa" d="M71.176 2.212l4.526 2.196c-.267 1.062-1.52 4.757-5.993 4.757l-.14-.002c-3.668-.062-5.157-3.906-5.445-4.764zm-1.468 7.333c3.887 0 5.873-2.673 6.435-5.198l.031-.14L71.212 1.8 63.62 4.153l.048.17c.014.052 1.465 5.145 5.894 5.22z"/></g><g><path fill="#a1b2c0" d="M-2.52.601s1.377 5.003 5.696 5.077C7.496 5.75 9.125 2.539 9.55.633L4.806-1.67z"/></g><g><path fill="#8ea3aa" d="M4.787-1.466L9.312.729c-.267 1.062-1.52 4.756-5.993 4.756l-.14-.001C-.487 5.42-1.978 1.577-2.264.719zm-1.47 7.332c3.888 0 5.874-2.673 6.436-5.198l.031-.14-4.96-2.408L-2.77.473l.047.17c.015.052 1.467 5.145 5.895 5.221z"/></g><g><path fill="#a1b2c0" d="M9.55.601s1.376 5.003 5.696 5.077c4.32.073 5.949-3.139 6.374-5.045L16.875-1.67z"/></g><g><path fill="#8ea3aa" d="M16.857-1.466L21.382.729c-.271 1.073-1.567 4.835-6.133 4.755-3.667-.063-5.158-3.907-5.444-4.765zm-1.469 7.332c3.886 0 5.872-2.673 6.435-5.198l.031-.14-4.96-2.408L9.3.473l.047.17c.014.052 1.467 5.145 5.894 5.221z"/></g><g><path fill="#a1b2c0" d="M21.62.601s1.376 5.003 5.696 5.077c4.32.073 5.949-3.139 6.374-5.045L28.945-1.67z"/></g><g><path fill="#8ea3aa" d="M28.926-1.466L33.452.729c-.268 1.062-1.521 4.756-5.992 4.756l-.14-.001C23.65 5.42 22.162 1.577 21.875.719zm-1.468 7.332c3.886 0 5.872-2.673 6.435-5.198l.031-.14-4.962-2.408L21.37.473l.048.17c.014.052 1.466 5.145 5.894 5.221z"/></g><g><path fill="#a1b2c0" d="M33.69.601s1.376 5.003 5.696 5.077c4.32.073 5.949-3.139 6.373-5.045L41.015-1.67z"/></g><g><path fill="#8ea3aa" d="M40.996-1.466L45.52.729C45.253 1.791 44 5.485 39.529 5.485l-.14-.001C35.72 5.42 34.23 1.577 33.943.719zm-1.47 7.332c3.887 0 5.872-2.673 6.437-5.198l.03-.14-4.962-2.408L33.44.473l.046.17c.014.052 1.466 5.145 5.894 5.221z"/></g><g><path fill="#a1b2c0" d="M45.76.601s1.377 5.003 5.696 5.077c4.32.073 5.948-3.139 6.373-5.045L53.085-1.67z"/></g><g><path fill="#8ea3aa" d="M53.066-1.466L57.59.729c-.268 1.062-1.521 4.756-5.992 4.756l-.14-.001C47.79 5.42 46.3 1.577 46.013.719zm-1.47 7.332c3.887 0 5.872-2.673 6.437-5.198l.03-.14L53.1-1.88 45.51.473l.046.17c.014.052 1.466 5.145 5.895 5.221z"/></g><g><path fill="#a1b2c0" d="M57.83.601s1.377 5.003 5.696 5.077c4.321.073 5.949-3.139 6.374-5.045L65.156-1.67z"/></g><g><path fill="#8ea3aa" d="M65.137-1.466L69.66.729c-.267 1.062-1.52 4.756-5.99 4.756l-.142-.001c-3.668-.063-5.158-3.907-5.444-4.765zm-1.47 7.332c3.886 0 5.873-2.673 6.436-5.198l.03-.14-4.96-2.408L57.58.473l.047.17c.014.052 1.466 5.145 5.895 5.221z"/></g><g><path fill="#a1b2c0" d="M-8.55-3.069s1.376 5.003 5.697 5.077c4.32.073 5.948-3.139 6.373-5.046L-1.225-5.34z"/></g><g><path fill="#8ea3aa" d="M-1.245-5.136L3.282-2.94c-.271 1.073-1.54 4.846-6.133 4.755C-6.52 1.752-8.01-2.093-8.296-2.95zm-1.469 7.333c3.887 0 5.874-2.674 6.436-5.2l.031-.138-4.962-2.409L-8.8-3.196l.047.17c.013.052 1.466 5.145 5.895 5.221z"/></g><g><path fill="#a1b2c0" d="M3.52-3.069s1.376 5.003 5.696 5.077c4.32.073 5.948-3.139 6.374-5.046L10.845-5.34z"/></g><g><path fill="#8ea3aa" d="M10.825-5.136l4.527 2.196c-.271 1.073-1.544 4.846-6.133 4.755-3.668-.063-5.158-3.908-5.446-4.765zm-1.47 7.333c3.889 0 5.875-2.674 6.437-5.2l.031-.138-4.962-2.409L3.27-3.196l.047.17c.013.052 1.466 5.145 5.894 5.221z"/></g><g><path fill="#a1b2c0" d="M15.59-3.069s1.376 5.003 5.696 5.077c4.32.073 5.948-3.139 6.374-5.046L22.915-5.34z"/></g><g><path fill="#8ea3aa" d="M22.896-5.136L27.42-2.94c-.267 1.062-1.52 4.756-5.994 4.756l-.138-.001c-3.668-.063-5.159-3.908-5.446-4.765zm-1.47 7.333c3.889 0 5.875-2.674 6.436-5.2l.031-.138-4.96-2.409-7.593 2.354.046.17c.014.052 1.467 5.145 5.895 5.221z"/></g><g><path fill="#a1b2c0" d="M27.66-3.069s1.376 5.003 5.696 5.077c4.32.073 5.949-3.139 6.374-5.046L34.985-5.34z"/></g><g><path fill="#8ea3aa" d="M34.967-5.136l4.525 2.196c-.267 1.062-1.52 4.756-5.994 4.756l-.139-.001c-3.667-.063-5.158-3.908-5.445-4.765zm-1.47 7.333c3.889 0 5.874-2.674 6.435-5.2l.032-.138-4.962-2.409-7.592 2.354.048.17c.013.052 1.465 5.145 5.893 5.221z"/></g><g><path fill="#a1b2c0" d="M39.73-3.069s1.376 5.003 5.696 5.077c4.32.073 5.949-3.139 6.374-5.046L47.055-5.34z"/></g><g><path fill="#8ea3aa" d="M47.037-5.136l4.525 2.196c-.267 1.062-1.52 4.756-5.995 4.756l-.137-.001c-3.668-.063-5.159-3.908-5.446-4.765zm-1.47 7.333c3.889 0 5.874-2.674 6.436-5.2l.031-.138-4.962-2.409-7.592 2.354.047.17c.014.052 1.466 5.145 5.894 5.221z"/></g><g><path fill="#a1b2c0" d="M51.8-3.069s1.376 5.003 5.696 5.077c4.32.073 5.949-3.139 6.374-5.046L59.124-5.34z"/></g><g><path fill="#8ea3aa" d="M59.108-5.136l4.525 2.196c-.27 1.072-1.529 4.834-6.133 4.755-3.667-.063-5.158-3.908-5.446-4.765zm-1.472 7.333c3.889 0 5.876-2.674 6.44-5.2l.03-.138-4.963-2.409-7.593 2.354.048.17c.014.052 1.466 5.145 5.894 5.221z"/></g><g><path fill="#8ea3aa" d="M71.176-5.136l4.526 2.196c-.267 1.062-1.52 4.756-5.994 4.756l-.139-.001c-3.668-.063-5.157-3.908-5.445-4.765zm-1.47 7.333c3.888 0 5.875-2.674 6.437-5.2l.031-.138-4.962-2.409-7.592 2.354.048.17c.014.052 1.465 5.145 5.894 5.221z"/></g></g><g clip-path="url(#clip-271:148)"><path fill="#d3dbe3" d="M49.38 114.312h56.876V3.82H49.38z"/></g><g clip-path="url(#clip-271:148)"><path fill="#fff" d="M70.15 59.82h15.334V40.96H70.15z"/></g><g clip-path="url(#clip-271:148)"><path fill="#aab6c5" d="M77.39 60.407h.859V40.96h-.859z"/></g><g clip-path="url(#clip-271:148)"><path fill="#aab6c5" d="M70.15 48.023h15.334v-.783H70.15z"/></g><g clip-path="url(#clip-271:148)"><path fill="#aab6c5" d="M70.15 53.873h15.334v-.783H70.15z"/></g><g clip-path="url(#clip-271:148)"><path fill="#aab6c5" d="M68.53 40.96H87.1v-2.49H68.53z"/></g><g clip-path="url(#clip-271:148)"><path fill="#aab6c5" d="M68.53 61.66H87.1v-2.49H68.53z"/></g><g clip-path="url(#clip-271:148)"><path fill="#fff" d="M70.15 95.91h15.334V77.05H70.15z"/></g><g clip-path="url(#clip-271:148)"><path fill="#aab6c5" d="M77.39 96.498h.859V77.05h-.859z"/></g><g clip-path="url(#clip-271:148)"><path fill="#aab6c5" d="M70.15 84.113h15.334v-.783H70.15z"/></g><g clip-path="url(#clip-271:148)"><path fill="#aab6c5" d="M70.15 89.953h15.334v-.783H70.15z"/></g><g clip-path="url(#clip-271:148)"><path fill="#aab6c5" d="M68.53 77.05H87.1v-2.49H68.53z"/></g><g clip-path="url(#clip-271:148)"><path fill="#aab6c5" d="M68.53 97.74H87.1v-2.49H68.53z"/></g><g clip-path="url(#clip-271:148)"><path fill="#aab6c5" d="M49.38 114.316h56.876v-7.046H49.38z"/></g><g clip-path="url(#clip-271:148)"><path fill="#aab6c5" d="M100.06 35.907h6.19V32.95h-6.19z"/></g><g clip-path="url(#clip-271:148)"><path fill="#aab6c5" d="M96.97 39.717h6.19V36.76h-6.19z"/></g><g clip-path="url(#clip-271:148)"><path fill="#a2acb9" d="M43.32 88.827h5.003V85.87H43.32z"/></g><g clip-path="url(#clip-271:148)"><path fill="#aab6c5" d="M59.36 67.257h6.19V64.3h-6.19z"/></g><g clip-path="url(#clip-271:148)"><path fill="#aab6c5" d="M102.88 93.477h3.372V90.52h-3.372z"/></g><g clip-path="url(#clip-271:148)"><path fill="#97a1ad" d="M107.268 79.713a648.626 648.626 0 0 1-1.078 34.582c1.077.087 2.188-.204 3.048-.802a107.37 107.37 0 0 1 .743-38.523"/></g><g clip-path="url(#clip-271:148)"><path fill="#97a1ad" d="M107.418 79.708c-1.177 5.354-.319 11.054-.606 16.484-.32 6.036-.756 12.076-1.181 18.109-.02.266.301.513.623.505 1.488-.038 2.461-.26 3.753-.852.183-.083.345-.278.322-.455-.824-6.388-1.244-12.867-1.121-19.289.062-3.225.292-6.448.682-9.656.385-3.177 1.46-6.395 1.167-9.578-.036-.39-.77-.657-1.012-.222-2.628 4.705-2.554 11.14-2.845 16.232-.343 5.988-.16 11.965.89 17.901.084.474 1.174 5.341-1.12 3.767-.55-.376.23-4.423.252-4.936.155-3.295.234-6.583.258-9.88.042-5.923 1.241-12.275.034-18.13z"/></g><g clip-path="url(#clip-271:148)"><path fill="#97a1ad" d="M107.95 90.9c2.658-2.25 4.64-5.16 5.671-8.333.068-.207.148-.436.353-.549.316-.172.748.063.872.38.123.317.03.665-.072.989-1.12 3.544-3.309 6.8-6.26 9.32"/></g><g clip-path="url(#clip-271:148)"><path fill="#97a1ad" d="M102.659 79.708c-.336 4.045 1.52 7.661 4.958 10.212.607.451 1.483-.329.87-.793-3.082-2.338-4.836-5.777-5.037-9.42-.026-.466-.753-.46-.791 0z"/></g><g clip-path="url(#clip-271:148)"><path fill="#ffc300" d="M91.295 80.606c1.019 6.88 11.217 11.483 15.39 4.739.398.193.808.364 1.23.512 1.562.635 3.15 1.07 4.863 1.229 2.375.218 4.793-.023 6.98-.946 3.804-1.604 6.075-4.822 6.41-8.362 2.792-.31 5.085-2.55 4.583-5.653-.188-1.164-.683-2.113-1.373-2.848 1.587-3.262-.758-7.251-5.433-7.525.001-7.678-10.615-10.03-14.571-3.689-2.685-2.375-6.435-3.38-10.154-1.653-2.278 1.058-3.88 2.841-4.313 5.148-.209 1.111.147 2.16.15 3.214a5.018 5.018 0 0 0-.512-.066c-10.1-.79-12.573 14.365-3.25 15.9z"/></g></g><g><g><path fill="#c5cdd7" d="M50.25 113.676h62.717V17.89H50.25z"/></g><g><path fill="#fff" d="M66.89 70.169h15.334V51.31H66.89z"/></g><g><path fill="#a2acb9" d="M74.13 70.757h.859V51.31h-.859z"/></g><g><path fill="#a2acb9" d="M66.89 58.374h15.334v-.784H66.89z"/></g><g><path fill="#a2acb9" d="M66.89 64.213h15.334v-.783H66.89z"/></g><g><path fill="#a2acb9" d="M65.27 51.311h18.57V48.82H65.27z"/></g><g><path fill="#a2acb9" d="M65.27 72h18.57v-2.49H65.27z"/></g><g><path fill="#e8b202" d="M65.91 109.797h17.3V81.62h-17.3z"/></g><g><path fill="#ffc300" d="M66.94 109.031h15.245V82.52H66.94z"/></g><g><path fill="#aab6c5" d="M58.49 111.259h29.906V109.8H58.49z"/></g><g><path fill="#aab6c5" d="M58.49 115h29.906v-3.75H58.49z"/></g><g><path fill="#a2acb9" d="M58.49 115.004h29.906v-.834H58.49z"/></g><g><path fill="#a2acb9" d="M50.25 48.347h2.518V45.39H50.25z"/></g><g><path fill="#a2acb9" d="M51.57 51.547h5.318V48.59H51.57z"/></g><g><path fill="#8ea3aa" d="M99.85 33.22s1.146 2.997 4.325 3.045c3.181.048 4.38-1.81 4.693-3.046l-3.493-1.709z"/></g><g><g><path fill="#fff" d="M45.74 33.22h63.123L105.758.8H48.882z"/></g></g><g clip-path="url(#clip-271:330)"><g><path fill="#a1b2c0" d="M45.74 33.22h63.123L105.758.8H48.882z"/></g><g><path fill="#a1b2c0" d="M36.45 33.671s1.376 5.003 5.697 5.077c4.32.073 5.948-3.139 6.373-5.045L43.775 31.4z"/></g><g><path fill="#8ea3aa" d="M43.755 31.603l4.527 2.196c-.271 1.073-1.557 4.83-6.133 4.754-3.669-.063-5.159-3.906-5.445-4.765zm-1.468 7.332c3.887 0 5.873-2.673 6.435-5.198l.031-.139-4.962-2.408-7.591 2.353.047.17c.013.052 1.466 5.145 5.894 5.221z"/></g><g><path fill="#a1b2c0" d="M48.52 33.671s1.376 5.003 5.696 5.077c4.32.073 5.948-3.139 6.374-5.045L55.845 31.4z"/></g><g><path fill="#8ea3aa" d="M55.825 31.603l4.527 2.196c-.27 1.062-1.521 4.756-5.993 4.756l-.14-.002c-3.668-.063-5.158-3.906-5.445-4.765zm-1.468 7.332c3.887 0 5.873-2.673 6.435-5.198l.031-.139-4.962-2.408-7.591 2.353.047.17c.013.052 1.466 5.145 5.894 5.221z"/></g><g><path fill="#a1b2c0" d="M60.59 33.671s1.376 5.003 5.696 5.077c4.32.073 5.948-3.139 6.374-5.045L67.915 31.4z"/></g><g><path fill="#8ea3aa" d="M67.896 31.603l4.525 2.196c-.267 1.062-1.52 4.756-5.992 4.756l-.14-.002c-3.668-.063-5.159-3.906-5.445-4.765zm-1.469 7.332c3.888 0 5.874-2.673 6.434-5.198l.032-.139-4.96-2.408-7.593 2.353.046.17c.014.052 1.467 5.145 5.895 5.221z"/></g><g><path fill="#a1b2c0" d="M72.66 33.671s1.376 5.003 5.696 5.077c4.32.073 5.949-3.139 6.374-5.045L79.985 31.4z"/></g><g><path fill="#8ea3aa" d="M79.967 31.603l4.525 2.196c-.268 1.062-1.52 4.756-5.993 4.756l-.14-.002c-3.667-.063-5.158-3.906-5.445-4.765zm-1.469 7.332c3.888 0 5.873-2.673 6.434-5.198l.032-.139-4.962-2.408-7.592 2.353.048.17c.013.052 1.465 5.145 5.893 5.221z"/></g><g><path fill="#a1b2c0" d="M84.73 33.671s1.376 5.003 5.696 5.077c4.32.073 5.949-3.139 6.374-5.045L92.055 31.4z"/></g><g><path fill="#8ea3aa" d="M92.037 31.603l4.525 2.196c-.267 1.062-1.52 4.756-5.993 4.756l-.14-.002c-3.667-.063-5.158-3.906-5.445-4.765zm-1.47 7.332c3.889 0 5.874-2.673 6.436-5.198l.031-.139-4.962-2.408-7.592 2.353.047.17c.014.052 1.466 5.145 5.894 5.221z"/></g><g><path fill="#a1b2c0" d="M96.8 33.671s1.376 5.003 5.696 5.077c4.32.073 5.949-3.139 6.374-5.045l-4.746-2.303z"/></g><g><path fill="#8ea3aa" d="M104.108 31.603l4.525 2.196c-.268 1.062-1.52 4.756-5.993 4.756l-.14-.002c-3.667-.063-5.158-3.906-5.446-4.765zm-1.47 7.332c3.887 0 5.873-2.673 6.437-5.198l.03-.139-4.962-2.408-7.593 2.353.048.17c.014.052 1.466 5.145 5.894 5.221z"/></g><g><path fill="#8ea3aa" d="M116.176 31.603l4.526 2.196c-.267 1.062-1.52 4.756-5.993 4.756l-.14-.002c-3.668-.063-5.157-3.906-5.445-4.765zm-1.469 7.332c3.887 0 5.873-2.673 6.436-5.198l.031-.139-4.962-2.408-7.592 2.353.048.17c.014.052 1.465 5.145 5.894 5.221z"/></g><g><path fill="#a1b2c0" d="M42.48 30.001s1.377 5.003 5.696 5.077c4.32.073 5.949-3.138 6.373-5.045l-4.744-2.303z"/></g><g><path fill="#8ea3aa" d="M49.787 27.933l4.525 2.197c-.267 1.061-1.52 4.756-5.993 4.756l-.14-.001c-3.667-.063-5.158-3.908-5.444-4.766zm-1.47 7.333c3.888 0 5.874-2.673 6.436-5.198l.031-.14-4.96-2.408-7.594 2.354.047.169c.015.053 1.467 5.146 5.895 5.221z"/></g><g><path fill="#a1b2c0" d="M54.55 30.001s1.376 5.003 5.696 5.077c4.32.073 5.949-3.138 6.373-5.045l-4.744-2.303z"/></g><g><path fill="#8ea3aa" d="M61.857 27.933l4.525 2.197c-.271 1.073-1.567 4.827-6.133 4.755-3.667-.063-5.158-3.908-5.444-4.766zm-1.469 7.333c3.886 0 5.872-2.673 6.435-5.198l.031-.14-4.96-2.408-7.594 2.354.047.169c.014.053 1.467 5.146 5.894 5.221z"/></g><g><path fill="#a1b2c0" d="M66.62 30.001s1.376 5.003 5.696 5.077c4.32.073 5.949-3.138 6.373-5.045l-4.744-2.303z"/></g><g><path fill="#8ea3aa" d="M73.926 27.933l4.526 2.197c-.268 1.061-1.521 4.756-5.992 4.756l-.14-.001c-3.669-.063-5.158-3.908-5.445-4.766zm-1.467 7.333c3.885 0 5.871-2.673 6.434-5.198l.031-.14-4.962-2.408-7.592 2.354.048.169c.014.053 1.466 5.146 5.894 5.221z"/></g><g><path fill="#a1b2c0" d="M78.69 30.001s1.376 5.003 5.696 5.077c4.32.073 5.949-3.138 6.374-5.045l-4.745-2.303z"/></g><g><path fill="#8ea3aa" d="M85.996 27.933l4.525 2.197c-.268 1.061-1.521 4.756-5.992 4.756l-.14-.001c-3.669-.063-5.159-3.908-5.446-4.766zm-1.469 7.333c3.886 0 5.871-2.673 6.436-5.198l.03-.14-4.962-2.408-7.591 2.354.046.169c.014.053 1.466 5.146 5.894 5.221z"/></g><g><path fill="#a1b2c0" d="M90.76 30.001s1.377 5.003 5.696 5.077c4.32.073 5.948-3.138 6.373-5.045l-4.744-2.303z"/></g><g><path fill="#8ea3aa" d="M98.066 27.933l4.525 2.197c-.268 1.061-1.521 4.756-5.992 4.756l-.14-.002c-3.669-.062-5.159-3.907-5.445-4.765zm-1.47 7.333c3.887 0 5.873-2.673 6.437-5.198l.03-.14L98.1 27.52l-7.591 2.354.046.169c.014.053 1.466 5.146 5.895 5.221z"/></g><g><path fill="#a1b2c0" d="M102.83 30.001s1.377 5.003 5.697 5.077c4.32.073 5.948-3.138 6.373-5.045l-4.744-2.303z"/></g><g><path fill="#8ea3aa" d="M110.137 27.933l4.524 2.197c-.267 1.061-1.52 4.756-5.99 4.756l-.142-.002c-3.668-.062-5.158-3.907-5.444-4.765zm-1.47 7.333c3.886 0 5.873-2.673 6.436-5.198l.03-.14-4.96-2.408-7.593 2.354.047.169c.014.053 1.466 5.146 5.895 5.221z"/></g><g><path fill="#a1b2c0" d="M36.45 26.32s1.376 5.003 5.697 5.077c4.32.073 5.948-3.139 6.373-5.046l-4.745-2.301z"/></g><g><path fill="#8ea3aa" d="M43.755 24.253l4.527 2.195c-.271 1.074-1.557 4.84-6.133 4.756-3.669-.063-5.159-3.907-5.445-4.765zm-1.468 7.332c3.887 0 5.873-2.673 6.435-5.198l.031-.14-4.962-2.407-7.591 2.353.047.17c.013.052 1.466 5.145 5.894 5.22z"/></g><g><path fill="#a1b2c0" d="M48.52 26.32s1.376 5.003 5.696 5.077c4.32.073 5.948-3.139 6.374-5.046l-4.745-2.301z"/></g><g><path fill="#8ea3aa" d="M55.825 24.253l4.527 2.195c-.27 1.062-1.521 4.758-5.993 4.758l-.14-.002c-3.668-.063-5.158-3.907-5.445-4.765zm-1.468 7.332c3.887 0 5.873-2.673 6.435-5.198l.031-.14-4.962-2.407-7.591 2.353.047.17c.013.052 1.466 5.145 5.894 5.22z"/></g><g><path fill="#a1b2c0" d="M60.59 26.32s1.376 5.003 5.696 5.077c4.32.073 5.948-3.139 6.374-5.046l-4.745-2.301z"/></g><g><path fill="#8ea3aa" d="M67.896 24.253l4.525 2.195c-.267 1.062-1.52 4.758-5.992 4.758l-.14-.002c-3.668-.063-5.159-3.907-5.445-4.765zm-1.469 7.332c3.888 0 5.874-2.673 6.434-5.198l.032-.14-4.96-2.407-7.593 2.353.046.17c.014.052 1.467 5.145 5.895 5.22z"/></g><g><path fill="#a1b2c0" d="M72.66 26.32s1.376 5.003 5.696 5.077c4.32.073 5.949-3.139 6.374-5.046l-4.745-2.301z"/></g><g><path fill="#8ea3aa" d="M79.967 24.253l4.525 2.195c-.268 1.062-1.52 4.758-5.993 4.758l-.14-.002c-3.667-.063-5.158-3.907-5.445-4.765zm-1.469 7.332c3.888 0 5.873-2.673 6.434-5.198l.032-.14-4.962-2.407-7.592 2.353.048.17c.013.052 1.465 5.145 5.893 5.22z"/></g><g><path fill="#a1b2c0" d="M84.73 26.32s1.376 5.003 5.696 5.077c4.32.073 5.949-3.139 6.374-5.046l-4.745-2.301z"/></g><g><path fill="#8ea3aa" d="M92.037 24.253l4.525 2.195c-.267 1.062-1.52 4.758-5.993 4.758l-.14-.002c-3.667-.063-5.158-3.907-5.445-4.765zm-1.47 7.332c3.889 0 5.874-2.673 6.436-5.198l.032-.14-4.963-2.407-7.592 2.353.047.17c.013.052 1.466 5.145 5.894 5.22z"/></g><g><path fill="#a1b2c0" d="M96.8 26.32s1.376 5.003 5.696 5.077c4.32.073 5.949-3.139 6.374-5.046l-4.746-2.301z"/></g><g><path fill="#8ea3aa" d="M104.108 24.253l4.525 2.195c-.268 1.062-1.52 4.758-5.993 4.758l-.14-.002c-3.667-.063-5.158-3.907-5.446-4.765zm-1.47 7.332c3.887 0 5.873-2.673 6.437-5.198l.03-.14-4.962-2.407-7.593 2.353.048.17c.014.052 1.466 5.145 5.894 5.22z"/></g><g><path fill="#8ea3aa" d="M116.176 24.253l4.526 2.195c-.267 1.062-1.52 4.758-5.993 4.758l-.14-.002c-3.668-.063-5.157-3.907-5.445-4.765zm-1.469 7.332c3.887 0 5.873-2.673 6.436-5.198l.031-.14-4.962-2.407-7.592 2.353.048.17c.014.052 1.465 5.145 5.894 5.22z"/></g><g><path fill="#a1b2c0" d="M42.48 22.65s1.377 5.004 5.696 5.077c4.32.073 5.949-3.138 6.373-5.045l-4.744-2.302z"/></g><g><path fill="#8ea3aa" d="M49.787 20.583l4.525 2.196c-.27 1.073-1.565 4.828-6.132 4.756-3.668-.063-5.159-3.908-5.445-4.765zm-1.47 7.333c3.888 0 5.874-2.673 6.436-5.2l.031-.138-4.96-2.408-7.594 2.353.047.17c.015.052 1.467 5.145 5.895 5.221z"/></g><g><path fill="#a1b2c0" d="M54.55 22.65s1.376 5.004 5.696 5.077c4.32.073 5.949-3.138 6.373-5.045l-4.744-2.302z"/></g><g><path fill="#8ea3aa" d="M61.857 20.583l4.525 2.196c-.268 1.062-1.52 4.757-5.992 4.757l-.14-.001c-3.668-.063-5.159-3.908-5.445-4.765zm-1.469 7.333c3.886 0 5.872-2.673 6.435-5.2l.031-.138-4.96-2.408-7.594 2.353.047.17c.014.052 1.467 5.145 5.894 5.221z"/></g><g><path fill="#a1b2c0" d="M66.62 22.65s1.376 5.004 5.696 5.077c4.32.073 5.949-3.138 6.373-5.045l-4.744-2.302z"/></g><g><path fill="#8ea3aa" d="M73.926 20.583l4.526 2.196c-.268 1.062-1.521 4.757-5.992 4.757l-.14-.001c-3.669-.063-5.158-3.908-5.445-4.765zm-1.468 7.333c3.886 0 5.872-2.673 6.435-5.2l.031-.138-4.962-2.408-7.592 2.353.048.17c.014.052 1.466 5.145 5.894 5.221z"/></g><g><path fill="#a1b2c0" d="M78.69 22.65s1.376 5.004 5.696 5.077c4.32.073 5.949-3.138 6.374-5.045l-4.745-2.302z"/></g><g><path fill="#8ea3aa" d="M85.995 20.583l4.526 2.196c-.268 1.062-1.521 4.757-5.992 4.757l-.14-.001c-3.669-.063-5.159-3.908-5.446-4.765zm-1.469 7.333c3.887 0 5.872-2.673 6.437-5.2l.03-.138-4.962-2.408-7.591 2.353.046.17c.014.052 1.466 5.145 5.894 5.221z"/></g><g><path fill="#a1b2c0" d="M90.76 22.65s1.377 5.004 5.696 5.077c4.32.073 5.948-3.138 6.373-5.045l-4.744-2.302z"/></g><g><path fill="#8ea3aa" d="M98.065 20.583l4.526 2.196c-.268 1.062-1.521 4.757-5.992 4.757l-.14-.001c-3.669-.063-5.159-3.908-5.445-4.765zm-1.469 7.333c3.887 0 5.873-2.673 6.437-5.2l.03-.138L98.1 20.17l-7.591 2.353.046.17c.014.052 1.466 5.145 5.895 5.221z"/></g><g><path fill="#a1b2c0" d="M102.83 22.65s1.377 5.004 5.697 5.077c4.32.073 5.948-3.138 6.373-5.045l-4.744-2.302z"/></g><g><path fill="#8ea3aa" d="M110.136 20.583l4.525 2.196c-.267 1.062-1.52 4.757-5.99 4.757l-.142-.001c-3.668-.063-5.158-3.908-5.444-4.765zm-1.469 7.333c3.886 0 5.873-2.673 6.436-5.2l.03-.138-4.96-2.408-7.593 2.353.047.17c.014.052 1.466 5.145 5.895 5.221z"/></g><g><path fill="#a1b2c0" d="M36.45 18.97s1.376 5.003 5.697 5.077c4.32.073 5.948-3.138 6.373-5.046L43.775 16.7z"/></g><g><path fill="#8ea3aa" d="M43.755 16.903l4.527 2.195c-.271 1.074-1.557 4.85-6.133 4.755-3.669-.061-5.159-3.905-5.445-4.764zm-1.468 7.332c3.887 0 5.873-2.674 6.435-5.199l.031-.139-4.962-2.407-7.591 2.354.047.17c.013.051 1.466 5.144 5.894 5.22z"/></g><g><path fill="#a1b2c0" d="M48.52 18.97s1.376 5.003 5.696 5.077c4.32.073 5.948-3.138 6.374-5.046L55.845 16.7z"/></g><g><path fill="#8ea3aa" d="M55.825 16.903l4.527 2.195c-.27 1.063-1.521 4.757-5.993 4.757l-.14-.002c-3.668-.061-5.158-3.905-5.445-4.764zm-1.468 7.332c3.887 0 5.873-2.674 6.435-5.199l.031-.139-4.962-2.407-7.591 2.354.047.17c.013.051 1.466 5.144 5.894 5.22z"/></g><g><path fill="#a1b2c0" d="M60.59 18.97s1.376 5.003 5.696 5.077c4.32.073 5.948-3.138 6.374-5.046L67.915 16.7z"/></g><g><path fill="#8ea3aa" d="M67.896 16.903l4.525 2.195c-.267 1.063-1.52 4.757-5.992 4.757l-.14-.002c-3.668-.061-5.159-3.905-5.445-4.764zm-1.469 7.332c3.888 0 5.874-2.674 6.434-5.199l.032-.139-4.96-2.407-7.593 2.354.046.17c.014.051 1.467 5.144 5.895 5.22z"/></g><g><path fill="#a1b2c0" d="M72.66 18.97s1.376 5.003 5.696 5.077c4.32.073 5.949-3.138 6.374-5.046L79.985 16.7z"/></g><g><path fill="#8ea3aa" d="M79.967 16.903l4.525 2.195c-.268 1.063-1.52 4.757-5.993 4.757l-.14-.002c-3.667-.061-5.158-3.905-5.445-4.764zm-1.469 7.332c3.888 0 5.873-2.674 6.434-5.199l.032-.139-4.962-2.407-7.592 2.354.048.17c.013.051 1.465 5.144 5.893 5.22z"/></g><g><path fill="#a1b2c0" d="M84.73 18.97s1.376 5.003 5.696 5.077c4.32.073 5.949-3.138 6.374-5.046L92.055 16.7z"/></g><g><path fill="#8ea3aa" d="M92.037 16.903l4.525 2.195c-.267 1.063-1.52 4.757-5.993 4.757l-.14-.002c-3.667-.061-5.158-3.905-5.445-4.764zm-1.47 7.332c3.889 0 5.874-2.674 6.436-5.199l.032-.139-4.963-2.407-7.592 2.353.047.17c.013.052 1.466 5.145 5.894 5.22z"/></g><g><path fill="#a1b2c0" d="M96.8 18.97s1.376 5.003 5.696 5.077c4.32.073 5.949-3.138 6.374-5.046l-4.746-2.301z"/></g><g><path fill="#8ea3aa" d="M104.108 16.903l4.525 2.195c-.268 1.063-1.52 4.757-5.993 4.757l-.14-.002c-3.667-.061-5.158-3.905-5.446-4.764zm-1.47 7.332c3.887 0 5.873-2.674 6.437-5.199l.03-.139-4.962-2.407-7.593 2.353.048.17c.014.052 1.466 5.145 5.894 5.22z"/></g><g><path fill="#8ea3aa" d="M116.176 16.903l4.526 2.195c-.267 1.063-1.52 4.757-5.993 4.757l-.14-.002c-3.668-.061-5.157-3.905-5.445-4.764zm-1.469 7.332c3.887 0 5.873-2.674 6.436-5.199l.031-.139-4.962-2.407-7.592 2.354.048.17c.014.051 1.465 5.144 5.894 5.22z"/></g><g><path fill="#a1b2c0" d="M42.48 15.3s1.377 5.004 5.696 5.078c4.32.073 5.949-3.139 6.373-5.046l-4.744-2.302z"/></g><g><path fill="#8ea3aa" d="M49.787 13.233l4.525 2.195c-.27 1.074-1.565 4.837-6.132 4.755-3.668-.061-5.159-3.906-5.445-4.765zm-1.47 7.331c3.888 0 5.874-2.673 6.436-5.198l.031-.139-4.96-2.407-7.594 2.353.047.17c.015.051 1.467 5.145 5.895 5.22z"/></g><g><path fill="#a1b2c0" d="M54.55 15.3s1.376 5.004 5.696 5.078c4.32.073 5.949-3.139 6.373-5.046l-4.744-2.302z"/></g><g><path fill="#8ea3aa" d="M61.857 13.233l4.525 2.195c-.268 1.063-1.52 4.757-5.992 4.757l-.14-.002c-3.668-.061-5.159-3.906-5.445-4.765zm-1.469 7.331c3.886 0 5.872-2.673 6.435-5.198l.031-.139-4.96-2.407-7.594 2.353.047.17c.014.051 1.467 5.145 5.894 5.22z"/></g><g><path fill="#a1b2c0" d="M66.62 15.3s1.376 5.004 5.696 5.078c4.32.073 5.949-3.139 6.373-5.046l-4.744-2.302z"/></g><g><path fill="#8ea3aa" d="M73.926 13.233l4.526 2.195c-.268 1.063-1.521 4.757-5.992 4.757l-.14-.002c-3.669-.061-5.158-3.906-5.445-4.765zm-1.468 7.331c3.886 0 5.872-2.673 6.435-5.198l.031-.139-4.962-2.407-7.592 2.353.048.17c.014.051 1.466 5.145 5.894 5.22z"/></g><g><path fill="#a1b2c0" d="M78.69 15.3s1.376 5.004 5.696 5.078c4.32.073 5.949-3.139 6.374-5.046l-4.745-2.302z"/></g><g><path fill="#8ea3aa" d="M85.996 13.233l4.525 2.195c-.268 1.063-1.521 4.757-5.992 4.757l-.14-.002c-3.669-.061-5.159-3.906-5.446-4.765zm-1.47 7.331c3.887 0 5.872-2.673 6.437-5.198l.03-.139-4.962-2.407-7.591 2.353.046.17c.014.051 1.466 5.145 5.894 5.22z"/></g><g><path fill="#a1b2c0" d="M90.76 15.3s1.377 5.004 5.696 5.078c4.32.073 5.948-3.139 6.373-5.046l-4.744-2.302z"/></g><g><path fill="#8ea3aa" d="M98.066 13.233l4.525 2.195c-.268 1.063-1.521 4.757-5.992 4.757l-.14-.002c-3.669-.061-5.159-3.906-5.445-4.765zm-1.47 7.331c3.887 0 5.872-2.673 6.437-5.198l.03-.139L98.1 12.82l-7.591 2.353.046.17c.014.051 1.466 5.145 5.895 5.22z"/></g><g><path fill="#a1b2c0" d="M102.83 15.3s1.377 5.004 5.696 5.078c4.321.073 5.949-3.139 6.374-5.046l-4.744-2.302z"/></g><g><path fill="#8ea3aa" d="M110.137 13.233l4.524 2.195c-.267 1.063-1.52 4.757-5.99 4.757l-.142-.002c-3.668-.061-5.158-3.906-5.444-4.765zm-1.47 7.331c3.886 0 5.873-2.673 6.436-5.198l.03-.139-4.96-2.407-7.593 2.353.047.17c.014.051 1.466 5.145 5.895 5.22z"/></g><g><path fill="#a1b2c0" d="M36.45 11.62s1.376 5.004 5.697 5.078c4.32.073 5.948-3.139 6.373-5.046L43.775 9.35z"/></g><g><path fill="#8ea3aa" d="M43.755 9.562l4.527 2.197c-.268 1.062-1.521 4.756-5.993 4.756l-.14-.002c-3.669-.062-5.159-3.905-5.445-4.764zm-1.468 7.332c3.887 0 5.874-2.673 6.435-5.198l.031-.139-4.962-2.407-7.591 2.354.047.169c.013.053 1.466 5.145 5.894 5.22z"/></g><g><path fill="#a1b2c0" d="M48.52 11.62s1.376 5.004 5.696 5.078c4.32.073 5.948-3.139 6.374-5.046L55.845 9.35z"/></g><g><path fill="#8ea3aa" d="M55.825 9.562l4.527 2.197c-.268 1.062-1.521 4.756-5.993 4.756l-.14-.002c-3.668-.062-5.158-3.905-5.445-4.764zm-1.468 7.332c3.888 0 5.873-2.673 6.435-5.198l.031-.139-4.962-2.407-7.591 2.354.047.169c.013.053 1.466 5.145 5.894 5.22z"/></g><g><path fill="#a1b2c0" d="M60.59 11.62s1.376 5.004 5.696 5.078c4.32.073 5.948-3.139 6.374-5.046L67.915 9.35z"/></g><g><path fill="#8ea3aa" d="M67.896 9.562l4.525 2.197c-.267 1.062-1.518 4.756-5.992 4.756l-.14-.002c-3.668-.062-5.159-3.905-5.445-4.764zm-1.469 7.332c3.889 0 5.874-2.673 6.434-5.198l.032-.139-4.96-2.407-7.593 2.354.046.169c.014.053 1.467 5.145 5.895 5.22z"/></g><g><path fill="#a1b2c0" d="M72.66 11.62s1.376 5.004 5.696 5.078c4.32.073 5.949-3.139 6.374-5.046L79.985 9.35z"/></g><g><path fill="#8ea3aa" d="M79.967 9.562l4.525 2.197c-.268 1.062-1.518 4.756-5.993 4.756l-.14-.002c-3.667-.062-5.158-3.905-5.445-4.764zm-1.469 7.332c3.889 0 5.873-2.673 6.434-5.198l.032-.139-4.962-2.407-7.592 2.354.048.169c.013.053 1.465 5.145 5.893 5.22z"/></g><g><path fill="#a1b2c0" d="M84.73 11.62s1.376 5.004 5.696 5.078c4.32.073 5.949-3.139 6.374-5.046L92.055 9.35z"/></g><g><path fill="#8ea3aa" d="M92.037 9.562l4.525 2.197c-.267 1.062-1.518 4.756-5.993 4.756l-.14-.002c-3.667-.062-5.158-3.905-5.445-4.764zm-1.47 7.332c3.889 0 5.874-2.673 6.436-5.198l.031-.139-4.962-2.407-7.592 2.354.047.169c.014.053 1.466 5.145 5.894 5.22z"/></g><g><path fill="#a1b2c0" d="M96.8 11.62s1.376 5.004 5.696 5.078c4.32.073 5.949-3.139 6.374-5.046l-4.746-2.302z"/></g><g><path fill="#8ea3aa" d="M104.108 9.562l4.525 2.197c-.267 1.062-1.52 4.756-5.993 4.756l-.14-.002c-3.667-.062-5.158-3.905-5.446-4.764zm-1.47 7.332c3.887 0 5.874-2.673 6.437-5.198l.03-.139-4.962-2.407-7.593 2.354.048.169c.014.053 1.466 5.145 5.894 5.22z"/></g><g><path fill="#8ea3aa" d="M116.176 9.562l4.526 2.197c-.267 1.062-1.52 4.756-5.993 4.756l-.14-.002c-3.668-.062-5.157-3.905-5.445-4.764zm-1.468 7.332c3.887 0 5.873-2.673 6.435-5.198l.031-.139-4.962-2.407-7.592 2.354.048.169c.014.053 1.465 5.145 5.894 5.22z"/></g><g><path fill="#a1b2c0" d="M42.48 7.95s1.377 5.004 5.696 5.077c4.32.073 5.949-3.138 6.373-5.045L49.805 5.68z"/></g><g><path fill="#8ea3aa" d="M49.787 5.882l4.525 2.197c-.27 1.073-1.565 4.846-6.132 4.754-3.668-.062-5.159-3.907-5.445-4.765zm-1.47 7.333c3.888 0 5.874-2.673 6.436-5.2l.031-.139-4.96-2.406-7.594 2.353.047.169c.015.053 1.467 5.146 5.895 5.222z"/></g><g><path fill="#a1b2c0" d="M54.55 7.95s1.376 5.004 5.696 5.077c4.32.073 5.949-3.138 6.373-5.045L61.875 5.68z"/></g><g><path fill="#8ea3aa" d="M61.857 5.882l4.525 2.197c-.271 1.073-1.567 4.824-6.133 4.754-3.667-.062-5.158-3.907-5.444-4.765zm-1.469 7.333c3.886 0 5.872-2.673 6.435-5.2l.031-.139-4.96-2.406L54.3 7.823l.047.169c.014.053 1.467 5.146 5.894 5.222z"/></g><g><path fill="#a1b2c0" d="M66.62 7.95s1.376 5.004 5.696 5.077c4.32.073 5.949-3.138 6.373-5.045L73.945 5.68z"/></g><g><path fill="#8ea3aa" d="M73.926 5.882l4.526 2.197c-.268 1.061-1.521 4.756-5.992 4.756l-.14-.002c-3.669-.062-5.158-3.907-5.445-4.765zm-1.468 7.333c3.886 0 5.872-2.673 6.435-5.2l.031-.139-4.962-2.406-7.592 2.353.048.169c.014.053 1.466 5.146 5.894 5.222z"/></g><g><path fill="#a1b2c0" d="M78.69 7.95s1.376 5.004 5.696 5.077c4.32.073 5.949-3.138 6.374-5.045L86.014 5.68z"/></g><g><path fill="#8ea3aa" d="M85.996 5.882L90.52 8.08c-.268 1.061-1.521 4.756-5.992 4.756l-.14-.002c-3.669-.062-5.159-3.907-5.446-4.765zm-1.47 7.333c3.887 0 5.872-2.673 6.437-5.2l.03-.139-4.962-2.406-7.591 2.353.046.169c.014.053 1.466 5.146 5.894 5.222z"/></g><g><path fill="#a1b2c0" d="M90.76 7.95s1.377 5.004 5.696 5.077c4.32.073 5.948-3.138 6.373-5.045L98.085 5.68z"/></g><g><path fill="#8ea3aa" d="M98.066 5.882l4.525 2.197c-.268 1.061-1.521 4.756-5.992 4.756l-.14-.002c-3.669-.062-5.159-3.907-5.445-4.765zm-1.47 7.333c3.887 0 5.872-2.673 6.437-5.2l.03-.139L98.1 5.47 90.51 7.823l.046.169c.014.053 1.466 5.146 5.895 5.222z"/></g><g><path fill="#a1b2c0" d="M102.83 7.95s1.377 5.004 5.696 5.077c4.321.073 5.949-3.138 6.374-5.045l-4.744-2.302z"/></g><g><path fill="#8ea3aa" d="M110.137 5.882l4.524 2.197c-.267 1.061-1.52 4.756-5.99 4.756l-.142-.002c-3.668-.062-5.158-3.907-5.444-4.765zm-1.47 7.333c3.886 0 5.873-2.673 6.436-5.2l.03-.139-4.96-2.406-7.593 2.353.047.169c.014.053 1.466 5.146 5.895 5.222z"/></g><g><path fill="#a1b2c0" d="M36.45 4.281s1.376 5.003 5.697 5.077c4.32.073 5.948-3.139 6.373-5.045L43.775 2.01z"/></g><g><path fill="#8ea3aa" d="M43.755 2.212l4.527 2.196c-.271 1.074-1.536 4.82-6.133 4.755-3.669-.062-5.159-3.906-5.445-4.764zm-1.468 7.333c3.887 0 5.874-2.673 6.435-5.198l.031-.14L43.791 1.8 36.2 4.153l.047.17c.013.052 1.466 5.145 5.894 5.22z"/></g><g><path fill="#a1b2c0" d="M48.52 4.281s1.376 5.003 5.696 5.077c4.32.073 5.948-3.139 6.374-5.045L55.845 2.01z"/></g><g><path fill="#8ea3aa" d="M55.825 2.212l4.527 2.196c-.271 1.074-1.556 4.82-6.133 4.755-3.668-.062-5.158-3.906-5.445-4.764zm-1.468 7.333c3.888 0 5.873-2.673 6.435-5.198l.031-.14L55.862 1.8 48.27 4.153l.047.17c.013.052 1.466 5.145 5.894 5.22z"/></g><g><path fill="#a1b2c0" d="M60.59 4.281s1.376 5.003 5.696 5.077c4.32.073 5.948-3.139 6.374-5.045L67.915 2.01z"/></g><g><path fill="#8ea3aa" d="M67.896 2.212l4.525 2.196c-.267 1.062-1.518 4.757-5.992 4.757l-.14-.002c-3.668-.062-5.159-3.906-5.445-4.764zm-1.469 7.333c3.889 0 5.874-2.673 6.434-5.198l.032-.14-4.96-2.407-7.593 2.353.046.17c.014.052 1.467 5.145 5.895 5.22z"/></g><g><path fill="#a1b2c0" d="M72.66 4.281s1.376 5.003 5.696 5.077c4.32.073 5.949-3.139 6.374-5.045L79.985 2.01z"/></g><g><path fill="#8ea3aa" d="M79.967 2.212l4.525 2.196c-.268 1.062-1.518 4.757-5.993 4.757l-.14-.002c-3.667-.062-5.158-3.906-5.445-4.764zm-1.469 7.333c3.889 0 5.873-2.673 6.434-5.198l.032-.14L80.002 1.8 72.41 4.153l.048.17c.013.052 1.465 5.145 5.893 5.22z"/></g><g><path fill="#a1b2c0" d="M84.73 4.281s1.376 5.003 5.696 5.077c4.32.073 5.949-3.139 6.374-5.045L92.055 2.01z"/></g><g><path fill="#8ea3aa" d="M92.037 2.212l4.525 2.196c-.267 1.062-1.518 4.757-5.993 4.757l-.14-.002c-3.667-.062-5.158-3.906-5.445-4.764zm-1.47 7.333c3.889 0 5.874-2.673 6.436-5.198l.031-.14L92.072 1.8 84.48 4.153l.047.17c.014.052 1.466 5.145 5.894 5.22z"/></g><g><path fill="#a1b2c0" d="M96.8 4.281s1.376 5.003 5.696 5.077c4.32.073 5.949-3.139 6.374-5.045l-4.746-2.303z"/></g><g><path fill="#8ea3aa" d="M104.108 2.212l4.525 2.196c-.267 1.062-1.52 4.757-5.993 4.757l-.14-.002c-3.667-.062-5.158-3.906-5.446-4.764zm-1.47 7.333c3.887 0 5.874-2.673 6.437-5.198l.03-.14-4.962-2.407-7.593 2.353.048.17c.014.052 1.466 5.145 5.894 5.22z"/></g><g><path fill="#8ea3aa" d="M116.176 2.212l4.526 2.196c-.267 1.062-1.52 4.757-5.993 4.757l-.14-.002c-3.668-.062-5.157-3.906-5.445-4.764zm-1.468 7.333c3.887 0 5.873-2.673 6.435-5.198l.031-.14-4.962-2.407-7.592 2.353.048.17c.014.052 1.465 5.145 5.894 5.22z"/></g><g><path fill="#a1b2c0" d="M42.48.601s1.377 5.003 5.696 5.077c4.32.073 5.949-3.139 6.373-5.045L49.805-1.67z"/></g><g><path fill="#8ea3aa" d="M49.787-1.466L54.312.729c-.267 1.062-1.52 4.756-5.993 4.756l-.14-.001c-3.667-.063-5.158-3.907-5.444-4.765zm-1.47 7.332c3.888 0 5.874-2.673 6.436-5.198l.031-.14-4.96-2.408L42.23.473l.047.17c.015.052 1.467 5.145 5.895 5.221z"/></g><g><path fill="#a1b2c0" d="M54.55.601s1.376 5.003 5.696 5.077c4.32.073 5.949-3.139 6.373-5.045L61.875-1.67z"/></g><g><path fill="#8ea3aa" d="M61.857-1.466L66.382.729c-.271 1.073-1.567 4.835-6.133 4.755-3.667-.063-5.158-3.907-5.444-4.765zm-1.469 7.332c3.886 0 5.872-2.673 6.435-5.198l.031-.14-4.96-2.408L54.3.473l.047.17c.014.052 1.467 5.145 5.894 5.221z"/></g><g><path fill="#a1b2c0" d="M66.62.601s1.376 5.003 5.696 5.077c4.32.073 5.949-3.139 6.373-5.045L73.945-1.67z"/></g><g><path fill="#8ea3aa" d="M73.926-1.466L78.452.729c-.268 1.062-1.521 4.756-5.992 4.756l-.14-.001C68.65 5.42 67.162 1.577 66.875.719zm-1.468 7.332c3.886 0 5.872-2.673 6.435-5.198l.031-.14-4.962-2.408L66.37.473l.048.17c.014.052 1.466 5.145 5.894 5.221z"/></g><g><path fill="#a1b2c0" d="M78.69.601s1.376 5.003 5.696 5.077c4.32.073 5.949-3.139 6.374-5.045L86.014-1.67z"/></g><g><path fill="#8ea3aa" d="M85.996-1.466L90.52.729C90.253 1.791 89 5.485 84.529 5.485l-.14-.001C80.72 5.42 79.23 1.577 78.943.719zm-1.47 7.332c3.887 0 5.872-2.673 6.437-5.198l.03-.14-4.962-2.408L78.44.473l.046.17c.014.052 1.466 5.145 5.894 5.221z"/></g><g><path fill="#a1b2c0" d="M90.76.601s1.377 5.003 5.696 5.077c4.32.073 5.948-3.139 6.373-5.045L98.085-1.67z"/></g><g><path fill="#8ea3aa" d="M98.066-1.466L102.59.729c-.268 1.062-1.521 4.756-5.992 4.756l-.14-.001C92.79 5.42 91.3 1.577 91.014.719zm-1.47 7.332c3.887 0 5.872-2.673 6.437-5.198l.03-.14L98.1-1.88 90.51.473l.046.17c.014.052 1.466 5.145 5.895 5.221z"/></g><g><path fill="#a1b2c0" d="M102.83.601s1.377 5.003 5.696 5.077c4.321.073 5.949-3.139 6.374-5.045l-4.744-2.303z"/></g><g><path fill="#8ea3aa" d="M110.137-1.466L114.66.729c-.267 1.062-1.52 4.756-5.99 4.756l-.142-.001c-3.668-.063-5.158-3.907-5.444-4.765zm-1.47 7.332c3.886 0 5.873-2.673 6.436-5.198l.03-.14-4.96-2.408L102.58.473l.047.17c.014.052 1.466 5.145 5.895 5.221z"/></g><g><path fill="#a1b2c0" d="M36.45-3.069s1.376 5.003 5.697 5.077c4.32.073 5.948-3.139 6.373-5.046L43.775-5.34z"/></g><g><path fill="#8ea3aa" d="M43.755-5.136l4.527 2.196c-.271 1.073-1.54 4.846-6.133 4.755-3.669-.063-5.159-3.908-5.445-4.765zm-1.469 7.333c3.887 0 5.874-2.674 6.436-5.2l.031-.138-4.962-2.409L36.2-3.196l.047.17c.013.052 1.466 5.145 5.895 5.221z"/></g><g><path fill="#a1b2c0" d="M48.52-3.069s1.376 5.003 5.696 5.077c4.32.073 5.948-3.139 6.374-5.046L55.845-5.34z"/></g><g><path fill="#8ea3aa" d="M55.825-5.136l4.527 2.196c-.271 1.073-1.544 4.846-6.133 4.755-3.668-.063-5.158-3.908-5.445-4.765zm-1.47 7.333c3.889 0 5.875-2.674 6.437-5.2l.031-.138-4.962-2.409-7.591 2.354.047.17c.013.052 1.466 5.145 5.894 5.221z"/></g><g><path fill="#a1b2c0" d="M60.59-3.069s1.376 5.003 5.696 5.077c4.32.073 5.948-3.139 6.374-5.046L67.915-5.34z"/></g><g><path fill="#8ea3aa" d="M67.896-5.136L72.42-2.94c-.267 1.062-1.52 4.756-5.994 4.756l-.138-.001c-3.668-.063-5.159-3.908-5.445-4.765zm-1.47 7.333c3.889 0 5.875-2.674 6.435-5.2l.032-.138-4.96-2.409-7.593 2.354.046.17c.014.052 1.467 5.145 5.895 5.221z"/></g><g><path fill="#a1b2c0" d="M72.66-3.069s1.376 5.003 5.696 5.077c4.32.073 5.949-3.139 6.374-5.046L79.985-5.34z"/></g><g><path fill="#8ea3aa" d="M79.967-5.136l4.525 2.196c-.268 1.062-1.52 4.756-5.994 4.756l-.139-.001c-3.667-.063-5.158-3.908-5.445-4.765zm-1.47 7.333c3.889 0 5.874-2.674 6.435-5.2l.032-.138-4.962-2.409-7.592 2.354.048.17c.013.052 1.465 5.145 5.893 5.221z"/></g><g><path fill="#a1b2c0" d="M84.73-3.069s1.376 5.003 5.696 5.077c4.32.073 5.949-3.139 6.374-5.046L92.055-5.34z"/></g><g><path fill="#8ea3aa" d="M92.037-5.136l4.525 2.196c-.267 1.062-1.52 4.756-5.995 4.756l-.137-.001c-3.668-.063-5.159-3.908-5.446-4.765zm-1.47 7.333c3.889 0 5.874-2.674 6.436-5.2l.031-.138-4.962-2.409-7.592 2.354.047.17c.014.052 1.466 5.145 5.894 5.221z"/></g><g><path fill="#a1b2c0" d="M96.8-3.069s1.376 5.003 5.696 5.077c4.32.073 5.949-3.139 6.374-5.046l-4.746-2.302z"/></g><g><path fill="#8ea3aa" d="M104.108-5.136l4.525 2.196c-.27 1.072-1.529 4.834-6.133 4.755-3.667-.063-5.158-3.908-5.446-4.765zm-1.472 7.333c3.889 0 5.876-2.674 6.44-5.2l.03-.138-4.963-2.409-7.593 2.354.048.17c.014.052 1.466 5.145 5.894 5.221z"/></g><g><path fill="#8ea3aa" d="M116.176-5.136l4.526 2.196c-.267 1.062-1.52 4.756-5.994 4.756l-.139-.001c-3.668-.063-5.157-3.908-5.445-4.765zm-1.47 7.333c3.888 0 5.875-2.674 6.437-5.2l.031-.138-4.962-2.409-7.592 2.354.048.17c.014.052 1.465 5.145 5.894 5.221z"/></g></g><g clip-path="url(#clip-271:330)"><path fill="#d3dbe3" d="M94.38 114.312h56.876V3.82H94.38z"/></g><g clip-path="url(#clip-271:330)"><path fill="#fff" d="M115.15 59.82h15.334V40.96H115.15z"/></g><g clip-path="url(#clip-271:330)"><path fill="#aab6c5" d="M122.39 60.407h.859V40.96h-.859z"/></g><g clip-path="url(#clip-271:330)"><path fill="#aab6c5" d="M115.15 48.023h15.334v-.783H115.15z"/></g><g clip-path="url(#clip-271:330)"><path fill="#aab6c5" d="M115.15 53.873h15.334v-.783H115.15z"/></g><g clip-path="url(#clip-271:330)"><path fill="#aab6c5" d="M113.53 40.96h18.57v-2.49h-18.57z"/></g><g clip-path="url(#clip-271:330)"><path fill="#aab6c5" d="M113.53 61.66h18.57v-2.49h-18.57z"/></g><g clip-path="url(#clip-271:330)"><path fill="#fff" d="M115.15 95.91h15.334V77.05H115.15z"/></g><g clip-path="url(#clip-271:330)"><path fill="#aab6c5" d="M122.39 96.498h.859V77.05h-.859z"/></g><g clip-path="url(#clip-271:330)"><path fill="#aab6c5" d="M115.15 84.113h15.334v-.783H115.15z"/></g><g clip-path="url(#clip-271:330)"><path fill="#aab6c5" d="M115.15 89.953h15.334v-.783H115.15z"/></g><g clip-path="url(#clip-271:330)"><path fill="#aab6c5" d="M113.53 77.05h18.57v-2.49h-18.57z"/></g><g clip-path="url(#clip-271:330)"><path fill="#aab6c5" d="M113.53 97.74h18.57v-2.49h-18.57z"/></g><g clip-path="url(#clip-271:330)"><path fill="#aab6c5" d="M94.38 114.316h56.876v-7.046H94.38z"/></g><g clip-path="url(#clip-271:330)"><path fill="#aab6c5" d="M145.06 35.907h6.19V32.95h-6.19z"/></g><g clip-path="url(#clip-271:330)"><path fill="#aab6c5" d="M141.97 39.717h6.19V36.76h-6.19z"/></g><g clip-path="url(#clip-271:330)"><path fill="#a2acb9" d="M88.32 88.827h5.003V85.87H88.32z"/></g><g clip-path="url(#clip-271:330)"><path fill="#aab6c5" d="M104.36 67.257h6.19V64.3h-6.19z"/></g><g clip-path="url(#clip-271:330)"><path fill="#aab6c5" d="M147.88 93.477h3.372V90.52h-3.372z"/></g><g clip-path="url(#clip-271:330)"><path fill="#97a1ad" d="M152.268 79.713a648.626 648.626 0 0 1-1.078 34.582c1.077.087 2.188-.204 3.048-.802a107.37 107.37 0 0 1 .743-38.523"/></g><g clip-path="url(#clip-271:330)"><path fill="#97a1ad" d="M152.418 79.708c-1.177 5.354-.319 11.054-.606 16.484-.32 6.036-.756 12.076-1.181 18.109-.02.266.301.513.623.505 1.488-.038 2.461-.26 3.753-.852.183-.083.345-.278.322-.455-.824-6.388-1.244-12.867-1.121-19.289.062-3.225.292-6.448.682-9.656.385-3.177 1.46-6.395 1.167-9.578-.036-.39-.77-.657-1.012-.222-2.628 4.705-2.554 11.14-2.845 16.232-.343 5.988-.16 11.965.89 17.901.084.474 1.174 5.341-1.12 3.767-.55-.376.23-4.423.253-4.936.154-3.295.233-6.583.257-9.88.042-5.923 1.241-12.275.034-18.13z"/></g><g clip-path="url(#clip-271:330)"><path fill="#97a1ad" d="M152.96 90.9c2.658-2.25 4.64-5.16 5.671-8.333.068-.207.148-.436.353-.549.316-.172.748.063.872.38.123.317.03.665-.072.989-1.12 3.544-3.309 6.8-6.26 9.32"/></g><g clip-path="url(#clip-271:330)"><path fill="#97a1ad" d="M147.659 79.708c-.336 4.045 1.52 7.661 4.958 10.212.607.451 1.483-.329.87-.793-3.082-2.338-4.836-5.777-5.037-9.42-.026-.466-.753-.46-.791 0z"/></g><g clip-path="url(#clip-271:330)"><path fill="#ffc300" d="M136.295 80.606c1.019 6.88 11.217 11.483 15.39 4.739.398.193.808.364 1.23.512 1.562.635 3.15 1.07 4.863 1.229 2.375.218 4.793-.023 6.98-.946 3.804-1.604 6.075-4.822 6.41-8.362 2.792-.31 5.085-2.55 4.583-5.653-.188-1.164-.683-2.113-1.373-2.848 1.587-3.262-.758-7.251-5.433-7.525.001-7.678-10.615-10.03-14.571-3.689-2.685-2.375-6.435-3.38-10.154-1.653-2.278 1.058-3.88 2.841-4.313 5.148-.209 1.111.147 2.16.15 3.214a5.018 5.018 0 0 0-.512-.066c-10.1-.79-12.573 14.365-3.25 15.9z"/></g></g><g><g><path fill="#c5cdd7" d="M95.25 113.676h62.717V17.89H95.25z"/></g><g><path fill="#fff" d="M111.89 70.169h15.334V51.31H111.89z"/></g><g><path fill="#a2acb9" d="M119.13 70.757h.859V51.31h-.859z"/></g><g><path fill="#a2acb9" d="M111.89 58.374h15.334v-.784H111.89z"/></g><g><path fill="#a2acb9" d="M111.89 64.213h15.334v-.783H111.89z"/></g><g><path fill="#a2acb9" d="M110.27 51.311h18.57V48.82h-18.57z"/></g><g><path fill="#a2acb9" d="M110.27 72h18.57v-2.49h-18.57z"/></g><g><path fill="#e8b202" d="M110.91 109.797h17.3V81.62h-17.3z"/></g><g><path fill="#ffc300" d="M111.94 109.031h15.245V82.52H111.94z"/></g><g><path fill="#aab6c5" d="M103.49 111.259h29.906V109.8H103.49z"/></g><g><path fill="#aab6c5" d="M103.49 115h29.906v-3.75H103.49z"/></g><g><path fill="#a2acb9" d="M103.49 115.004h29.906v-.834H103.49z"/></g><g><path fill="#a2acb9" d="M95.25 48.347h2.518V45.39H95.25z"/></g><g><path fill="#a2acb9" d="M96.57 51.547h5.318V48.59H96.57z"/></g><g><path fill="#8ea3aa" d="M144.85 33.22s1.146 2.997 4.325 3.045c3.181.048 4.38-1.81 4.693-3.046l-3.493-1.709z"/></g><g><g><path fill="#fff" d="M90.74 33.22h63.123L150.758.8H93.882z"/></g></g><g clip-path="url(#clip-271:512)"><g><path fill="#a1b2c0" d="M90.74 33.22h63.123L150.758.8H93.882z"/></g><g><path fill="#a1b2c0" d="M81.45 33.671s1.376 5.003 5.697 5.077c4.32.073 5.948-3.139 6.373-5.045L88.775 31.4z"/></g><g><path fill="#8ea3aa" d="M88.755 31.603l4.527 2.196c-.271 1.073-1.557 4.83-6.133 4.754-3.669-.063-5.159-3.906-5.445-4.765zm-1.468 7.332c3.887 0 5.873-2.673 6.435-5.198l.031-.139-4.962-2.408-7.591 2.353.047.17c.013.052 1.466 5.145 5.894 5.221z"/></g><g><path fill="#a1b2c0" d="M93.52 33.671s1.376 5.003 5.696 5.077c4.32.073 5.948-3.139 6.374-5.045l-4.745-2.303z"/></g><g><path fill="#8ea3aa" d="M100.825 31.603l4.527 2.196c-.27 1.062-1.521 4.756-5.993 4.756l-.14-.002c-3.668-.063-5.158-3.906-5.445-4.765zm-1.468 7.332c3.887 0 5.873-2.673 6.435-5.198l.031-.139-4.962-2.408-7.591 2.353.047.17c.013.052 1.466 5.145 5.894 5.221z"/></g><g><path fill="#a1b2c0" d="M105.59 33.671s1.376 5.003 5.696 5.077c4.32.073 5.948-3.139 6.374-5.045l-4.745-2.303z"/></g><g><path fill="#8ea3aa" d="M112.896 31.603l4.525 2.196c-.267 1.062-1.52 4.756-5.992 4.756l-.14-.002c-3.668-.063-5.159-3.906-5.445-4.765zm-1.469 7.332c3.888 0 5.874-2.673 6.434-5.198l.032-.139-4.96-2.408-7.593 2.353.046.17c.014.052 1.467 5.145 5.895 5.221z"/></g><g><path fill="#a1b2c0" d="M117.66 33.671s1.376 5.003 5.696 5.077c4.32.073 5.949-3.139 6.374-5.045l-4.745-2.303z"/></g><g><path fill="#8ea3aa" d="M124.967 31.603l4.525 2.196c-.267 1.062-1.52 4.756-5.993 4.756l-.14-.002c-3.667-.063-5.158-3.906-5.445-4.765zm-1.469 7.332c3.888 0 5.873-2.673 6.434-5.198l.032-.139-4.962-2.408-7.592 2.353.048.17c.013.052 1.465 5.145 5.893 5.221z"/></g><g><path fill="#a1b2c0" d="M129.73 33.671s1.376 5.003 5.696 5.077c4.32.073 5.949-3.139 6.374-5.045l-4.745-2.303z"/></g><g><path fill="#8ea3aa" d="M137.037 31.603l4.525 2.196c-.267 1.062-1.52 4.756-5.993 4.756l-.14-.002c-3.667-.063-5.158-3.906-5.445-4.765zm-1.47 7.332c3.889 0 5.874-2.673 6.436-5.198l.032-.139-4.963-2.408-7.592 2.353.047.17c.014.052 1.466 5.145 5.894 5.221z"/></g><g><path fill="#a1b2c0" d="M141.8 33.671s1.376 5.003 5.696 5.077c4.32.073 5.949-3.139 6.374-5.045l-4.746-2.303z"/></g><g><path fill="#8ea3aa" d="M149.107 31.603l4.526 2.196c-.268 1.062-1.52 4.756-5.993 4.756l-.14-.002c-3.667-.063-5.158-3.906-5.446-4.765zm-1.469 7.332c3.887 0 5.873-2.673 6.437-5.198l.03-.139-4.962-2.408-7.593 2.353.048.17c.014.052 1.466 5.145 5.894 5.221z"/></g><g><path fill="#8ea3aa" d="M161.176 31.603l4.526 2.196c-.268 1.062-1.52 4.756-5.993 4.756l-.14-.002c-3.668-.063-5.157-3.906-5.445-4.765zm-1.469 7.332c3.887 0 5.873-2.673 6.436-5.198l.031-.139-4.962-2.408-7.592 2.353.048.17c.014.052 1.465 5.145 5.894 5.221z"/></g><g><path fill="#a1b2c0" d="M87.48 30.001s1.377 5.003 5.696 5.077c4.32.073 5.949-3.138 6.374-5.045l-4.745-2.303z"/></g><g><path fill="#8ea3aa" d="M94.787 27.933l4.525 2.197c-.267 1.061-1.52 4.756-5.993 4.756l-.14-.001c-3.667-.063-5.158-3.908-5.444-4.766zm-1.47 7.333c3.888 0 5.874-2.673 6.436-5.198l.031-.14-4.96-2.408-7.594 2.354.047.169c.015.053 1.467 5.146 5.895 5.221z"/></g><g><path fill="#a1b2c0" d="M99.55 30.001s1.376 5.003 5.696 5.077c4.32.073 5.949-3.138 6.374-5.045l-4.745-2.303z"/></g><g><path fill="#8ea3aa" d="M106.857 27.933l4.525 2.197c-.271 1.073-1.567 4.827-6.133 4.755-3.667-.063-5.158-3.908-5.444-4.766zm-1.469 7.333c3.886 0 5.872-2.673 6.435-5.198l.031-.14-4.96-2.408-7.594 2.354.047.169c.014.053 1.467 5.146 5.894 5.221z"/></g><g><path fill="#a1b2c0" d="M111.62 30.001s1.376 5.003 5.696 5.077c4.32.073 5.949-3.138 6.373-5.045l-4.744-2.303z"/></g><g><path fill="#8ea3aa" d="M118.926 27.933l4.526 2.197c-.268 1.061-1.521 4.756-5.992 4.756l-.14-.001c-3.669-.063-5.158-3.908-5.445-4.766zm-1.467 7.333c3.885 0 5.871-2.673 6.434-5.198l.031-.14-4.962-2.408-7.592 2.354.048.169c.014.053 1.466 5.146 5.894 5.221z"/></g><g><path fill="#a1b2c0" d="M123.69 30.001s1.376 5.003 5.696 5.077c4.32.073 5.949-3.138 6.374-5.045l-4.745-2.303z"/></g><g><path fill="#8ea3aa" d="M130.996 27.933l4.525 2.197c-.268 1.061-1.521 4.756-5.992 4.756l-.14-.001c-3.669-.063-5.159-3.908-5.446-4.766zm-1.469 7.333c3.886 0 5.871-2.673 6.436-5.198l.03-.14-4.962-2.408-7.591 2.354.046.169c.014.053 1.466 5.146 5.894 5.221z"/></g><g><path fill="#a1b2c0" d="M135.76 30.001s1.377 5.003 5.696 5.077c4.32.073 5.948-3.138 6.373-5.045l-4.744-2.303z"/></g><g><path fill="#8ea3aa" d="M143.066 27.933l4.525 2.197c-.268 1.061-1.521 4.756-5.992 4.756l-.14-.002c-3.669-.062-5.159-3.907-5.446-4.765zm-1.47 7.333c3.887 0 5.873-2.673 6.437-5.198l.03-.14-4.962-2.408-7.591 2.354.046.169c.014.053 1.466 5.146 5.895 5.221z"/></g><g><path fill="#a1b2c0" d="M147.83 30.001s1.377 5.003 5.697 5.077c4.32.073 5.948-3.138 6.373-5.045l-4.744-2.303z"/></g><g><path fill="#8ea3aa" d="M155.137 27.933l4.524 2.197c-.267 1.061-1.52 4.756-5.99 4.756l-.142-.002c-3.668-.062-5.158-3.907-5.444-4.765zm-1.47 7.333c3.886 0 5.873-2.673 6.436-5.198l.03-.14-4.96-2.408-7.593 2.354.047.169c.014.053 1.466 5.146 5.895 5.221z"/></g><g><path fill="#a1b2c0" d="M81.45 26.32s1.376 5.003 5.697 5.077c4.32.073 5.948-3.139 6.373-5.046l-4.745-2.301z"/></g><g><path fill="#8ea3aa" d="M88.755 24.253l4.527 2.195c-.271 1.074-1.557 4.84-6.133 4.756-3.669-.063-5.159-3.907-5.445-4.765zm-1.468 7.332c3.887 0 5.873-2.673 6.435-5.198l.031-.14-4.962-2.407-7.591 2.353.047.17c.013.052 1.466 5.145 5.894 5.22z"/></g><g><path fill="#a1b2c0" d="M93.52 26.32s1.376 5.003 5.696 5.077c4.32.073 5.948-3.139 6.374-5.046l-4.745-2.301z"/></g><g><path fill="#8ea3aa" d="M100.825 24.253l4.527 2.195c-.27 1.062-1.521 4.758-5.993 4.758l-.14-.002c-3.668-.063-5.158-3.907-5.445-4.765zm-1.468 7.332c3.887 0 5.873-2.673 6.435-5.198l.031-.14-4.962-2.407-7.591 2.353.047.17c.013.052 1.466 5.145 5.894 5.22z"/></g><g><path fill="#a1b2c0" d="M105.59 26.32s1.376 5.003 5.696 5.077c4.32.073 5.948-3.139 6.374-5.046l-4.745-2.301z"/></g><g><path fill="#8ea3aa" d="M112.896 24.253l4.525 2.195c-.267 1.062-1.52 4.758-5.992 4.758l-.14-.002c-3.668-.063-5.159-3.907-5.445-4.765zm-1.469 7.332c3.888 0 5.874-2.673 6.434-5.198l.032-.14-4.96-2.407-7.593 2.353.046.17c.014.052 1.467 5.145 5.895 5.22z"/></g><g><path fill="#a1b2c0" d="M117.66 26.32s1.376 5.003 5.696 5.077c4.32.073 5.949-3.139 6.374-5.046l-4.745-2.301z"/></g><g><path fill="#8ea3aa" d="M124.967 24.253l4.525 2.195c-.267 1.062-1.52 4.758-5.993 4.758l-.14-.002c-3.667-.063-5.158-3.907-5.445-4.765zm-1.469 7.332c3.888 0 5.873-2.673 6.434-5.198l.032-.14-4.962-2.407-7.592 2.353.048.17c.013.052 1.465 5.145 5.893 5.22z"/></g><g><path fill="#a1b2c0" d="M129.73 26.32s1.376 5.003 5.696 5.077c4.32.073 5.949-3.139 6.374-5.046l-4.745-2.301z"/></g><g><path fill="#8ea3aa" d="M137.037 24.253l4.525 2.195c-.267 1.062-1.52 4.758-5.993 4.758l-.14-.002c-3.667-.063-5.158-3.907-5.445-4.765zm-1.47 7.332c3.889 0 5.874-2.673 6.436-5.198l.032-.14-4.963-2.407-7.592 2.353.047.17c.013.052 1.466 5.145 5.894 5.22z"/></g><g><path fill="#a1b2c0" d="M141.8 26.32s1.376 5.003 5.696 5.077c4.32.073 5.949-3.139 6.374-5.046l-4.746-2.301z"/></g><g><path fill="#8ea3aa" d="M149.107 24.253l4.526 2.195c-.268 1.062-1.52 4.758-5.993 4.758l-.14-.002c-3.667-.063-5.158-3.907-5.446-4.765zm-1.469 7.332c3.887 0 5.873-2.673 6.437-5.198l.03-.14-4.962-2.407-7.593 2.353.048.17c.014.052 1.466 5.145 5.894 5.22z"/></g><g><path fill="#8ea3aa" d="M161.176 24.253l4.526 2.195c-.268 1.062-1.52 4.758-5.993 4.758l-.14-.002c-3.668-.063-5.157-3.907-5.445-4.765zm-1.469 7.332c3.887 0 5.873-2.673 6.436-5.198l.031-.14-4.962-2.407-7.592 2.353.048.17c.014.052 1.465 5.145 5.894 5.22z"/></g><g><path fill="#a1b2c0" d="M87.48 22.65s1.377 5.004 5.696 5.077c4.32.073 5.949-3.138 6.374-5.045l-4.745-2.302z"/></g><g><path fill="#8ea3aa" d="M94.787 20.583l4.525 2.196c-.27 1.073-1.565 4.828-6.132 4.756-3.668-.063-5.159-3.908-5.445-4.765zm-1.47 7.333c3.888 0 5.874-2.673 6.436-5.2l.031-.138-4.96-2.408-7.594 2.353.047.17c.015.052 1.467 5.145 5.895 5.221z"/></g><g><path fill="#a1b2c0" d="M99.55 22.65s1.376 5.004 5.696 5.077c4.32.073 5.949-3.138 6.374-5.045l-4.745-2.302z"/></g><g><path fill="#8ea3aa" d="M106.857 20.583l4.525 2.196c-.268 1.062-1.52 4.757-5.992 4.757l-.14-.001c-3.668-.063-5.159-3.908-5.445-4.765zm-1.469 7.333c3.886 0 5.872-2.673 6.435-5.2l.031-.138-4.96-2.408-7.594 2.353.047.17c.014.052 1.467 5.145 5.894 5.221z"/></g><g><path fill="#a1b2c0" d="M111.62 22.65s1.376 5.004 5.696 5.077c4.32.073 5.949-3.138 6.373-5.045l-4.744-2.302z"/></g><g><path fill="#8ea3aa" d="M118.926 20.583l4.526 2.196c-.268 1.062-1.521 4.757-5.992 4.757l-.14-.001c-3.669-.063-5.158-3.908-5.445-4.765zm-1.468 7.333c3.886 0 5.872-2.673 6.435-5.2l.031-.138-4.962-2.408-7.592 2.353.048.17c.014.052 1.466 5.145 5.894 5.221z"/></g><g><path fill="#a1b2c0" d="M123.69 22.65s1.376 5.004 5.696 5.077c4.32.073 5.949-3.138 6.374-5.045l-4.745-2.302z"/></g><g><path fill="#8ea3aa" d="M130.995 20.583l4.526 2.196c-.268 1.062-1.521 4.757-5.992 4.757l-.14-.001c-3.669-.063-5.159-3.908-5.446-4.765zm-1.469 7.333c3.887 0 5.872-2.673 6.437-5.2l.03-.138-4.962-2.408-7.591 2.353.046.17c.014.052 1.466 5.145 5.894 5.221z"/></g><g><path fill="#a1b2c0" d="M135.76 22.65s1.377 5.004 5.696 5.077c4.32.073 5.948-3.138 6.373-5.045l-4.744-2.302z"/></g><g><path fill="#8ea3aa" d="M143.065 20.583l4.526 2.196c-.268 1.062-1.521 4.757-5.992 4.757l-.14-.001c-3.669-.063-5.159-3.908-5.445-4.765zm-1.469 7.333c3.887 0 5.873-2.673 6.437-5.2l.03-.138-4.962-2.408-7.591 2.353.046.17c.014.052 1.466 5.145 5.895 5.221z"/></g><g><path fill="#a1b2c0" d="M147.83 22.65s1.377 5.004 5.697 5.077c4.32.073 5.948-3.138 6.373-5.045l-4.744-2.302z"/></g><g><path fill="#8ea3aa" d="M155.136 20.583l4.525 2.196c-.267 1.062-1.52 4.757-5.99 4.757l-.142-.001c-3.668-.063-5.158-3.908-5.444-4.765zm-1.469 7.333c3.886 0 5.873-2.673 6.436-5.2l.03-.138-4.96-2.408-7.593 2.353.047.17c.014.052 1.466 5.145 5.895 5.221z"/></g><g><path fill="#a1b2c0" d="M81.45 18.97s1.376 5.003 5.697 5.077c4.32.073 5.948-3.138 6.373-5.046L88.775 16.7z"/></g><g><path fill="#8ea3aa" d="M88.755 16.903l4.527 2.195c-.271 1.074-1.557 4.85-6.133 4.755-3.669-.061-5.159-3.905-5.445-4.764zm-1.468 7.332c3.887 0 5.873-2.674 6.435-5.199l.031-.139-4.962-2.407-7.591 2.354.047.17c.013.051 1.466 5.144 5.894 5.22z"/></g><g><path fill="#a1b2c0" d="M93.52 18.97s1.376 5.003 5.696 5.077c4.32.073 5.948-3.138 6.374-5.046l-4.745-2.301z"/></g><g><path fill="#8ea3aa" d="M100.825 16.903l4.527 2.195c-.27 1.063-1.521 4.757-5.993 4.757l-.14-.002c-3.668-.061-5.158-3.905-5.445-4.764zm-1.468 7.332c3.887 0 5.873-2.674 6.435-5.199l.031-.139-4.962-2.407-7.591 2.354.047.17c.013.051 1.466 5.144 5.894 5.22z"/></g><g><path fill="#a1b2c0" d="M105.59 18.97s1.376 5.003 5.696 5.077c4.32.073 5.948-3.138 6.374-5.046l-4.745-2.301z"/></g><g><path fill="#8ea3aa" d="M112.896 16.903l4.525 2.195c-.267 1.063-1.52 4.757-5.992 4.757l-.14-.002c-3.668-.061-5.159-3.905-5.445-4.764zm-1.469 7.332c3.888 0 5.874-2.674 6.434-5.199l.032-.139-4.96-2.407-7.593 2.354.046.17c.014.051 1.467 5.144 5.895 5.22z"/></g><g><path fill="#a1b2c0" d="M117.66 18.97s1.376 5.003 5.696 5.077c4.32.073 5.949-3.138 6.374-5.046l-4.745-2.301z"/></g><g><path fill="#8ea3aa" d="M124.967 16.903l4.525 2.195c-.267 1.063-1.52 4.757-5.993 4.757l-.14-.002c-3.667-.061-5.158-3.905-5.445-4.764zm-1.469 7.332c3.888 0 5.873-2.674 6.434-5.199l.032-.139-4.962-2.407-7.592 2.354.048.17c.013.051 1.465 5.144 5.893 5.22z"/></g><g><path fill="#a1b2c0" d="M129.73 18.97s1.376 5.003 5.696 5.077c4.32.073 5.949-3.138 6.374-5.046l-4.745-2.301z"/></g><g><path fill="#8ea3aa" d="M137.037 16.903l4.525 2.195c-.267 1.063-1.52 4.757-5.993 4.757l-.14-.002c-3.667-.061-5.158-3.905-5.445-4.764zm-1.47 7.332c3.889 0 5.874-2.674 6.436-5.199l.032-.139-4.963-2.407-7.592 2.353.047.17c.013.052 1.466 5.145 5.894 5.22z"/></g><g><path fill="#a1b2c0" d="M141.8 18.97s1.376 5.003 5.696 5.077c4.32.073 5.949-3.138 6.374-5.046l-4.746-2.301z"/></g><g><path fill="#8ea3aa" d="M149.107 16.903l4.526 2.195c-.268 1.063-1.52 4.757-5.993 4.757l-.14-.002c-3.667-.061-5.158-3.905-5.446-4.764zm-1.469 7.332c3.887 0 5.873-2.674 6.437-5.199l.03-.139-4.962-2.407-7.593 2.353.048.17c.014.052 1.466 5.145 5.894 5.22z"/></g><g><path fill="#8ea3aa" d="M161.176 16.903l4.526 2.195c-.268 1.063-1.52 4.757-5.993 4.757l-.14-.002c-3.668-.061-5.157-3.905-5.445-4.764zm-1.469 7.332c3.887 0 5.873-2.674 6.436-5.199l.031-.139-4.962-2.407-7.592 2.354.048.17c.014.051 1.465 5.144 5.894 5.22z"/></g><g><path fill="#a1b2c0" d="M87.48 15.3s1.377 5.004 5.696 5.078c4.32.073 5.949-3.139 6.374-5.046l-4.745-2.302z"/></g><g><path fill="#8ea3aa" d="M94.787 13.233l4.525 2.195c-.27 1.074-1.565 4.837-6.132 4.755-3.668-.061-5.159-3.906-5.445-4.765zm-1.47 7.331c3.888 0 5.874-2.673 6.436-5.198l.031-.139-4.96-2.407-7.594 2.353.047.17c.015.051 1.467 5.145 5.895 5.22z"/></g><g><path fill="#a1b2c0" d="M99.55 15.3s1.376 5.004 5.696 5.078c4.32.073 5.949-3.139 6.374-5.046l-4.745-2.302z"/></g><g><path fill="#8ea3aa" d="M106.857 13.233l4.525 2.195c-.268 1.063-1.52 4.757-5.992 4.757l-.14-.002c-3.668-.061-5.159-3.906-5.445-4.765zm-1.469 7.331c3.886 0 5.872-2.673 6.435-5.198l.031-.139-4.96-2.407-7.594 2.353.047.17c.014.051 1.467 5.145 5.894 5.22z"/></g><g><path fill="#a1b2c0" d="M111.62 15.3s1.376 5.004 5.696 5.078c4.32.073 5.949-3.139 6.373-5.046l-4.744-2.302z"/></g><g><path fill="#8ea3aa" d="M118.926 13.233l4.526 2.195c-.268 1.063-1.521 4.757-5.992 4.757l-.14-.002c-3.669-.061-5.158-3.906-5.445-4.765zm-1.468 7.331c3.886 0 5.872-2.673 6.435-5.198l.031-.139-4.962-2.407-7.592 2.353.048.17c.014.051 1.466 5.145 5.894 5.22z"/></g><g><path fill="#a1b2c0" d="M123.69 15.3s1.376 5.004 5.696 5.078c4.32.073 5.949-3.139 6.374-5.046l-4.745-2.302z"/></g><g><path fill="#8ea3aa" d="M130.996 13.233l4.525 2.195c-.268 1.063-1.521 4.757-5.992 4.757l-.14-.002c-3.669-.061-5.159-3.906-5.446-4.765zm-1.47 7.331c3.887 0 5.872-2.673 6.437-5.198l.03-.139-4.962-2.407-7.591 2.353.046.17c.014.051 1.466 5.145 5.894 5.22z"/></g><g><path fill="#a1b2c0" d="M135.76 15.3s1.377 5.004 5.696 5.078c4.32.073 5.948-3.139 6.373-5.046l-4.744-2.302z"/></g><g><path fill="#8ea3aa" d="M143.066 13.233l4.525 2.195c-.268 1.063-1.521 4.757-5.992 4.757l-.14-.002c-3.669-.061-5.159-3.906-5.446-4.765zm-1.47 7.331c3.887 0 5.872-2.673 6.437-5.198l.03-.139-4.962-2.407-7.591 2.353.046.17c.014.051 1.466 5.145 5.895 5.22z"/></g><g><path fill="#a1b2c0" d="M147.83 15.3s1.377 5.004 5.696 5.078c4.321.073 5.949-3.139 6.374-5.046l-4.744-2.302z"/></g><g><path fill="#8ea3aa" d="M155.137 13.233l4.524 2.195c-.267 1.063-1.52 4.757-5.99 4.757l-.142-.002c-3.668-.061-5.158-3.906-5.444-4.765zm-1.47 7.331c3.886 0 5.873-2.673 6.436-5.198l.03-.139-4.96-2.407-7.593 2.353.047.17c.014.051 1.466 5.145 5.895 5.22z"/></g><g><path fill="#a1b2c0" d="M81.45 11.62s1.376 5.004 5.697 5.078c4.32.073 5.948-3.139 6.373-5.046L88.775 9.35z"/></g><g><path fill="#8ea3aa" d="M88.755 9.562l4.527 2.197c-.268 1.062-1.521 4.756-5.993 4.756l-.14-.002c-3.669-.062-5.159-3.905-5.445-4.764zm-1.468 7.332c3.887 0 5.874-2.673 6.435-5.198l.031-.139-4.962-2.407-7.591 2.354.047.169c.013.053 1.466 5.145 5.894 5.22z"/></g><g><path fill="#a1b2c0" d="M93.52 11.62s1.376 5.004 5.696 5.078c4.32.073 5.948-3.139 6.374-5.046l-4.745-2.302z"/></g><g><path fill="#8ea3aa" d="M100.825 9.562l4.527 2.197c-.269 1.062-1.521 4.756-5.993 4.756l-.14-.002c-3.668-.062-5.158-3.905-5.445-4.764zm-1.468 7.332c3.888 0 5.873-2.673 6.435-5.198l.031-.139-4.962-2.407-7.591 2.354.047.169c.013.053 1.466 5.145 5.894 5.22z"/></g><g><path fill="#a1b2c0" d="M105.59 11.62s1.376 5.004 5.696 5.078c4.32.073 5.948-3.139 6.374-5.046l-4.745-2.302z"/></g><g><path fill="#8ea3aa" d="M112.896 9.562l4.525 2.197c-.267 1.062-1.518 4.756-5.992 4.756l-.14-.002c-3.668-.062-5.159-3.905-5.445-4.764zm-1.469 7.332c3.889 0 5.874-2.673 6.434-5.198l.032-.139-4.96-2.407-7.593 2.354.046.169c.014.053 1.467 5.145 5.895 5.22z"/></g><g><path fill="#a1b2c0" d="M117.66 11.62s1.376 5.004 5.696 5.078c4.32.073 5.949-3.139 6.374-5.046l-4.745-2.302z"/></g><g><path fill="#8ea3aa" d="M124.967 9.562l4.525 2.197c-.267 1.062-1.518 4.756-5.993 4.756l-.14-.002c-3.667-.062-5.158-3.905-5.445-4.764zm-1.469 7.332c3.889 0 5.873-2.673 6.434-5.198l.032-.139-4.962-2.407-7.592 2.354.048.169c.013.053 1.465 5.145 5.893 5.22z"/></g><g><path fill="#a1b2c0" d="M129.73 11.62s1.376 5.004 5.696 5.078c4.32.073 5.949-3.139 6.374-5.046l-4.745-2.302z"/></g><g><path fill="#8ea3aa" d="M137.037 9.562l4.525 2.197c-.267 1.062-1.518 4.756-5.993 4.756l-.14-.002c-3.667-.062-5.158-3.905-5.445-4.764zm-1.47 7.332c3.889 0 5.874-2.673 6.436-5.198l.032-.139-4.963-2.407-7.592 2.354.047.169c.014.053 1.466 5.145 5.894 5.22z"/></g><g><path fill="#a1b2c0" d="M141.8 11.62s1.376 5.004 5.696 5.078c4.32.073 5.949-3.139 6.374-5.046l-4.746-2.302z"/></g><g><path fill="#8ea3aa" d="M149.107 9.562l4.526 2.197c-.267 1.062-1.52 4.756-5.993 4.756l-.14-.002c-3.667-.062-5.158-3.905-5.446-4.764zm-1.469 7.332c3.887 0 5.874-2.673 6.437-5.198l.03-.139-4.962-2.407-7.593 2.354.048.169c.014.053 1.466 5.145 5.894 5.22z"/></g><g><path fill="#8ea3aa" d="M161.176 9.562l4.526 2.197c-.268 1.062-1.52 4.756-5.993 4.756l-.14-.002c-3.668-.062-5.157-3.905-5.445-4.764zm-1.468 7.332c3.887 0 5.873-2.673 6.435-5.198l.031-.139-4.962-2.407-7.592 2.354.048.169c.014.053 1.465 5.145 5.894 5.22z"/></g><g><path fill="#a1b2c0" d="M87.48 7.95s1.377 5.004 5.696 5.077c4.32.073 5.949-3.138 6.374-5.045L94.805 5.68z"/></g><g><path fill="#8ea3aa" d="M94.787 5.882l4.525 2.197c-.27 1.073-1.565 4.846-6.132 4.754-3.668-.062-5.159-3.907-5.445-4.765zm-1.47 7.333c3.888 0 5.874-2.673 6.436-5.2l.031-.139-4.96-2.406-7.594 2.353.047.169c.015.053 1.467 5.146 5.895 5.222z"/></g><g><path fill="#a1b2c0" d="M99.55 7.95s1.376 5.004 5.696 5.077c4.32.073 5.949-3.138 6.374-5.045l-4.745-2.302z"/></g><g><path fill="#8ea3aa" d="M106.857 5.882l4.525 2.197c-.271 1.073-1.567 4.824-6.133 4.754-3.667-.062-5.158-3.907-5.444-4.765zm-1.469 7.333c3.886 0 5.872-2.673 6.435-5.2l.031-.139-4.96-2.406L99.3 7.823l.047.169c.014.053 1.467 5.146 5.894 5.222z"/></g><g><path fill="#a1b2c0" d="M111.62 7.95s1.376 5.004 5.696 5.077c4.32.073 5.949-3.138 6.373-5.045l-4.744-2.302z"/></g><g><path fill="#8ea3aa" d="M118.926 5.882l4.526 2.197c-.268 1.061-1.521 4.756-5.992 4.756l-.14-.002c-3.669-.062-5.158-3.907-5.445-4.765zm-1.468 7.333c3.886 0 5.872-2.673 6.435-5.2l.031-.139-4.962-2.406-7.592 2.353.048.169c.014.053 1.466 5.146 5.894 5.222z"/></g><g><path fill="#a1b2c0" d="M123.69 7.95s1.376 5.004 5.696 5.077c4.32.073 5.949-3.138 6.374-5.045l-4.745-2.302z"/></g><g><path fill="#8ea3aa" d="M130.996 5.882l4.525 2.197c-.268 1.061-1.521 4.756-5.992 4.756l-.14-.002c-3.669-.062-5.159-3.907-5.446-4.765zm-1.47 7.333c3.887 0 5.872-2.673 6.437-5.2l.03-.139-4.962-2.406-7.591 2.353.046.169c.014.053 1.466 5.146 5.894 5.222z"/></g><g><path fill="#a1b2c0" d="M135.76 7.95s1.377 5.004 5.696 5.077c4.32.073 5.948-3.138 6.373-5.045l-4.744-2.302z"/></g><g><path fill="#8ea3aa" d="M143.066 5.882l4.525 2.197c-.268 1.061-1.521 4.756-5.992 4.756l-.14-.002c-3.669-.062-5.159-3.907-5.446-4.765zm-1.47 7.333c3.887 0 5.872-2.673 6.437-5.2l.03-.139L143.1 5.47l-7.591 2.353.046.169c.014.053 1.466 5.146 5.895 5.222z"/></g><g><path fill="#a1b2c0" d="M147.83 7.95s1.377 5.004 5.696 5.077c4.321.073 5.949-3.138 6.374-5.045l-4.744-2.302z"/></g><g><path fill="#8ea3aa" d="M155.137 5.882l4.524 2.197c-.267 1.061-1.52 4.756-5.99 4.756l-.142-.002c-3.668-.062-5.158-3.907-5.444-4.765zm-1.47 7.333c3.886 0 5.873-2.673 6.436-5.2l.03-.139-4.96-2.406-7.593 2.353.047.169c.014.053 1.466 5.146 5.895 5.222z"/></g><g><path fill="#a1b2c0" d="M81.45 4.281s1.376 5.003 5.697 5.077c4.32.073 5.948-3.139 6.373-5.045L88.775 2.01z"/></g><g><path fill="#8ea3aa" d="M88.755 2.212l4.527 2.196c-.271 1.074-1.536 4.82-6.133 4.755-3.669-.062-5.159-3.906-5.445-4.764zm-1.468 7.333c3.887 0 5.874-2.673 6.435-5.198l.031-.14L88.791 1.8 81.2 4.153l.047.17c.013.052 1.466 5.145 5.894 5.22z"/></g><g><path fill="#a1b2c0" d="M93.52 4.281s1.376 5.003 5.696 5.077c4.32.073 5.948-3.139 6.374-5.045l-4.745-2.303z"/></g><g><path fill="#8ea3aa" d="M100.825 2.212l4.527 2.196c-.271 1.074-1.556 4.82-6.133 4.755-3.668-.062-5.158-3.906-5.446-4.764zm-1.468 7.333c3.888 0 5.873-2.673 6.435-5.198l.031-.14-4.962-2.407-7.591 2.353.047.17c.013.052 1.466 5.145 5.894 5.22z"/></g><g><path fill="#a1b2c0" d="M105.59 4.281s1.376 5.003 5.696 5.077c4.32.073 5.948-3.139 6.374-5.045l-4.745-2.303z"/></g><g><path fill="#8ea3aa" d="M112.896 2.212l4.525 2.196c-.267 1.062-1.518 4.757-5.992 4.757l-.14-.002c-3.668-.062-5.159-3.906-5.445-4.764zm-1.469 7.333c3.889 0 5.874-2.673 6.434-5.198l.032-.14-4.96-2.407-7.593 2.353.046.17c.014.052 1.467 5.145 5.895 5.22z"/></g><g><path fill="#a1b2c0" d="M117.66 4.281s1.376 5.003 5.696 5.077c4.32.073 5.949-3.139 6.374-5.045l-4.745-2.303z"/></g><g><path fill="#8ea3aa" d="M124.967 2.212l4.525 2.196c-.267 1.062-1.518 4.757-5.993 4.757l-.14-.002c-3.667-.062-5.158-3.906-5.445-4.764zm-1.469 7.333c3.889 0 5.873-2.673 6.434-5.198l.032-.14-4.962-2.407-7.592 2.353.048.17c.013.052 1.465 5.145 5.893 5.22z"/></g><g><path fill="#a1b2c0" d="M129.73 4.281s1.376 5.003 5.696 5.077c4.32.073 5.949-3.139 6.374-5.045l-4.745-2.303z"/></g><g><path fill="#8ea3aa" d="M137.037 2.212l4.525 2.196c-.267 1.062-1.518 4.757-5.993 4.757l-.14-.002c-3.667-.062-5.158-3.906-5.445-4.764zm-1.47 7.333c3.889 0 5.874-2.673 6.436-5.198l.032-.14-4.963-2.407-7.592 2.353.047.17c.014.052 1.466 5.145 5.894 5.22z"/></g><g><path fill="#a1b2c0" d="M141.8 4.281s1.376 5.003 5.696 5.077c4.32.073 5.949-3.139 6.374-5.045l-4.746-2.303z"/></g><g><path fill="#8ea3aa" d="M149.107 2.212l4.526 2.196c-.267 1.062-1.52 4.757-5.993 4.757l-.14-.002c-3.667-.062-5.158-3.906-5.446-4.764zm-1.469 7.333c3.887 0 5.874-2.673 6.437-5.198l.03-.14-4.962-2.407-7.593 2.353.048.17c.014.052 1.466 5.145 5.894 5.22z"/></g><g><path fill="#8ea3aa" d="M161.176 2.212l4.526 2.196c-.268 1.062-1.52 4.757-5.993 4.757l-.14-.002c-3.668-.062-5.157-3.906-5.445-4.764zm-1.468 7.333c3.887 0 5.873-2.673 6.435-5.198l.031-.14-4.962-2.407-7.592 2.353.048.17c.014.052 1.465 5.145 5.894 5.22z"/></g><g><path fill="#a1b2c0" d="M87.48.601s1.377 5.003 5.696 5.077c4.32.073 5.949-3.139 6.374-5.045L94.805-1.67z"/></g><g><path fill="#8ea3aa" d="M94.787-1.466L99.312.729c-.267 1.062-1.52 4.756-5.993 4.756l-.14-.001c-3.667-.063-5.158-3.907-5.444-4.765zm-1.47 7.332c3.888 0 5.874-2.673 6.436-5.198l.031-.14-4.96-2.408L87.23.473l.047.17c.015.052 1.467 5.145 5.895 5.221z"/></g><g><path fill="#a1b2c0" d="M99.55.601s1.376 5.003 5.696 5.077c4.32.073 5.949-3.139 6.374-5.045l-4.745-2.303z"/></g><g><path fill="#8ea3aa" d="M106.857-1.466l4.525 2.195c-.271 1.073-1.567 4.835-6.133 4.755-3.667-.063-5.158-3.907-5.444-4.765zm-1.469 7.332c3.886 0 5.872-2.673 6.435-5.198l.031-.14-4.96-2.408L99.3.473l.047.17c.014.052 1.467 5.145 5.894 5.221z"/></g><g><path fill="#a1b2c0" d="M111.62.601s1.376 5.003 5.696 5.077c4.32.073 5.949-3.139 6.373-5.045l-4.744-2.303z"/></g><g><path fill="#8ea3aa" d="M118.926-1.466l4.526 2.195c-.268 1.062-1.521 4.756-5.992 4.756l-.14-.001c-3.669-.063-5.158-3.907-5.445-4.765zm-1.468 7.332c3.886 0 5.872-2.673 6.435-5.198l.031-.14-4.962-2.408L111.37.473l.048.17c.014.052 1.466 5.145 5.894 5.221z"/></g><g><path fill="#a1b2c0" d="M123.69.601s1.376 5.003 5.696 5.077c4.32.073 5.949-3.139 6.374-5.045l-4.745-2.303z"/></g><g><path fill="#8ea3aa" d="M130.996-1.466L135.52.729c-.268 1.062-1.521 4.756-5.992 4.756l-.14-.001c-3.669-.063-5.159-3.907-5.446-4.765zm-1.47 7.332c3.887 0 5.872-2.673 6.437-5.198l.03-.14-4.962-2.408L123.44.473l.046.17c.014.052 1.466 5.145 5.894 5.221z"/></g><g><path fill="#a1b2c0" d="M135.76.601s1.377 5.003 5.696 5.077c4.32.073 5.948-3.139 6.373-5.045l-4.744-2.303z"/></g><g><path fill="#8ea3aa" d="M143.066-1.466L147.59.729c-.268 1.062-1.521 4.756-5.992 4.756l-.14-.001c-3.669-.063-5.159-3.907-5.446-4.765zm-1.47 7.332c3.887 0 5.872-2.673 6.437-5.198l.03-.14L143.1-1.88 135.51.473l.046.17c.014.052 1.466 5.145 5.895 5.221z"/></g><g><path fill="#a1b2c0" d="M147.83.601s1.377 5.003 5.696 5.077c4.321.073 5.949-3.139 6.374-5.045l-4.744-2.303z"/></g><g><path fill="#8ea3aa" d="M155.137-1.466L159.66.729c-.267 1.062-1.52 4.756-5.99 4.756l-.142-.001c-3.668-.063-5.158-3.907-5.444-4.765zm-1.47 7.332c3.886 0 5.873-2.673 6.436-5.198l.03-.14-4.96-2.408L147.58.473l.047.17c.014.052 1.466 5.145 5.895 5.221z"/></g><g><path fill="#a1b2c0" d="M81.45-3.069s1.376 5.003 5.697 5.077c4.32.073 5.948-3.139 6.373-5.046L88.775-5.34z"/></g><g><path fill="#8ea3aa" d="M88.755-5.136l4.527 2.196c-.271 1.073-1.54 4.846-6.133 4.755-3.669-.063-5.159-3.908-5.445-4.765zm-1.469 7.333c3.887 0 5.874-2.674 6.436-5.2l.031-.138-4.962-2.409L81.2-3.196l.047.17c.013.052 1.466 5.145 5.895 5.221z"/></g><g><path fill="#a1b2c0" d="M93.52-3.069s1.376 5.003 5.696 5.077c4.32.073 5.948-3.139 6.374-5.046l-4.745-2.302z"/></g><g><path fill="#8ea3aa" d="M100.825-5.136l4.527 2.196c-.271 1.073-1.544 4.846-6.133 4.755-3.668-.063-5.158-3.908-5.445-4.765zm-1.47 7.333c3.889 0 5.875-2.674 6.437-5.2l.031-.138-4.962-2.409-7.591 2.354.047.17c.013.052 1.466 5.145 5.894 5.221z"/></g><g><path fill="#a1b2c0" d="M105.59-3.069s1.376 5.003 5.696 5.077c4.32.073 5.948-3.139 6.374-5.046l-4.745-2.302z"/></g><g><path fill="#8ea3aa" d="M112.896-5.136l4.525 2.196c-.267 1.062-1.52 4.756-5.994 4.756l-.138-.001c-3.668-.063-5.159-3.908-5.445-4.765zm-1.47 7.333c3.889 0 5.875-2.674 6.435-5.2l.032-.138-4.96-2.409-7.593 2.354.046.17c.014.052 1.467 5.145 5.895 5.221z"/></g><g><path fill="#a1b2c0" d="M117.66-3.069s1.376 5.003 5.696 5.077c4.32.073 5.949-3.139 6.374-5.046l-4.745-2.302z"/></g><g><path fill="#8ea3aa" d="M124.967-5.136l4.525 2.196c-.267 1.062-1.52 4.756-5.994 4.756l-.139-.001c-3.667-.063-5.158-3.908-5.445-4.765zm-1.47 7.333c3.889 0 5.874-2.674 6.435-5.2l.032-.138-4.962-2.409-7.592 2.354.048.17c.013.052 1.465 5.145 5.893 5.221z"/></g><g><path fill="#a1b2c0" d="M129.73-3.069s1.376 5.003 5.696 5.077c4.32.073 5.949-3.139 6.374-5.046l-4.745-2.302z"/></g><g><path fill="#8ea3aa" d="M137.037-5.136l4.525 2.196c-.267 1.062-1.52 4.756-5.995 4.756l-.137-.001c-3.668-.063-5.159-3.908-5.446-4.765zm-1.47 7.333c3.889 0 5.874-2.674 6.436-5.2l.032-.138-4.963-2.409-7.592 2.354.047.17c.014.052 1.466 5.145 5.894 5.221z"/></g><g><path fill="#a1b2c0" d="M141.8-3.069s1.376 5.003 5.696 5.077c4.32.073 5.949-3.139 6.374-5.046l-4.746-2.302z"/></g><g><path fill="#8ea3aa" d="M149.107-5.136l4.526 2.196c-.27 1.072-1.529 4.834-6.133 4.755-3.667-.063-5.158-3.908-5.446-4.765zm-1.47 7.333c3.888 0 5.875-2.674 6.438-5.2l.03-.138-4.962-2.409-7.593 2.354.048.17c.014.052 1.466 5.145 5.894 5.221z"/></g><g><path fill="#8ea3aa" d="M161.176-5.136l4.526 2.196c-.268 1.062-1.52 4.756-5.994 4.756l-.139-.001c-3.668-.063-5.157-3.908-5.445-4.765zm-1.47 7.333c3.888 0 5.875-2.674 6.437-5.2l.031-.138-4.962-2.409-7.592 2.354.048.17c.014.052 1.465 5.145 5.894 5.221z"/></g></g><g clip-path="url(#clip-271:512)"><path fill="#d3dbe3" d="M139.38 114.312h56.876V3.82H139.38z"/></g><g clip-path="url(#clip-271:512)"><path fill="#fff" d="M160.15 59.82h15.334V40.96H160.15z"/></g><g clip-path="url(#clip-271:512)"><path fill="#aab6c5" d="M167.39 60.407h.859V40.96h-.859z"/></g><g clip-path="url(#clip-271:512)"><path fill="#aab6c5" d="M160.15 48.023h15.334v-.783H160.15z"/></g><g clip-path="url(#clip-271:512)"><path fill="#aab6c5" d="M160.15 53.873h15.334v-.783H160.15z"/></g><g clip-path="url(#clip-271:512)"><path fill="#aab6c5" d="M158.53 40.96h18.57v-2.49h-18.57z"/></g><g clip-path="url(#clip-271:512)"><path fill="#aab6c5" d="M158.53 61.66h18.57v-2.49h-18.57z"/></g><g clip-path="url(#clip-271:512)"><path fill="#fff" d="M160.15 95.91h15.334V77.05H160.15z"/></g><g clip-path="url(#clip-271:512)"><path fill="#aab6c5" d="M167.39 96.498h.859V77.05h-.859z"/></g><g clip-path="url(#clip-271:512)"><path fill="#aab6c5" d="M160.15 84.113h15.334v-.783H160.15z"/></g><g clip-path="url(#clip-271:512)"><path fill="#aab6c5" d="M160.15 89.953h15.334v-.783H160.15z"/></g><g clip-path="url(#clip-271:512)"><path fill="#aab6c5" d="M158.53 77.05h18.57v-2.49h-18.57z"/></g><g clip-path="url(#clip-271:512)"><path fill="#aab6c5" d="M158.53 97.74h18.57v-2.49h-18.57z"/></g><g clip-path="url(#clip-271:512)"><path fill="#aab6c5" d="M139.38 114.316h56.876v-7.046H139.38z"/></g><g clip-path="url(#clip-271:512)"><path fill="#aab6c5" d="M190.06 35.907h6.19V32.95h-6.19z"/></g><g clip-path="url(#clip-271:512)"><path fill="#aab6c5" d="M186.97 39.717h6.19V36.76h-6.19z"/></g><g clip-path="url(#clip-271:512)"><path fill="#a2acb9" d="M133.32 88.827h5.003V85.87h-5.003z"/></g><g clip-path="url(#clip-271:512)"><path fill="#aab6c5" d="M149.36 67.257h6.19V64.3h-6.19z"/></g><g clip-path="url(#clip-271:512)"><path fill="#aab6c5" d="M192.88 93.477h3.372V90.52h-3.372z"/></g><g clip-path="url(#clip-271:512)"><path fill="#97a1ad" d="M197.268 79.713a648.626 648.626 0 0 1-1.078 34.582c1.077.087 2.188-.204 3.048-.802a107.37 107.37 0 0 1 .743-38.523"/></g><g clip-path="url(#clip-271:512)"><path fill="#97a1ad" d="M197.418 79.708c-1.177 5.354-.319 11.054-.606 16.484-.32 6.036-.756 12.076-1.181 18.109-.02.266.301.513.623.505 1.488-.038 2.461-.26 3.753-.852.183-.083.345-.278.322-.455-.824-6.388-1.244-12.867-1.121-19.289.062-3.225.292-6.448.682-9.656.385-3.177 1.46-6.395 1.167-9.578-.036-.39-.77-.657-1.012-.222-2.628 4.705-2.554 11.14-2.845 16.232-.343 5.988-.16 11.965.89 17.901.084.474 1.174 5.341-1.12 3.767-.55-.376.23-4.423.253-4.936.154-3.295.233-6.583.257-9.88.042-5.923 1.241-12.275.034-18.13z"/></g><g clip-path="url(#clip-271:512)"><path fill="#97a1ad" d="M197.96 90.9c2.658-2.25 4.64-5.16 5.671-8.333.068-.207.148-.436.353-.549.316-.172.748.063.872.38.123.317.03.665-.072.989-1.12 3.544-3.309 6.8-6.26 9.32"/></g><g clip-path="url(#clip-271:512)"><path fill="#97a1ad" d="M192.659 79.708c-.336 4.045 1.52 7.661 4.958 10.212.607.451 1.483-.329.87-.793-3.082-2.338-4.836-5.777-5.037-9.42-.026-.466-.753-.46-.791 0z"/></g><g clip-path="url(#clip-271:512)"><path fill="#ffc300" d="M181.295 80.606c1.019 6.88 11.217 11.483 15.39 4.739.398.193.808.364 1.23.512 1.562.635 3.15 1.07 4.863 1.229 2.375.218 4.793-.023 6.98-.946 3.804-1.604 6.075-4.822 6.41-8.362 2.792-.31 5.085-2.55 4.583-5.653-.188-1.164-.683-2.113-1.373-2.848 1.587-3.262-.758-7.251-5.433-7.525.001-7.678-10.615-10.03-14.571-3.689-2.685-2.375-6.435-3.38-10.154-1.653-2.278 1.058-3.88 2.841-4.313 5.148-.209 1.111.147 2.16.15 3.214a5.018 5.018 0 0 0-.512-.066c-10.1-.79-12.573 14.365-3.25 15.9z"/></g></g></g></svg>