<svg xmlns="http://www.w3.org/2000/svg" width="24" height="21" viewBox="0 0 24 21"><g><g><g/><g><path fill="#ff6400" d="M17.608 3.952h5.274c.31 0 .566.18.566.485a.534.534 0 0 1-.547.539h-5.274v1.437c0 .521-.42.934-.95.934h-.875V8.3a.914.914 0 0 1-.365.737c-.238.162-.53.215-.821.144l-.074-.018c-.364-.108-1.058-.306-1.55-.342-.767-.071-2.227-.09-3.395.396-.11.485 0 .844.128 1.24.073.215.146.43.164.664a.965.965 0 0 1-.821 1.06H7.626c-.11.826-.037 1.616.255 2.173.238.467.603.755 1.095.863.968.197 1.789.197 2.446.18h.112c.69-.002 1.186-.002 1.567.305l.009.008c.221.199.628.564.52 4.357a.963.963 0 0 1-.967.934H1.02c-.511 0-.95-.395-.967-.898l-.002-.04c-.018-.434-.178-4.196.184-6.014.292-1.455.894-2.73 1.35-3.665.22-.43.475-.97.511-1.185-.146-.09-.529-.198-.748-.252C.764 8.802.162 8.641.09 8.066.034 7.689.126 3.952.217.898A.924.924 0 0 1 1.147 0h13.706c.51 0 .93.413.93.916v.575h.876c.53 0 .95.413.95.934zM8.064 10.67a5.77 5.77 0 0 0-.2.503h.912a2.529 2.529 0 0 0-.06-.216 9.448 9.448 0 0 1-.032-.108l-.02-.067a3.997 3.997 0 0 1-.18-.74c-.165.179-.31.394-.42.628zm6.642-2.533l-.018-.005V1.095H1.293c-.092 3.45-.146 6.018-.128 6.7.128.055.328.109.474.145l.006.001c.6.161 1.273.342 1.49.915.192.462-.064 1.006-.484 1.896l-.063.134c-.456.916-1.003 2.066-1.277 3.413-.292 1.437-.219 4.473-.164 5.677h11.405c.055-2.174-.09-3.144-.182-3.396-.117-.043-.422-.04-.717-.037l-.214.002h-.135c-.662 0-1.542.002-2.566-.216-.82-.162-1.46-.665-1.843-1.42-.638-1.203-.565-3.035.164-4.67.475-1.042 1.862-2.73 6.023-2.425.54.035 1.185.193 1.606.318v.005zm1.096-1.814h.711V2.57h-.712z"/></g><g><path fill="#ff6400" d="M6.547 3.571c0 .773-.639 1.401-1.424 1.401a1.414 1.414 0 0 1-1.423-1.4c0-.773.639-1.402 1.423-1.402.785 0 1.424.629 1.424 1.401zm-1.095 0a.325.325 0 0 0-.329-.323.325.325 0 0 0-.328.323c0 .18.146.324.328.324a.325.325 0 0 0 .329-.324z"/></g></g></g></svg>