<svg xmlns="http://www.w3.org/2000/svg" width="40" height="40" viewBox="0 0 40 40"><g><g><g/><g><g><path fill="#a8a8a8" d="M29.658 12.023a13.334 13.334 0 0 0-26.32 2.98c-.002 2.13.512 4.23 1.5 6.118a9.15 9.15 0 0 0 4.334 17.215h10.833v-3.333H9.172a5.818 5.818 0 0 1-1.454-11.457l2.395-.618-1.471-1.987a9.983 9.983 0 0 1 8.03-15.938 10.017 10.017 0 0 1 9.9 8.667l.166 1.263L28 15.1a9.983 9.983 0 0 1 2.005 19.32v3.478a13.315 13.315 0 0 0-.347-25.875z"/></g><g><path fill="#a8a8a8" d="M30.483 29.511l2.357-2.357-5.488-5.488a3.333 3.333 0 0 0-4.714 0l-5.488 5.488 2.357 2.357 3.821-3.822V40h3.334V25.69z"/></g></g></g></g></svg>